SplineFontDB: 3.0
FontName: Lavi
FullName: Lavi Italic
FamilyName: Lavi
Weight: Italic
Copyright: A creation by Ruben Holthuijsen aka Rholt (2009).\nMaintainance and modification by David Revoy for the webcomic www.peppercarrot.com.\nCorrection by Solve Svartskogen.\nGNU GPL V3 ( https://www.gnu.org/copyleft/gpl.html)\nRepository and sources available here: https://github.com/Deevad/peppercarrot_fonts/\n
Version: 2.0
ItalicAngle: 0
UnderlinePosition: -240
UnderlineWidth: 120
Ascent: 1638
Descent: 410
InvalidEm: 0
LayerCount: 2
Layer: 0 1 "Back" 1
Layer: 1 1 "Fore" 0
XUID: [1021 91 1847977381 2065907]
FSType: 0
OS2Version: 3
OS2_WeightWidthSlopeOnly: 0
OS2_UseTypoMetrics: 1
CreationTime: 1231154524
ModificationTime: 1509918570
PfmFamily: 65
TTFWeight: 400
TTFWidth: 5
LineGap: 122
VLineGap: 0
Panose: 3 0 5 0 0 0 0 2 0 4
OS2TypoAscent: 1556
OS2TypoAOffset: 0
OS2TypoDescent: -412
OS2TypoDOffset: 0
OS2TypoLinegap: 122
OS2WinAscent: 2174
OS2WinAOffset: 0
OS2WinDescent: 626
OS2WinDOffset: 0
HheadAscent: 1556
HheadAOffset: 0
HheadDescent: -412
HheadDOffset: 0
OS2SubXSize: 1434
OS2SubYSize: 1331
OS2SubXOff: 0
OS2SubYOff: 293
OS2SupXSize: 1434
OS2SupYSize: 1331
OS2SupXOff: 0
OS2SupYOff: 928
OS2StrikeYSize: 102
OS2StrikeYPos: 512
OS2FamilyClass: 2048
OS2Vendor: 'RL  '
OS2CodePages: 20000001.00000000
OS2UnicodeRanges: 00000007.00000000.00000000.00000000
Lookup: 258 0 0 "'kern' Horizontal Kerning in Latin lookup 0" { "'kern' Horizontal Kerning in Latin lookup 0 subtable"  } ['kern' ('latn' <'dflt' > ) ]
MarkAttachClasses: 1
DEI: 91125
TtTable: prep
PUSHW_1
 0
CALL
SVTCA[y-axis]
PUSHW_3
 1
 4
 7
CALL
PUSHW_1
 0
DUP
RCVT
RDTG
ROUND[Black]
RTG
WCVTP
EndTTInstrs
TtTable: fpgm
PUSHW_1
 0
FDEF
MPPEM
PUSHW_1
 9
LT
IF
PUSHB_2
 1
 1
INSTCTRL
EIF
PUSHW_1
 511
SCANCTRL
PUSHW_1
 68
SCVTCI
PUSHW_2
 9
 3
SDS
SDB
ENDF
PUSHW_1
 1
FDEF
DUP
DUP
RCVT
ROUND[Black]
WCVTP
PUSHB_1
 1
ADD
ENDF
PUSHW_1
 2
FDEF
PUSHW_1
 1
LOOPCALL
POP
ENDF
PUSHW_1
 3
FDEF
DUP
GC[cur]
PUSHB_1
 3
CINDEX
GC[cur]
GT
IF
SWAP

StartChar: .notdef
Encoding: 65536 -1 0
Width: 1437
Flags: W
LayerCount: 2
Fore
SplineSet
233 0 m 1,0,-1
 645 1536 l 1,1,-1
 1581 1536 l 1,2,-1
 1169 0 l 1,3,-1
 233 0 l 1,0,-1
382 128 m 1,4,-1
 1079 128 l 1,5,-1
 1432 1408 l 1,6,-1
 735 1408 l 1,7,-1
 382 128 l 1,4,-1
EndSplineSet
EndChar

StartChar: exclam
Encoding: 33 33 4
Width: 644
GlyphClass: 2
Flags: W
LayerCount: 2
Fore
SplineSet
242 169 m 256,0,1
 250 202 250 202 269 232 c 128,-1,2
 288 262 288 262 313.5 284 c 128,-1,3
 339 306 339 306 369.5 319 c 128,-1,4
 400 332 400 332 432 332 c 0,5,6
 465 332 465 332 489 319 c 0,7,8
 515 305 515 305 527 284 c 0,9,10
 541 262 541 262 545 232 c 128,-1,11
 549 202 549 202 542 173 c 0,12,13
 542 171 542 171 541 169 c 256,14,15
 534 138 534 138 516 106 c 0,16,17
 500 79 500 79 474 54 c 0,18,19
 449 30 449 30 419 18 c 0,20,21
 387 5 387 5 357 5 c 0,22,23
 325 5 325 5 300 18 c 128,-1,24
 275 31 275 31 259.5 53 c 128,-1,25
 244 75 244 75 239 105 c 0,26,27
 237 117 237 117 237 129 c 0,28,29
 237 148 237 148 242 169 c 256,0,1
909 1468 m 2,30,-1
 901 1434 l 1,31,-1
 760 944 l 2,32,33
 758 937 758 937 752 920 c 0,34,35
 743 899 743 899 735 876 c 0,36,37
 725 848 725 848 712 815 c 128,-1,38
 699 782 699 782 687 750 c 128,-1,39
 675 718 675 718 663.5 689 c 128,-1,40
 652 660 652 660 643 639 c 0,41,42
 630 608 630 608 624 590 c 0,43,44
 613 563 613 563 596 536 c 0,45,46
 581 512 581 512 559.5 495 c 128,-1,47
 538 478 538 478 505 478 c 0,48,49
 471 478 471 478 455 502 c 0,50,51
 444 518 444 518 444 540 c 0,52,53
 444 552 444 552 447 565 c 2,54,-1
 452 587 l 1,55,-1
 611 1015 l 1,56,-1
 755 1507 l 2,57,58
 764 1540 764 1540 792 1560 c 128,-1,59
 820 1580 820 1580 848 1580 c 0,60,61
 915 1580 915 1580 915 1514 c 0,62,63
 915 1494 915 1494 909 1468 c 2,30,-1
EndSplineSet
EndChar

StartChar: quotedbl
Encoding: 34 34 5
Width: 751
GlyphClass: 2
Flags: W
LayerCount: 2
Fore
SplineSet
312 1066 m 0,0,1
 366 1118 366 1118 405 1168 c 128,-1,2
 444 1218 444 1218 473.5 1269 c 128,-1,3
 503 1320 503 1320 526 1374 c 128,-1,4
 549 1428 549 1428 570 1486 c 0,5,6
 582 1518 582 1518 610 1535.5 c 128,-1,7
 638 1553 638 1553 666 1553 c 0,8,9
 696 1553 696 1553 713 1540 c 128,-1,10
 730 1527 730 1527 734 1497 c 1,11,-1
 720 1438 l 2,12,13
 712 1405 712 1405 694.5 1358.5 c 128,-1,14
 677 1312 677 1312 651.5 1260.5 c 128,-1,15
 626 1209 626 1209 593.5 1158.5 c 128,-1,16
 561 1108 561 1108 525.5 1067.5 c 128,-1,17
 490 1027 490 1027 451.5 1002 c 128,-1,18
 413 977 413 977 375 977 c 0,19,20
 356 977 356 977 340 987 c 128,-1,21
 324 997 324 997 313.5 1011 c 128,-1,22
 303 1025 303 1025 301.5 1040 c 128,-1,23
 300 1055 300 1055 312 1066 c 0,0,1
598 1066 m 0,24,25
 652 1118 652 1118 691.5 1168 c 128,-1,26
 731 1218 731 1218 760.5 1269 c 128,-1,27
 790 1320 790 1320 812.5 1373.5 c 128,-1,28
 835 1427 835 1427 856 1485 c 0,29,30
 868 1517 868 1517 896.5 1535 c 128,-1,31
 925 1553 925 1553 952 1553 c 0,32,33
 982 1553 982 1553 999 1540 c 128,-1,34
 1016 1527 1016 1527 1020 1497 c 1,35,-1
 1007 1438 l 2,36,37
 999 1405 999 1405 981.5 1358.5 c 128,-1,38
 964 1312 964 1312 938 1260.5 c 128,-1,39
 912 1209 912 1209 880 1158.5 c 128,-1,40
 848 1108 848 1108 812 1067.5 c 128,-1,41
 776 1027 776 1027 737.5 1002 c 128,-1,42
 699 977 699 977 661 977 c 0,43,44
 642 977 642 977 626 987 c 128,-1,45
 610 997 610 997 600 1011 c 128,-1,46
 590 1025 590 1025 588 1040 c 128,-1,47
 586 1055 586 1055 598 1066 c 0,24,25
EndSplineSet
EndChar

StartChar: numbersign
Encoding: 35 35 6
Width: 1318
GlyphClass: 2
Flags: W
LayerCount: 2
Fore
SplineSet
142 78 m 0,0,1
 154 129 154 129 184.5 177.5 c 128,-1,2
 215 226 215 226 249 274.5 c 128,-1,3
 283 323 283 323 314 372.5 c 128,-1,4
 345 422 345 422 357 475 c 1,5,-1
 204 475 l 2,6,7
 190 475 190 475 181 483.5 c 128,-1,8
 172 492 172 492 167.5 505 c 128,-1,9
 163 518 163 518 162.5 532 c 128,-1,10
 162 546 162 546 164 558 c 0,11,12
 167 569 167 569 173 582.5 c 128,-1,13
 179 596 179 596 187 608 c 128,-1,14
 195 620 195 620 208 635.5 c 128,-1,15
 221 651 221 651 234 651 c 2,16,-1
 441 651 l 1,17,-1
 553 953 l 1,18,-1
 362 953 l 2,19,20
 348 953 348 953 339.5 961.5 c 128,-1,21
 331 970 331 970 326 983 c 128,-1,22
 321 996 321 996 320.5 1010 c 128,-1,23
 320 1024 320 1024 323 1036 c 0,24,25
 326 1047 326 1047 331.5 1060.5 c 128,-1,26
 337 1074 337 1074 345.5 1086 c 128,-1,27
 354 1098 354 1098 367 1113.5 c 128,-1,28
 380 1129 380 1129 393 1129 c 2,29,-1
 615 1129 l 1,30,-1
 685 1433 l 2,31,32
 689 1449 689 1449 700 1463 c 128,-1,33
 711 1477 711 1477 724.5 1486 c 128,-1,34
 738 1495 738 1495 752.5 1499 c 128,-1,35
 767 1503 767 1503 780 1503 c 0,36,37
 806 1503 806 1503 818.5 1492 c 128,-1,38
 831 1481 831 1481 835 1463.5 c 128,-1,39
 839 1446 839 1446 836 1424 c 0,40,41
 833 1394 833 1394 828 1379 c 0,42,43
 812 1320 812 1320 795 1253.5 c 128,-1,44
 778 1187 778 1187 765 1129 c 1,45,-1
 1121 1129 l 1,46,47
 1123 1139 1123 1139 1126 1149 c 1,48,49
 1129 1157 1129 1157 1131.5 1166 c 128,-1,50
 1134 1175 1134 1175 1136 1180 c 1,51,52
 1142 1194 1142 1194 1152 1233 c 128,-1,53
 1162 1272 1162 1272 1173.5 1315.5 c 128,-1,54
 1185 1359 1185 1359 1194 1398 c 128,-1,55
 1203 1437 1203 1437 1209 1451 c 0,56,57
 1223 1479 1223 1479 1245 1491 c 128,-1,58
 1267 1503 1267 1503 1294 1503 c 0,59,60
 1355 1503 1355 1503 1356 1439 c 1,61,-1
 1336 1353 l 2,62,63
 1329 1323 1329 1323 1323 1295.5 c 128,-1,64
 1317 1268 1317 1268 1309.5 1241 c 128,-1,65
 1302 1214 1302 1214 1296 1186 c 128,-1,66
 1290 1158 1290 1158 1278 1126 c 1,67,-1
 1435 1126 l 2,68,69
 1446 1126 1446 1126 1452 1116 c 128,-1,70
 1458 1106 1458 1106 1461.5 1092.5 c 128,-1,71
 1465 1079 1465 1079 1465 1065 c 128,-1,72
 1465 1051 1465 1051 1463 1042 c 0,73,74
 1460 1029 1460 1029 1452 1014.5 c 128,-1,75
 1444 1000 1444 1000 1432.5 987.5 c 128,-1,76
 1421 975 1421 975 1407 967 c 128,-1,77
 1393 959 1393 959 1379 959 c 2,78,-1
 1230 959 l 1,79,-1
 1118 648 l 1,80,-1
 1276 648 l 2,81,82
 1287 648 1287 648 1293.5 638 c 128,-1,83
 1300 628 1300 628 1303 614.5 c 128,-1,84
 1306 601 1306 601 1306.5 587 c 128,-1,85
 1307 573 1307 573 1305 564 c 0,86,87
 1302 551 1302 551 1294 536.5 c 128,-1,88
 1286 522 1286 522 1274.5 509.5 c 128,-1,89
 1263 497 1263 497 1249 489 c 128,-1,90
 1235 481 1235 481 1221 481 c 2,91,-1
 1044 481 l 1,92,93
 992 368 992 368 930.5 254 c 128,-1,94
 869 140 869 140 792 40 c 1,95,96
 773 20 773 20 756 10 c 128,-1,97
 739 0 739 0 716 0 c 0,98,99
 682 0 682 0 665.5 23 c 128,-1,100
 649 46 649 46 657 83 c 0,101,102
 669 133 669 133 700 181 c 128,-1,103
 731 229 731 229 766.5 277 c 128,-1,104
 802 325 802 325 833.5 374 c 128,-1,105
 865 423 865 423 877 475 c 1,106,107
 866 476 866 476 837.5 476 c 128,-1,108
 809 476 809 476 777.5 476.5 c 128,-1,109
 746 477 746 477 718 478 c 1,110,111
 680 478 680 478 679 478 c 0,112,113
 673 477 673 477 636 477 c 1,114,115
 633 475 633 475 586 475 c 1,116,117
 557 472 557 472 528 472 c 1,118,-1
 520 461 l 1,119,120
 510 441 510 441 491.5 399 c 128,-1,121
 473 357 473 357 449 305.5 c 128,-1,122
 425 254 425 254 395.5 200 c 128,-1,123
 366 146 366 146 334 101.5 c 128,-1,124
 302 57 302 57 268 28.5 c 128,-1,125
 234 0 234 0 199 0 c 0,126,127
 166 0 166 0 150 22.5 c 128,-1,128
 134 45 134 45 142 78 c 0,0,1
601 651 m 1,129,-1
 955 651 l 1,130,131
 959 661 959 661 964 671 c 0,132,133
 968 679 968 679 971.5 688 c 128,-1,134
 975 697 975 697 978 702 c 1,135,136
 987 727 987 727 1002 768 c 128,-1,137
 1017 809 1017 809 1031 849 c 128,-1,138
 1045 889 1045 889 1055.5 918.5 c 128,-1,139
 1066 948 1066 948 1067 950 c 2,140,-1
 1069 959 l 1,141,142
 1056 958 1056 958 1023 958 c 128,-1,143
 990 958 990 958 953.5 957.5 c 128,-1,144
 917 957 917 957 883.5 956.5 c 128,-1,145
 850 956 850 956 837 956 c 0,146,147
 823 955 823 955 802 954 c 128,-1,148
 781 953 781 953 761 953 c 0,149,150
 744 953 744 953 713 950 c 1,151,-1
 702 927 l 1,152,-1
 601 651 l 1,129,-1
EndSplineSet
EndChar

StartChar: dollar
Encoding: 36 36 7
Width: 1188
GlyphClass: 2
Flags: W
LayerCount: 2
Fore
SplineSet
478 0 m 1,0,1
 442 0 442 0 398.5 9.5 c 128,-1,2
 355 19 355 19 310.5 34 c 128,-1,3
 266 49 266 49 225.5 71 c 128,-1,4
 185 93 185 93 156 123 c 0,5,6
 127 154 127 154 114 192 c 0,7,8
 107 213 107 213 107 236 c 0,9,10
 107 256 107 256 112 278 c 0,11,12
 120 313 120 313 146.5 338 c 128,-1,13
 173 363 173 363 208 363 c 0,14,15
 227 363 227 363 244.5 350.5 c 128,-1,16
 262 338 262 338 281 318.5 c 128,-1,17
 300 299 300 299 322 276 c 128,-1,18
 344 253 344 253 372 232.5 c 128,-1,19
 400 212 400 212 435.5 194.5 c 128,-1,20
 471 177 471 177 519 177 c 1,21,-1
 653 757 l 1,22,-1
 561 785 l 2,23,24
 519 798 519 798 479 819 c 128,-1,25
 439 840 439 840 408 871 c 128,-1,26
 377 902 377 902 359 943 c 0,27,28
 343 980 343 980 343 1027 c 0,29,30
 343 1032 343 1032 343 1037 c 1,31,-1
 357 1098 l 2,32,33
 377 1184 377 1184 418.5 1255.5 c 128,-1,34
 460 1327 460 1327 518 1380.5 c 128,-1,35
 576 1434 576 1434 647.5 1467.5 c 128,-1,36
 719 1501 719 1501 801 1511 c 1,37,-1
 827 1511 l 1,38,-1
 862 1664 l 1,39,-1
 1024 1664 l 1,40,-1
 989 1513 l 1,41,42
 1025 1509 1025 1509 1069 1509 c 128,-1,43
 1113 1509 1113 1509 1154.5 1500 c 128,-1,44
 1196 1491 1196 1491 1234.5 1480 c 128,-1,45
 1273 1469 1273 1469 1300.5 1453 c 128,-1,46
 1328 1437 1328 1437 1341.5 1414.5 c 128,-1,47
 1355 1392 1355 1392 1348 1362 c 0,48,49
 1340 1327 1340 1327 1314 1302 c 128,-1,50
 1288 1277 1288 1277 1253 1277 c 2,51,-1
 1241 1277 l 1,52,53
 1168 1295 1168 1295 1097 1315.5 c 128,-1,54
 1026 1336 1026 1336 948 1336 c 1,55,-1
 846 892 l 1,56,-1
 985 849 l 2,57,58
 1045 831 1045 831 1100 799.5 c 128,-1,59
 1155 768 1155 768 1192 722 c 0,60,61
 1228 676 1228 676 1244 614 c 0,62,63
 1251 586 1251 586 1252 554 c 0,64,65
 1252 517 1252 517 1242 475 c 0,66,67
 1226 407 1226 407 1192.5 349.5 c 128,-1,68
 1159 292 1159 292 1112.5 244 c 128,-1,69
 1066 196 1066 196 1009.5 158 c 128,-1,70
 953 120 953 120 891.5 91 c 128,-1,71
 830 62 830 62 766.5 42.5 c 128,-1,72
 703 23 703 23 643 13 c 1,73,-1
 609 -133 l 1,74,-1
 447 -133 l 1,75,-1
 478 0 l 1,0,1
804 711 m 1,76,-1
 684 191 l 1,77,78
 744 203 744 203 809 225.5 c 128,-1,79
 874 248 874 248 930 282.5 c 128,-1,80
 986 317 986 317 1028 364.5 c 128,-1,81
 1070 412 1070 412 1084 475 c 0,82,83
 1088 493 1088 493 1088 510 c 0,84,85
 1088 528 1088 528 1083 544 c 0,86,87
 1073 576 1073 576 1051.5 600.5 c 128,-1,88
 1030 625 1030 625 1001.5 642 c 128,-1,89
 973 659 973 659 944 668 c 2,90,-1
 804 711 l 1,76,-1
514 1095 m 0,91,92
 507 1066 507 1066 515 1044 c 128,-1,93
 523 1022 523 1022 539 1005.5 c 128,-1,94
 555 989 555 989 576.5 978 c 128,-1,95
 598 967 598 967 619 961 c 2,96,-1
 695 940 l 1,97,-1
 787 1337 l 1,98,99
 739 1331 739 1331 695.5 1315 c 128,-1,100
 652 1299 652 1299 616 1270.5 c 128,-1,101
 580 1242 580 1242 554 1199 c 128,-1,102
 528 1156 528 1156 514 1095 c 0,91,92
EndSplineSet
EndChar

StartChar: percent
Encoding: 37 37 8
Width: 1539
GlyphClass: 2
Flags: W
LayerCount: 2
Fore
SplineSet
163 50 m 0,0,1
 167 68 167 68 172.5 83.5 c 128,-1,2
 178 99 178 99 194 112 c 1,3,-1
 905 765 l 1,4,-1
 1258 1114 l 2,5,6
 1274 1129 1274 1129 1300.5 1164.5 c 128,-1,7
 1327 1200 1327 1200 1359 1243.5 c 128,-1,8
 1391 1287 1391 1287 1427.5 1334.5 c 128,-1,9
 1464 1382 1464 1382 1496.5 1421 c 128,-1,10
 1529 1460 1529 1460 1556 1486 c 0,11,12
 1582 1511 1582 1511 1599 1514 c 0,13,14
 1605 1515 1605 1515 1610 1515 c 0,15,16
 1636 1514 1636 1514 1651 1494 c 0,17,18
 1663 1479 1663 1479 1663 1456 c 0,19,20
 1663 1445 1663 1445 1660 1432 c 0,21,22
 1652 1397 1652 1397 1631.5 1357 c 128,-1,23
 1611 1317 1611 1317 1584 1275 c 128,-1,24
 1557 1233 1557 1233 1524.5 1191.5 c 128,-1,25
 1492 1150 1492 1150 1460 1113 c 128,-1,26
 1428 1076 1428 1076 1400 1046 c 0,27,28
 1373 1017 1373 1017 1351 996 c 2,29,-1
 728 383 l 1,30,-1
 275 -12 l 2,31,32
 262 -23 262 -23 249 -26 c 0,33,34
 234 -29 234 -29 222 -29 c 0,35,36
 189 -29 189 -29 172 -6 c 128,-1,37
 155 17 155 17 163 50 c 0,0,1
986 357 m 0,38,39
 1001 424 1001 424 1037.5 488 c 128,-1,40
 1074 552 1074 552 1124 602 c 128,-1,41
 1174 652 1174 652 1235.5 682.5 c 128,-1,42
 1297 713 1297 713 1364 713 c 0,43,44
 1432 713 1432 713 1479.5 683 c 128,-1,45
 1527 653 1527 653 1554 603.5 c 128,-1,46
 1581 554 1581 554 1587 490 c 0,47,48
 1589 472 1589 472 1589 452 c 0,49,50
 1589 405 1589 405 1578 357 c 0,51,52
 1562 288 1562 288 1526 224 c 128,-1,53
 1490 160 1490 160 1440 110 c 128,-1,54
 1390 60 1390 60 1328.5 30 c 128,-1,55
 1267 0 1267 0 1199 0 c 0,56,57
 1132 0 1132 0 1085 30.5 c 128,-1,58
 1038 61 1038 61 1011 111 c 128,-1,59
 984 161 984 161 977 225 c 0,60,61
 975 244 975 244 975 264 c 0,62,63
 975 310 975 310 986 357 c 0,38,39
1145 357 m 256,64,65
 1138 326 1138 326 1139.5 294 c 128,-1,66
 1141 262 1141 262 1152 236 c 128,-1,67
 1163 210 1163 210 1184.5 193.5 c 128,-1,68
 1206 177 1206 177 1237 177 c 0,69,70
 1270 177 1270 177 1300 192.5 c 128,-1,71
 1330 208 1330 208 1353.5 233.5 c 128,-1,72
 1377 259 1377 259 1394 291.5 c 128,-1,73
 1411 324 1411 324 1419 357 c 256,74,75
 1425 382 1425 382 1425 407 c 0,76,77
 1424 415 1424 415 1424 422 c 0,78,79
 1422 454 1422 454 1410.5 479.5 c 128,-1,80
 1399 505 1399 505 1376.5 520.5 c 128,-1,81
 1354 536 1354 536 1320 536 c 0,82,83
 1288 536 1288 536 1259.5 519.5 c 128,-1,84
 1231 503 1231 503 1208 477 c 128,-1,85
 1185 451 1185 451 1168.5 419.5 c 128,-1,86
 1152 388 1152 388 1145 357 c 256,64,65
356 1119 m 0,87,88
 372 1189 372 1189 409 1252.5 c 128,-1,89
 446 1316 446 1316 497 1365 c 128,-1,90
 548 1414 548 1414 610.5 1443 c 128,-1,91
 673 1472 673 1472 741 1472 c 0,92,93
 810 1472 810 1472 860.5 1444 c 128,-1,94
 911 1416 911 1416 941 1368 c 0,95,96
 971 1322 971 1322 979 1258 c 0,97,98
 982 1238 982 1238 982 1216 c 0,99,100
 982 1171 982 1171 970 1122 c 0,101,102
 954 1052 954 1052 917.5 988 c 128,-1,103
 881 924 881 924 830 874.5 c 128,-1,104
 779 825 779 825 717 795.5 c 128,-1,105
 655 766 655 766 587 766 c 256,106,107
 519 766 519 766 468.5 794.5 c 128,-1,108
 418 823 418 823 387 871.5 c 128,-1,109
 356 920 356 920 348 984 c 0,110,111
 345 1005 345 1005 345 1027 c 0,112,113
 345 1072 345 1072 356 1119 c 0,87,88
515 1122 m 0,114,115
 510 1100 510 1100 510 1077 c 0,116,117
 510 1067 510 1067 511 1057 c 0,118,119
 514 1024 514 1024 527.5 997 c 128,-1,120
 541 970 541 970 564.5 953 c 128,-1,121
 588 936 588 936 620 936 c 0,122,123
 654 936 654 936 686 952.5 c 128,-1,124
 718 969 718 969 742.5 995 c 128,-1,125
 767 1021 767 1021 785 1054.5 c 128,-1,126
 803 1088 803 1088 811 1122 c 0,127,128
 817 1147 817 1147 817 1172 c 0,129,130
 816 1180 816 1180 816 1187 c 0,131,132
 814 1219 814 1219 801 1244.5 c 128,-1,133
 788 1270 788 1270 764.5 1286 c 128,-1,134
 741 1302 741 1302 708 1302 c 128,-1,135
 675 1302 675 1302 643.5 1286.5 c 128,-1,136
 612 1271 612 1271 586.5 1246 c 128,-1,137
 561 1221 561 1221 542 1188.5 c 128,-1,138
 523 1156 523 1156 515 1122 c 0,114,115
EndSplineSet
EndChar

StartChar: ampersand
Encoding: 38 38 9
Width: 1158
GlyphClass: 2
Flags: W
LayerCount: 2
Fore
SplineSet
861 234 m 1,0,1
 815 197 815 197 766 157.5 c 128,-1,2
 717 118 717 118 664.5 85 c 128,-1,3
 612 52 612 52 558 31 c 128,-1,4
 504 10 504 10 450 10 c 0,5,6
 372 10 372 10 303.5 35.5 c 128,-1,7
 235 61 235 61 188.5 109.5 c 128,-1,8
 142 158 142 158 123 228 c 0,9,10
 114 262 114 262 114 302 c 0,11,12
 114 343 114 343 124 389 c 0,13,14
 142 466 142 466 183 522.5 c 128,-1,15
 224 579 224 579 276 626 c 128,-1,16
 328 673 328 673 385.5 716.5 c 128,-1,17
 443 760 443 760 495 812 c 1,18,19
 470 848 470 848 446 884 c 128,-1,20
 422 920 422 920 406 960 c 0,21,22
 390 998 390 998 386 1044 c 0,23,24
 385 1056 385 1056 384 1068 c 0,25,26
 384 1103 384 1103 394 1144 c 0,27,28
 412 1220 412 1220 459 1284 c 128,-1,29
 506 1348 506 1348 569.5 1394 c 128,-1,30
 633 1440 633 1440 706 1465.5 c 128,-1,31
 779 1491 779 1491 844 1491 c 0,32,33
 846 1491 846 1491 848 1491 c 0,34,35
 907 1491 907 1491 960 1464 c 0,36,37
 1014 1436 1014 1436 1052 1390 c 128,-1,38
 1090 1344 1090 1344 1106 1282 c 0,39,40
 1114 1251 1114 1251 1114 1218.5 c 128,-1,41
 1114 1186 1114 1186 1106 1152 c 0,42,43
 1093 1095 1093 1095 1063 1046 c 128,-1,44
 1033 997 1033 997 992.5 955 c 128,-1,45
 952 913 952 913 905.5 876.5 c 128,-1,46
 859 840 859 840 812 807 c 1,47,-1
 808 803 l 2,48,49
 808 802 808 802 807 801 c 2,50,-1
 937 502 l 1,51,-1
 1130 716 l 2,52,53
 1145 732 1145 732 1160 737.5 c 128,-1,54
 1175 743 1175 743 1192 743 c 0,55,56
 1224 743 1224 743 1241 724 c 128,-1,57
 1258 705 1258 705 1249 670 c 0,58,59
 1245 654 1245 654 1236 637.5 c 128,-1,60
 1227 621 1227 621 1215 609 c 1,61,-1
 1000 373 l 1,62,63
 1000 371 1000 371 997.5 368 c 128,-1,64
 995 365 995 365 994 363 c 2,65,-1
 994 360 l 1,66,-1
 993 357 l 2,67,68
 993 355 993 355 994 351 c 0,69,70
 994 349 994 349 994 347 c 2,71,-1
 1127 58 l 2,72,73
 1132 47 1132 47 1131 35.5 c 128,-1,74
 1130 24 1130 24 1127 12 c 0,75,76
 1120 -18 1120 -18 1096 -39 c 128,-1,77
 1072 -60 1072 -60 1044 -60 c 256,78,79
 1016 -60 1016 -60 1001 -45 c 128,-1,80
 986 -30 986 -30 972 -6 c 1,81,-1
 863 229 l 1,82,-1
 861 234 l 1,0,1
274 392 m 0,83,84
 268 364 268 364 268 340 c 0,85,86
 268 314 268 314 275 291 c 0,87,88
 289 248 289 248 320.5 220 c 128,-1,89
 352 192 352 192 397.5 178.5 c 128,-1,90
 443 165 443 165 491 165 c 0,91,92
 513 165 513 165 540 176 c 128,-1,93
 567 187 567 187 594 203.5 c 128,-1,94
 621 220 621 220 646 238.5 c 128,-1,95
 671 257 671 257 689 272 c 0,96,97
 703 283 703 283 722.5 299.5 c 128,-1,98
 742 316 742 316 762 333 c 1,99,100
 783 352 783 352 807 373 c 1,101,-1
 685 668 l 1,102,103
 684 673 684 673 680 682.5 c 128,-1,104
 676 692 676 692 670 702 c 128,-1,105
 664 712 664 712 656.5 719 c 128,-1,106
 649 726 649 726 639 726 c 0,107,108
 613 726 613 726 577.5 709.5 c 128,-1,109
 542 693 542 693 503.5 666 c 128,-1,110
 465 639 465 639 427 604 c 128,-1,111
 389 569 389 569 357.5 532 c 128,-1,112
 326 495 326 495 303.5 458.5 c 128,-1,113
 281 422 281 422 274 392 c 0,83,84
537 1144 m 0,114,115
 533 1129 533 1129 533 1113 c 0,116,117
 533 1092 533 1092 539 1069 c 0,118,119
 549 1027 549 1027 569 990 c 128,-1,120
 589 953 589 953 619 928 c 128,-1,121
 649 903 649 903 680 903 c 0,122,123
 702 903 702 903 730 915 c 128,-1,124
 758 927 758 927 787.5 946.5 c 128,-1,125
 817 966 817 966 845.5 992 c 128,-1,126
 874 1018 874 1018 898 1045.5 c 128,-1,127
 922 1073 922 1073 939.5 1100.5 c 128,-1,128
 957 1128 957 1128 963 1152 c 0,129,130
 966 1166 966 1166 966 1179 c 0,131,132
 966 1199 966 1199 959 1219 c 0,133,134
 947 1252 947 1252 924 1278 c 128,-1,135
 901 1304 901 1304 870.5 1320 c 128,-1,136
 840 1336 840 1336 810 1336 c 0,137,138
 775 1336 775 1336 731.5 1321.5 c 128,-1,139
 688 1307 688 1307 647.5 1281.5 c 128,-1,140
 607 1256 607 1256 577 1221 c 128,-1,141
 547 1186 547 1186 537 1144 c 0,114,115
EndSplineSet
EndChar

StartChar: quotesingle
Encoding: 39 39 10
Width: 662
GlyphClass: 2
Flags: W
LayerCount: 2
Fore
SplineSet
315 1066 m 0,0,1
 369 1118 369 1118 408.5 1168 c 128,-1,2
 448 1218 448 1218 477.5 1269 c 128,-1,3
 507 1320 507 1320 529.5 1374 c 128,-1,4
 552 1428 552 1428 573 1486 c 0,5,6
 585 1518 585 1518 613.5 1535.5 c 128,-1,7
 642 1553 642 1553 670 1553 c 0,8,9
 700 1553 700 1553 716.5 1540 c 128,-1,10
 733 1527 733 1527 738 1497 c 1,11,-1
 724 1438 l 2,12,13
 716 1405 716 1405 698.5 1358.5 c 128,-1,14
 681 1312 681 1312 655 1260.5 c 128,-1,15
 629 1209 629 1209 597 1158.5 c 128,-1,16
 565 1108 565 1108 529 1067.5 c 128,-1,17
 493 1027 493 1027 455 1002 c 128,-1,18
 417 977 417 977 379 977 c 0,19,20
 360 977 360 977 343.5 987 c 128,-1,21
 327 997 327 997 317 1011 c 128,-1,22
 307 1025 307 1025 305 1040 c 128,-1,23
 303 1055 303 1055 315 1066 c 0,0,1
EndSplineSet
EndChar

StartChar: parenleft
Encoding: 40 40 11
Width: 668
GlyphClass: 2
Flags: W
LayerCount: 2
Fore
SplineSet
482 -341 m 0,0,1
 412 -251 412 -251 360 -147.5 c 128,-1,2
 308 -44 308 -44 281 71 c 128,-1,3
 254 186 254 186 253 312 c 0,4,5
 253 316 253 316 253 320 c 0,6,7
 253 442 253 442 283 573 c 0,8,9
 294 622 294 622 322 691.5 c 128,-1,10
 350 761 350 761 389.5 842 c 128,-1,11
 429 923 429 923 478.5 1009.5 c 128,-1,12
 528 1096 528 1096 584 1179 c 128,-1,13
 640 1262 640 1262 699.5 1337 c 128,-1,14
 759 1412 759 1412 818.5 1468 c 128,-1,15
 878 1524 878 1524 935 1557 c 128,-1,16
 992 1590 992 1590 1044 1590 c 0,17,18
 1085 1590 1085 1590 1103 1566 c 0,19,20
 1114 1552 1114 1552 1114 1527 c 0,21,22
 1114 1514 1114 1514 1111 1497 c 0,23,24
 1109 1484 1109 1484 1106 1470 c 128,-1,25
 1103 1456 1103 1456 1093 1446 c 1,26,27
 990 1357 990 1357 891 1259.5 c 128,-1,28
 792 1162 792 1162 709 1055 c 128,-1,29
 626 948 626 948 563 829.5 c 128,-1,30
 500 711 500 711 470 580 c 0,31,32
 451 498 451 498 451 422 c 0,33,34
 450 404 450 404 452 385 c 0,35,36
 458 291 458 291 480 207 c 128,-1,37
 502 123 502 123 533.5 50 c 128,-1,38
 565 -23 565 -23 592.5 -83.5 c 128,-1,39
 620 -144 620 -144 637 -190 c 0,40,41
 649 -223 649 -223 649 -247 c 0,42,43
 649 -257 649 -257 647 -266 c 0,44,45
 637 -308 637 -308 606.5 -335 c 128,-1,46
 576 -362 576 -362 535 -362 c 0,47,48
 518 -362 518 -362 505.5 -358.5 c 128,-1,49
 493 -355 493 -355 482 -341 c 0,0,1
EndSplineSet
EndChar

StartChar: parenright
Encoding: 41 41 12
Width: 805
GlyphClass: 2
Flags: W
LayerCount: 2
Fore
SplineSet
197 -339 m 0,0,1
 180 -353 180 -353 166 -356.5 c 128,-1,2
 152 -360 152 -360 135 -360 c 0,3,4
 94 -360 94 -360 76 -333 c 0,5,6
 64 -316 64 -316 64 -292 c 0,7,8
 64 -279 64 -279 68 -264 c 0,9,10
 75 -234 75 -234 113 -188 c 128,-1,11
 151 -142 151 -142 206 -81.5 c 128,-1,12
 261 -21 261 -21 326.5 52 c 128,-1,13
 392 125 392 125 452.5 209 c 128,-1,14
 513 293 513 293 562.5 387 c 128,-1,15
 612 481 612 481 635 582 c 0,16,17
 659 685 659 685 659 781 c 0,18,19
 659 808 659 808 657 832 c 0,20,21
 649 950 649 950 615.5 1057 c 128,-1,22
 582 1164 582 1164 528 1261.5 c 128,-1,23
 474 1359 474 1359 412 1448 c 1,24,25
 408 1458 408 1458 411 1472 c 128,-1,26
 414 1486 414 1486 417 1499 c 0,27,28
 430 1546 430 1546 457 1568 c 0,29,30
 487 1592 487 1592 528 1592 c 0,31,32
 579 1592 579 1592 621 1559 c 128,-1,33
 663 1526 663 1526 696.5 1470 c 128,-1,34
 730 1414 730 1414 755 1339 c 128,-1,35
 780 1264 780 1264 798 1181 c 128,-1,36
 816 1098 816 1098 825 1011.5 c 128,-1,37
 834 925 834 925 836 844 c 0,38,39
 837 815 837 815 837 788 c 0,40,41
 836 740 836 740 834 694 c 0,42,43
 830 624 830 624 818 575 c 0,44,45
 787 440 787 440 728.5 314 c 128,-1,46
 670 188 670 188 589.5 73 c 128,-1,47
 509 -42 509 -42 409 -145.5 c 128,-1,48
 309 -249 309 -249 197 -339 c 0,0,1
EndSplineSet
EndChar

StartChar: asterisk
Encoding: 42 42 13
Width: 827
GlyphClass: 2
Flags: W
LayerCount: 2
Fore
SplineSet
434 910 m 2,0,1
 419 899 419 899 412.5 899 c 128,-1,2
 406 899 406 899 390 899 c 0,3,4
 360 899 360 899 344 917.5 c 128,-1,5
 328 936 328 936 336 969 c 0,6,7
 340 986 340 986 348.5 1002 c 128,-1,8
 357 1018 357 1018 375 1029 c 1,9,-1
 611 1148 l 2,10,11
 613 1150 613 1150 615 1152 c 128,-1,12
 617 1154 617 1154 618 1156 c 2,13,-1
 618 1158 l 1,14,-1
 441 1282 l 1,15,16
 421 1299 421 1299 421 1327 c 0,17,18
 421 1338 421 1338 424 1351 c 0,19,20
 431 1380 431 1380 454.5 1400.5 c 128,-1,21
 478 1421 478 1421 505 1421 c 0,22,23
 516 1421 516 1421 527 1419.5 c 128,-1,24
 538 1418 538 1418 543 1410 c 2,25,-1
 675 1233 l 1,26,-1
 702 1452 l 2,27,28
 703 1466 703 1466 712.5 1477.5 c 128,-1,29
 722 1489 722 1489 734.5 1497 c 128,-1,30
 747 1505 747 1505 761 1509.5 c 128,-1,31
 775 1514 775 1514 786 1514 c 0,32,33
 807 1514 807 1514 816 1494.5 c 128,-1,34
 825 1475 825 1475 827 1446 c 128,-1,35
 829 1417 829 1417 822 1382.5 c 128,-1,36
 815 1348 815 1348 808 1318 c 128,-1,37
 801 1288 801 1288 796 1267 c 128,-1,38
 791 1246 791 1246 791 1243 c 1,39,-1
 840 1300 l 1,40,41
 848 1306 848 1306 866.5 1321.5 c 128,-1,42
 885 1337 885 1337 905 1354 c 128,-1,43
 925 1371 925 1371 943.5 1386 c 128,-1,44
 962 1401 962 1401 970 1406 c 0,45,46
 980 1412 980 1412 985.5 1415 c 128,-1,47
 991 1418 991 1418 995 1419.5 c 128,-1,48
 999 1421 999 1421 1003 1421 c 128,-1,49
 1007 1421 1007 1421 1015 1421 c 0,50,51
 1048 1421 1048 1421 1061 1400 c 128,-1,52
 1074 1379 1074 1379 1066 1346 c 0,53,54
 1061 1326 1061 1326 1054 1312 c 128,-1,55
 1047 1298 1047 1298 1029 1286 c 1,56,-1
 796 1148 l 1,57,-1
 962 1038 l 2,58,59
 978 1027 978 1027 981.5 1010 c 128,-1,60
 985 993 985 993 980 972 c 0,61,62
 963 899 963 899 896 899 c 0,63,64
 882 899 882 899 866.5 911.5 c 128,-1,65
 851 924 851 924 836 942.5 c 128,-1,66
 821 961 821 961 806.5 983.5 c 128,-1,67
 792 1006 792 1006 780.5 1026 c 128,-1,68
 769 1046 769 1046 759.5 1061.5 c 128,-1,69
 750 1077 750 1077 746 1081 c 1,70,-1
 686 822 l 2,71,72
 683 810 683 810 685 801.5 c 128,-1,73
 687 793 687 793 675 787 c 128,-1,74
 663 781 663 781 650.5 778 c 128,-1,75
 638 775 638 775 629 775 c 0,76,77
 619 775 619 775 607.5 779 c 128,-1,78
 596 783 596 783 587 790 c 128,-1,79
 578 797 578 797 582.5 807.5 c 128,-1,80
 587 818 587 818 591 832 c 1,81,-1
 649 1081 l 1,82,-1
 434 910 l 2,0,1
EndSplineSet
EndChar

StartChar: plus
Encoding: 43 43 14
Width: 1531
GlyphClass: 2
Flags: W
LayerCount: 2
Fore
SplineSet
647 149 m 1,0,1
 653 164 653 164 667 200 c 128,-1,2
 681 236 681 236 698.5 282 c 128,-1,3
 716 328 716 328 735 379 c 128,-1,4
 754 430 754 430 771 476 c 0,5,6
 798 548 798 548 802 558 c 0,7,8
 820 600 820 600 823 609 c 0,9,10
 824 612 824 612 826.5 621.5 c 128,-1,11
 829 631 829 631 833 642 c 128,-1,12
 837 653 837 653 841 662.5 c 128,-1,13
 845 672 845 672 845 675 c 1,14,15
 829 680 829 680 793.5 680 c 128,-1,16
 758 680 758 680 712.5 680.5 c 128,-1,17
 667 681 667 681 616.5 681 c 128,-1,18
 566 681 566 681 520 681.5 c 128,-1,19
 474 682 474 682 438 682 c 128,-1,20
 402 682 402 682 386 686 c 0,21,22
 374 689 374 689 338 696 c 1,23,24
 311 700 311 700 290.5 710.5 c 128,-1,25
 270 721 270 721 259.5 740 c 128,-1,26
 249 759 249 759 257 793 c 0,27,28
 263 821 263 821 276 838 c 128,-1,29
 289 855 289 855 307 864.5 c 128,-1,30
 325 874 325 874 346 877 c 0,31,32
 386 883 386 883 393 880 c 2,33,-1
 428 867 l 1,34,-1
 936 867 l 1,35,-1
 1061 1410 l 2,36,37
 1071 1454 1071 1454 1093 1482 c 128,-1,38
 1115 1510 1115 1510 1151 1510 c 0,39,40
 1184 1510 1184 1510 1204 1499 c 128,-1,41
 1224 1488 1224 1488 1234 1468 c 128,-1,42
 1244 1448 1244 1448 1243 1420 c 1,43,44
 1243 1385 1243 1385 1236 1360 c 0,45,46
 1200 1239 1200 1239 1173 1141 c 128,-1,47
 1146 1043 1146 1043 1118 921 c 2,48,-1
 1100 845 l 1,49,-1
 1566 821 l 1,50,51
 1586 821 1586 821 1600 818 c 128,-1,52
 1614 815 1614 815 1622 809 c 128,-1,53
 1630 803 1630 803 1632 792 c 128,-1,54
 1634 781 1634 781 1630 762 c 0,55,56
 1618 712 1618 712 1594 686.5 c 128,-1,57
 1570 661 1570 661 1525 642 c 1,58,-1
 1390 642 l 1,59,60
 1306 646 1306 646 1223.5 648 c 128,-1,61
 1141 650 1141 650 1056 650 c 2,62,-1
 1033 650 l 1,63,-1
 1020 625 l 1,64,65
 1015 611 1015 611 1003.5 580 c 128,-1,66
 992 549 992 549 977 509 c 128,-1,67
 962 469 962 469 946.5 424.5 c 128,-1,68
 931 380 931 380 916 340 c 128,-1,69
 901 300 901 300 889.5 268.5 c 128,-1,70
 878 237 878 237 873 224 c 0,71,72
 860 193 860 193 850.5 154 c 128,-1,73
 841 115 841 115 826.5 81 c 128,-1,74
 812 47 812 47 788.5 23.5 c 128,-1,75
 765 0 765 0 725 0 c 0,76,77
 676 0 676 0 652 34 c 0,78,79
 636 56 636 56 636 86 c 0,80,81
 636 102 636 102 640 120 c 2,82,-1
 647 149 l 1,0,1
EndSplineSet
EndChar

StartChar: comma
Encoding: 44 44 15
Width: 662
GlyphClass: 2
Flags: W
LayerCount: 2
Fore
SplineSet
27 -185 m 0,0,1
 81 -133 81 -133 120 -83 c 128,-1,2
 159 -33 159 -33 188.5 18 c 128,-1,3
 218 69 218 69 240.5 122.5 c 128,-1,4
 263 176 263 176 284 234 c 0,5,6
 296 266 296 266 324.5 284 c 128,-1,7
 353 302 353 302 381 302 c 0,8,9
 411 302 411 302 428 289 c 128,-1,10
 445 276 445 276 449 246 c 1,11,-1
 435 187 l 2,12,13
 428 155 428 155 410 108 c 128,-1,14
 392 61 392 61 366 9.5 c 128,-1,15
 340 -42 340 -42 308 -92.5 c 128,-1,16
 276 -143 276 -143 240.5 -183.5 c 128,-1,17
 205 -224 205 -224 166.5 -249 c 128,-1,18
 128 -274 128 -274 90 -274 c 0,19,20
 71 -274 71 -274 55 -264 c 128,-1,21
 39 -254 39 -254 28.5 -240 c 128,-1,22
 18 -226 18 -226 16.5 -211 c 128,-1,23
 15 -196 15 -196 27 -185 c 0,0,1
EndSplineSet
EndChar

StartChar: hyphen
Encoding: 45 45 16
AltUni2: 0000ad.ffffffff.0
Width: 669
GlyphClass: 2
Flags: W
LayerCount: 2
Fore
SplineSet
863 561 m 1,0,-1
 253 561 l 1,1,-1
 329 742 l 1,2,-1
 939 742 l 1,3,-1
 863 561 l 1,0,-1
EndSplineSet
EndChar

StartChar: period
Encoding: 46 46 17
Width: 661
GlyphClass: 2
Flags: W
LayerCount: 2
Fore
SplineSet
131 151 m 256,0,1
 138 181 138 181 155 208 c 128,-1,2
 172 235 172 235 195 255 c 128,-1,3
 218 275 218 275 245.5 286.5 c 128,-1,4
 273 298 273 298 301 298 c 256,5,6
 329 298 329 298 351.5 286.5 c 128,-1,7
 374 275 374 275 388 255 c 128,-1,8
 402 235 402 235 406.5 208 c 128,-1,9
 411 181 411 181 404 151 c 256,10,11
 397 121 397 121 380 94 c 128,-1,12
 363 67 363 67 340 47.5 c 128,-1,13
 317 28 317 28 289 16.5 c 128,-1,14
 261 5 261 5 233 5 c 256,15,16
 205 5 205 5 183 16.5 c 128,-1,17
 161 28 161 28 147 47.5 c 128,-1,18
 133 67 133 67 128.5 94 c 128,-1,19
 124 121 124 121 131 151 c 256,0,1
EndSplineSet
EndChar

StartChar: slash
Encoding: 47 47 18
Width: 874
GlyphClass: 2
Flags: W
LayerCount: 2
Fore
SplineSet
108 0 m 0,0,1
 113 22 113 22 124 47 c 128,-1,2
 135 72 135 72 149 96 c 128,-1,3
 163 120 163 120 178 143 c 128,-1,4
 193 166 193 166 207 186 c 1,5,-1
 660 895 l 1,6,7
 698 950 698 950 741.5 1024.5 c 128,-1,8
 785 1099 785 1099 827.5 1177 c 128,-1,9
 870 1255 870 1255 906 1327.5 c 128,-1,10
 942 1400 942 1400 967 1451 c 1,11,12
 1000 1511 1000 1511 1058 1511 c 0,13,14
 1077 1511 1077 1511 1092.5 1504.5 c 128,-1,15
 1108 1498 1108 1498 1118.5 1486 c 128,-1,16
 1129 1474 1129 1474 1133.5 1459 c 128,-1,17
 1138 1444 1138 1444 1133 1422 c 0,18,19
 1121 1372 1121 1372 1097 1312.5 c 128,-1,20
 1073 1253 1073 1253 1040 1189.5 c 128,-1,21
 1007 1126 1007 1126 969 1062 c 128,-1,22
 931 998 931 998 892.5 937.5 c 128,-1,23
 854 877 854 877 817.5 823.5 c 128,-1,24
 781 770 781 770 751 729 c 1,25,-1
 346 94 l 1,26,27
 327 68 327 68 311 35.5 c 128,-1,28
 295 3 295 3 276 -25.5 c 128,-1,29
 257 -54 257 -54 232.5 -73 c 128,-1,30
 208 -92 208 -92 174 -92 c 0,31,32
 137 -92 137 -92 118 -66 c 0,33,34
 105 -48 105 -48 105 -24 c 0,35,36
 105 -13 105 -13 108 0 c 0,0,1
EndSplineSet
EndChar

StartChar: zero
Encoding: 48 48 19
Width: 1265
GlyphClass: 2
Flags: W
LayerCount: 2
Fore
SplineSet
282 767 m 0,0,1
 297 833 297 833 339 952 c 0,2,3
 367 1030 367 1030 426 1128 c 0,4,5
 475 1213 475 1213 537 1286.5 c 128,-1,6
 599 1360 599 1360 672 1413.5 c 128,-1,7
 745 1467 745 1467 828 1498 c 128,-1,8
 911 1529 911 1529 1002 1529 c 0,9,10
 1092 1529 1092 1529 1153.5 1491.5 c 128,-1,11
 1215 1454 1215 1454 1253.5 1391 c 128,-1,12
 1292 1328 1292 1328 1310 1245 c 128,-1,13
 1328 1162 1328 1162 1330 1072 c 0,14,15
 1330 1056 1330 1056 1331 1039 c 0,16,17
 1331 1032 1331 1032 1331 1025 c 0,18,19
 1331 957 1331 957 1322 888 c 0,20,21
 1310 796 1310 796 1291 713 c 0,22,23
 1273 637 1273 637 1243.5 557 c 128,-1,24
 1214 477 1214 477 1172 400.5 c 128,-1,25
 1130 324 1130 324 1076.5 254 c 128,-1,26
 1023 184 1023 184 960 128 c 128,-1,27
 897 72 897 72 824 33.5 c 128,-1,28
 751 -5 751 -5 669 -19 c 1,29,-1
 588 -19 l 2,30,31
 483 -19 483 -19 412 9 c 128,-1,32
 341 37 341 37 299 88 c 128,-1,33
 257 139 257 139 239.5 211 c 128,-1,34
 222 283 222 283 220 370 c 0,35,36
 220 380 220 380 219 390 c 0,37,38
 219 470 219 470 237 558 c 0,39,40
 257 658 257 658 282 767 c 0,0,1
439 761 m 0,41,42
 420 677 420 677 403 599.5 c 128,-1,43
 386 522 386 522 381 454 c 0,44,45
 379 427 379 427 379 402 c 0,46,47
 380 364 380 364 384 332 c 0,48,49
 392 276 392 276 419 236 c 128,-1,50
 446 196 446 196 496 174 c 128,-1,51
 546 152 546 152 627 152 c 0,52,53
 692 152 692 152 750.5 176.5 c 128,-1,54
 809 201 809 201 861 243 c 128,-1,55
 913 285 913 285 956.5 340.5 c 128,-1,56
 1000 396 1000 396 1034 458 c 128,-1,57
 1068 520 1068 520 1092 584 c 1,58,59
 1119 653 1119 653 1128 691 c 0,60,61
 1131 702 1131 702 1132 710 c 0,62,63
 1137 750 1137 750 1157 838 c 0,64,65
 1173 908 1173 908 1173 979 c 128,-1,66
 1173 1050 1173 1050 1165.5 1117.5 c 128,-1,67
 1158 1185 1158 1185 1134 1237 c 128,-1,68
 1110 1289 1110 1289 1067.5 1320.5 c 128,-1,69
 1025 1352 1025 1352 958 1352 c 0,70,71
 889 1352 889 1352 828 1327.5 c 128,-1,72
 767 1303 767 1303 714.5 1260 c 128,-1,73
 662 1217 662 1217 618.5 1159.5 c 128,-1,74
 575 1102 575 1102 540 1036 c 1,75,76
 503 963 503 963 481 900 c 0,77,78
 452 819 452 819 439 761 c 0,41,42
EndSplineSet
EndChar

StartChar: one
Encoding: 49 49 20
Width: 938
GlyphClass: 2
Flags: W
LayerCount: 2
Fore
SplineSet
726 204 m 1,0,-1
 832 181 l 2,1,2
 852 177 852 177 858 172 c 0,3,4
 869 162 869 162 875 148 c 128,-1,5
 881 134 881 134 882.5 117.5 c 128,-1,6
 884 101 884 101 880 87 c 0,7,8
 877 75 877 75 870 60.5 c 128,-1,9
 863 46 863 46 852.5 33.5 c 128,-1,10
 842 21 842 21 829 12 c 128,-1,11
 816 3 816 3 803 3 c 2,12,-1
 204 3 l 2,13,14
 182 3 182 3 161 6 c 128,-1,15
 140 9 140 9 125 18.5 c 128,-1,16
 110 28 110 28 103 45.5 c 128,-1,17
 96 63 96 63 103 91 c 0,18,19
 106 106 106 106 113.5 123 c 128,-1,20
 121 140 121 140 132 154 c 128,-1,21
 143 168 143 168 157.5 177.5 c 128,-1,22
 172 187 172 187 189 187 c 2,23,-1
 538 187 l 1,24,-1
 764 1164 l 1,25,-1
 768 1183 l 1,26,27
 730 1157 730 1157 689 1132.5 c 128,-1,28
 648 1108 648 1108 606 1088.5 c 128,-1,29
 564 1069 564 1069 521.5 1057.5 c 128,-1,30
 479 1046 479 1046 437 1046 c 2,31,-1
 405 1046 l 1,32,33
 379 1057 379 1057 372 1078.5 c 128,-1,34
 365 1100 365 1100 372 1133 c 0,35,36
 378 1160 378 1160 397 1180 c 128,-1,37
 416 1200 416 1200 441.5 1215 c 128,-1,38
 467 1230 467 1230 497 1241.5 c 128,-1,39
 527 1253 527 1253 557.5 1263.5 c 128,-1,40
 588 1274 588 1274 615.5 1284.5 c 128,-1,41
 643 1295 643 1295 663 1308 c 0,42,43
 726 1350 726 1350 785 1401 c 128,-1,44
 844 1452 844 1452 899 1501 c 1,45,46
 910 1509 910 1509 922 1512 c 0,47,48
 934 1514 934 1514 946 1514 c 0,49,50
 984 1514 984 1514 1000 1486 c 0,51,52
 1011 1468 1011 1468 1010 1444 c 0,53,54
 1010 1431 1010 1431 1007 1417 c 2,55,-1
 1005 1408 l 1,56,-1
 726 204 l 1,0,-1
EndSplineSet
EndChar

StartChar: two
Encoding: 50 50 21
Width: 1218
GlyphClass: 2
Flags: W
LayerCount: 2
Fore
SplineSet
125 88 m 0,0,1
 132 117 132 117 174.5 161 c 128,-1,2
 217 205 217 205 283.5 260.5 c 128,-1,3
 350 316 350 316 433 381.5 c 128,-1,4
 516 447 516 447 604 520 c 128,-1,5
 692 593 692 593 778.5 672 c 128,-1,6
 865 751 865 751 937.5 833 c 128,-1,7
 1010 915 1010 915 1061.5 998.5 c 128,-1,8
 1113 1082 1113 1082 1132 1164 c 0,9,10
 1136 1183 1136 1183 1136 1200 c 0,11,12
 1136 1226 1136 1226 1126 1246 c 0,13,14
 1110 1280 1110 1280 1077 1300.5 c 128,-1,15
 1044 1321 1044 1321 1002.5 1330 c 128,-1,16
 961 1339 961 1339 922 1339 c 0,17,18
 863 1339 863 1339 807 1308.5 c 128,-1,19
 751 1278 751 1278 699.5 1232 c 128,-1,20
 648 1186 648 1186 602.5 1133.5 c 128,-1,21
 557 1081 557 1081 518 1037 c 0,22,23
 501 1018 501 1018 483 1012 c 128,-1,24
 465 1006 465 1006 444 1006 c 0,25,26
 412 1006 412 1006 393 1029 c 0,27,28
 375 1051 375 1051 383 1083 c 0,29,30
 384 1086 384 1086 384 1088 c 0,31,32
 387 1099 387 1099 389 1107.5 c 128,-1,33
 391 1116 391 1116 398 1127 c 1,34,35
 460 1196 460 1196 524 1265.5 c 128,-1,36
 588 1335 588 1335 656.5 1390 c 128,-1,37
 725 1445 725 1445 800.5 1479.5 c 128,-1,38
 876 1514 876 1514 963 1514 c 0,39,40
 1037 1514 1037 1514 1107 1492.5 c 128,-1,41
 1177 1471 1177 1471 1227 1427.5 c 128,-1,42
 1277 1384 1277 1384 1299 1318 c 0,43,44
 1310 1284 1310 1284 1310 1243 c 0,45,46
 1310 1204 1310 1204 1300 1160 c 0,47,48
 1279 1070 1279 1070 1231.5 980.5 c 128,-1,49
 1184 891 1184 891 1119 805 c 128,-1,50
 1054 719 1054 719 976.5 638 c 128,-1,51
 899 557 899 557 819 483.5 c 128,-1,52
 739 410 739 410 661 345 c 128,-1,53
 583 280 583 280 517 227 c 1,54,-1
 525 227 l 1,55,56
 588 233 588 233 648.5 236 c 128,-1,57
 709 239 709 239 770 239 c 1,58,59
 771 242 771 242 786.5 242 c 128,-1,60
 802 242 802 242 834 239 c 0,61,62
 873 236 873 236 919.5 236 c 128,-1,63
 966 236 966 236 1012 226 c 128,-1,64
 1058 216 1058 216 1092 199.5 c 128,-1,65
 1126 183 1126 183 1144 156 c 0,66,67
 1156 138 1156 138 1157 113 c 0,68,69
 1157 101 1157 101 1154 88 c 0,70,71
 1145 50 1145 50 1119 30 c 1,72,73
 1093 8 1093 8 1065 8 c 0,74,75
 1060 8 1060 8 1056 9 c 0,76,77
 1017 14 1017 14 975 14 c 128,-1,78
 933 14 933 14 891.5 23 c 128,-1,79
 850 32 850 32 807 35 c 1,80,81
 754 37 754 37 734 37 c 0,82,83
 728 37 728 37 723 37 c 0,84,85
 718 36 718 36 596 36 c 1,86,87
 539 33 539 33 471 33 c 0,88,89
 406 33 406 33 346 23 c 1,90,91
 283 16 283 16 218 3 c 1,92,-1
 190 3 l 2,93,94
 154 2 154 2 135 26 c 0,95,96
 122 42 122 42 122 65 c 0,97,98
 122 76 122 76 125 88 c 0,0,1
EndSplineSet
EndChar

StartChar: three
Encoding: 51 51 22
Width: 1211
GlyphClass: 2
Flags: W
LayerCount: 2
Fore
SplineSet
138 290 m 0,0,1
 142 308 142 308 152.5 324.5 c 128,-1,2
 163 341 163 341 176.5 353.5 c 128,-1,3
 190 366 190 366 206.5 373 c 128,-1,4
 223 380 223 380 240 380 c 0,5,6
 279 380 279 380 316 365.5 c 128,-1,7
 353 351 353 351 391 330 c 128,-1,8
 429 309 429 309 467.5 283.5 c 128,-1,9
 506 258 506 258 548 237 c 128,-1,10
 590 216 590 216 636 201.5 c 128,-1,11
 682 187 682 187 734 187 c 0,12,13
 759 187 759 187 791.5 190.5 c 128,-1,14
 824 194 824 194 858 202 c 128,-1,15
 892 210 892 210 926 223.5 c 128,-1,16
 960 237 960 237 988.5 257.5 c 128,-1,17
 1017 278 1017 278 1038 306 c 128,-1,18
 1059 334 1059 334 1067 371 c 0,19,20
 1073 396 1073 396 1073 419 c 0,21,22
 1073 436 1073 436 1069 454 c 0,23,24
 1061 492 1061 492 1040.5 526 c 128,-1,25
 1020 560 1020 560 990 587.5 c 128,-1,26
 960 615 960 615 926.5 638.5 c 128,-1,27
 893 662 893 662 859.5 681 c 128,-1,28
 826 700 826 700 799 715 c 1,29,30
 789 725 789 725 784 733.5 c 128,-1,31
 779 742 779 742 777 751 c 128,-1,32
 775 760 775 760 777 771.5 c 128,-1,33
 779 783 779 783 783 799 c 2,34,-1
 786 814 l 0,35,36
 787 820 787 820 789 825 c 128,-1,37
 791 830 791 830 795 835.5 c 128,-1,38
 799 841 799 841 807 851 c 2,39,-1
 1186 1302 l 1,40,-1
 1188 1308 l 1,41,42
 1098 1308 1098 1308 1006.5 1301.5 c 128,-1,43
 915 1295 915 1295 822 1295 c 0,44,45
 802 1295 802 1295 764 1293 c 128,-1,46
 726 1291 726 1291 682 1291 c 128,-1,47
 638 1291 638 1291 593 1296.5 c 128,-1,48
 548 1302 548 1302 514 1316 c 0,49,50
 480 1330 480 1330 462 1356 c 0,51,52
 451 1373 451 1373 450 1396 c 0,53,54
 450 1409 450 1409 454 1424 c 0,55,56
 462 1460 462 1460 490 1486 c 0,57,58
 521 1514 521 1514 558 1514 c 0,59,60
 563 1514 563 1514 567 1514 c 128,-1,61
 571 1514 571 1514 575 1514 c 0,62,63
 596 1514 596 1514 637 1510 c 0,64,65
 674 1506 674 1506 717 1501 c 0,66,67
 756 1496 756 1496 795 1491 c 128,-1,68
 834 1486 834 1486 875 1486 c 0,69,70
 1000 1486 1000 1486 1125 1497 c 128,-1,71
 1250 1508 1250 1508 1374 1508 c 0,72,73
 1397 1508 1397 1508 1419.5 1504.5 c 128,-1,74
 1442 1501 1442 1501 1458.5 1491 c 128,-1,75
 1475 1481 1475 1481 1481.5 1461.5 c 128,-1,76
 1488 1442 1488 1442 1481 1411 c 0,77,78
 1479 1403 1479 1403 1475 1393.5 c 128,-1,79
 1471 1384 1471 1384 1467 1379 c 2,80,-1
 1008 838 l 1,81,-1
 1011 831 l 1,82,83
 1062 793 1062 793 1112.5 748 c 128,-1,84
 1163 703 1163 703 1199 647 c 0,85,86
 1234 592 1234 592 1250 524 c 0,87,88
 1257 494 1257 494 1257 460 c 0,89,90
 1257 419 1257 419 1247 374 c 0,91,92
 1232 308 1232 308 1199.5 254.5 c 128,-1,93
 1167 201 1167 201 1123 159.5 c 128,-1,94
 1079 118 1079 118 1026 88 c 128,-1,95
 973 58 973 58 916.5 38.5 c 128,-1,96
 860 19 860 19 803 9.5 c 128,-1,97
 746 0 746 0 694 0 c 0,98,99
 669 0 669 0 630.5 5 c 128,-1,100
 592 10 592 10 545.5 20 c 128,-1,101
 499 30 499 30 449 45 c 128,-1,102
 399 60 399 60 351.5 79 c 128,-1,103
 304 98 304 98 261.5 120.5 c 128,-1,104
 219 143 219 143 189 170 c 0,105,106
 158 197 158 197 144 227 c 0,107,108
 135 246 135 246 135 267 c 0,109,110
 135 278 135 278 138 290 c 0,0,1
EndSplineSet
EndChar

StartChar: four
Encoding: 52 52 23
Width: 969
GlyphClass: 2
Flags: W
LayerCount: 2
Fore
SplineSet
647 79 m 0,0,1
 660 136 660 136 691.5 202 c 128,-1,2
 723 268 723 268 759.5 339 c 128,-1,3
 796 410 796 410 829 484 c 128,-1,4
 862 558 862 558 880 632 c 2,5,-1
 886 660 l 1,6,7
 863 678 863 678 821.5 689.5 c 128,-1,8
 780 701 780 701 729 710 c 128,-1,9
 678 719 678 719 620.5 726 c 128,-1,10
 563 733 563 733 507.5 741 c 128,-1,11
 452 749 452 749 402 759.5 c 128,-1,12
 352 770 352 770 316.5 786 c 128,-1,13
 281 802 281 802 262.5 824.5 c 128,-1,14
 244 847 244 847 251 879 c 2,15,-1
 257 904 l 1,16,-1
 385 1142 l 2,17,18
 399 1167 399 1167 414.5 1209 c 128,-1,19
 430 1251 430 1251 444.5 1295.5 c 128,-1,20
 459 1340 459 1340 470 1380 c 128,-1,21
 481 1420 481 1420 486 1443 c 1,22,23
 490 1458 490 1458 500 1470.5 c 128,-1,24
 510 1483 510 1483 521.5 1492 c 128,-1,25
 533 1501 533 1501 547 1506 c 128,-1,26
 561 1511 561 1511 574 1511 c 0,27,28
 612 1512 612 1512 628 1488 c 0,29,30
 638 1473 638 1473 638 1451 c 0,31,32
 638 1438 638 1438 634 1423 c 0,33,34
 606 1303 606 1303 562 1188.5 c 128,-1,35
 518 1074 518 1074 454 961 c 1,36,-1
 453 955 l 2,37,38
 452 949 452 949 455 945.5 c 128,-1,39
 458 942 458 942 466 944 c 1,40,41
 517 935 517 935 581 925 c 128,-1,42
 645 915 645 915 710 902.5 c 128,-1,43
 775 890 775 890 836 873.5 c 128,-1,44
 897 857 897 857 942 836 c 1,45,-1
 1101 1454 l 2,46,47
 1104 1466 1104 1466 1114.5 1475 c 128,-1,48
 1125 1484 1125 1484 1138 1491 c 128,-1,49
 1151 1498 1151 1498 1164.5 1501.5 c 128,-1,50
 1178 1505 1178 1505 1187 1505 c 0,51,52
 1217 1505 1217 1505 1231 1486 c 128,-1,53
 1245 1467 1245 1467 1245 1437 c 1,54,55
 1242 1426 1242 1426 1236.5 1400 c 128,-1,56
 1231 1374 1231 1374 1225 1345 c 128,-1,57
 1219 1316 1219 1316 1213.5 1289.5 c 128,-1,58
 1208 1263 1208 1263 1205 1253 c 0,59,60
 1201 1236 1201 1236 1193.5 1206 c 128,-1,61
 1186 1176 1186 1176 1179 1146.5 c 128,-1,62
 1172 1117 1172 1117 1166 1094 c 128,-1,63
 1160 1071 1160 1071 1160 1068 c 0,64,65
 1154 1048 1154 1048 1142.5 1005 c 128,-1,66
 1131 962 1131 962 1115.5 907.5 c 128,-1,67
 1100 853 1100 853 1082.5 793.5 c 128,-1,68
 1065 734 1065 734 1049 679.5 c 128,-1,69
 1033 625 1033 625 1020.5 582 c 128,-1,70
 1008 539 1008 539 1001 519 c 0,71,72
 996 504 996 504 982 467.5 c 128,-1,73
 968 431 968 431 953 390 c 128,-1,74
 938 349 938 349 924 313 c 128,-1,75
 910 277 910 277 905 263 c 0,76,77
 894 234 894 234 874.5 190 c 128,-1,78
 855 146 855 146 829 104.5 c 128,-1,79
 803 63 803 63 771 33 c 128,-1,80
 739 3 739 3 703 3 c 0,81,82
 670 3 670 3 654.5 23 c 128,-1,83
 639 43 639 43 647 79 c 0,0,1
EndSplineSet
EndChar

StartChar: five
Encoding: 53 53 24
Width: 1280
GlyphClass: 2
Flags: W
LayerCount: 2
Fore
SplineSet
154 255 m 0,0,1
 164 300 164 300 196 324.5 c 128,-1,2
 228 349 228 349 270 349 c 0,3,4
 320 349 320 349 369 326 c 128,-1,5
 418 303 418 303 470 275 c 128,-1,6
 522 247 522 247 580.5 224 c 128,-1,7
 639 201 639 201 707 201 c 0,8,9
 738 201 738 201 779.5 205.5 c 128,-1,10
 821 210 821 210 867 220 c 128,-1,11
 913 230 913 230 959 247.5 c 128,-1,12
 1005 265 1005 265 1044.5 290.5 c 128,-1,13
 1084 316 1084 316 1112.5 351.5 c 128,-1,14
 1141 387 1141 387 1152 433 c 0,15,16
 1159 461 1159 461 1159 485 c 0,17,18
 1159 523 1159 523 1142 553 c 0,19,20
 1115 601 1115 601 1061 632.5 c 128,-1,21
 1007 664 1007 664 932.5 682.5 c 128,-1,22
 858 701 858 701 779.5 714.5 c 128,-1,23
 701 728 701 728 625 740 c 128,-1,24
 549 752 549 752 492 770 c 0,25,26
 435 790 435 790 404 818 c 0,27,28
 381 839 381 839 381 870 c 0,29,30
 381 881 381 881 384 893 c 2,31,-1
 391 926 l 1,32,33
 401 944 401 944 417 970.5 c 128,-1,34
 433 997 433 997 450 1027 c 128,-1,35
 467 1057 467 1057 481.5 1087 c 128,-1,36
 496 1117 496 1117 503 1141 c 2,37,-1
 582 1430 l 1,38,39
 588 1458 588 1458 613 1480 c 128,-1,40
 638 1502 638 1502 663 1510 c 1,41,-1
 734 1510 l 1,42,-1
 807 1510 l 1,43,44
 832 1509 832 1509 884 1507 c 128,-1,45
 936 1505 936 1505 1002 1502.5 c 128,-1,46
 1068 1500 1068 1500 1140.5 1497 c 128,-1,47
 1213 1494 1213 1494 1279 1491 c 128,-1,48
 1345 1488 1345 1488 1397.5 1486 c 128,-1,49
 1450 1484 1450 1484 1475 1483 c 1,50,51
 1502 1473 1502 1473 1512.5 1447.5 c 128,-1,52
 1523 1422 1523 1422 1515 1389 c 0,53,54
 1506 1351 1506 1351 1479.5 1327 c 128,-1,55
 1453 1303 1453 1303 1418 1295 c 1,56,-1
 1259 1295 l 2,57,58
 1141 1295 1141 1295 1025 1302 c 128,-1,59
 909 1309 909 1309 791 1309 c 2,60,-1
 735 1309 l 1,61,62
 724 1271 724 1271 709 1229.5 c 128,-1,63
 694 1188 694 1188 677.5 1146.5 c 128,-1,64
 661 1105 661 1105 646.5 1064 c 128,-1,65
 632 1023 632 1023 624 987 c 2,66,-1
 622 980 l 1,67,68
 667 963 667 963 726 948.5 c 128,-1,69
 785 934 785 934 849.5 917.5 c 128,-1,70
 914 901 914 901 979.5 881.5 c 128,-1,71
 1045 862 1045 862 1105 835.5 c 128,-1,72
 1165 809 1165 809 1215 773.5 c 128,-1,73
 1265 738 1265 738 1297.5 689.5 c 128,-1,74
 1330 641 1330 641 1340 578 c 0,75,76
 1344 556 1344 556 1344 531 c 0,77,78
 1344 486 1344 486 1332 433 c 0,79,80
 1314 357 1314 357 1274 295 c 128,-1,81
 1234 233 1234 233 1179.5 185 c 128,-1,82
 1125 137 1125 137 1059.5 102 c 128,-1,83
 994 67 994 67 925 44.5 c 128,-1,84
 856 22 856 22 788.5 11 c 128,-1,85
 721 0 721 0 661 0 c 0,86,87
 632 0 632 0 580.5 7 c 128,-1,88
 529 14 529 14 469.5 28 c 128,-1,89
 410 42 410 42 350 64 c 0,90,91
 288 86 288 86 242 113 c 0,92,93
 196 140 196 140 170 176 c 0,94,95
 151 202 151 202 151 232 c 0,96,97
 151 243 151 243 154 255 c 0,0,1
EndSplineSet
EndChar

StartChar: six
Encoding: 54 54 25
Width: 1117
GlyphClass: 2
Flags: W
LayerCount: 2
Fore
SplineSet
293 880 m 1,0,1
 340 1010 340 1010 417.5 1126.5 c 128,-1,2
 495 1243 495 1243 595.5 1331.5 c 128,-1,3
 696 1420 696 1420 815 1472 c 128,-1,4
 934 1524 934 1524 1063 1524 c 0,5,6
 1082 1524 1082 1524 1109.5 1526.5 c 128,-1,7
 1137 1529 1137 1529 1166.5 1530 c 128,-1,8
 1196 1531 1196 1531 1225 1528.5 c 128,-1,9
 1254 1526 1254 1526 1275.5 1517 c 128,-1,10
 1297 1508 1297 1508 1307 1489.5 c 128,-1,11
 1317 1471 1317 1471 1310 1441 c 0,12,13
 1301 1403 1301 1403 1270.5 1380 c 128,-1,14
 1240 1357 1240 1357 1207 1357 c 0,15,16
 1161 1357 1161 1357 1115 1351 c 128,-1,17
 1069 1345 1069 1345 1022 1345 c 0,18,19
 936 1345 936 1345 846 1308.5 c 128,-1,20
 756 1272 756 1272 677.5 1208.5 c 128,-1,21
 599 1145 599 1145 540 1059.5 c 128,-1,22
 481 974 481 974 459 877 c 2,23,-1
 456 862 l 1,24,25
 500 892 500 892 547 919.5 c 128,-1,26
 594 947 594 947 642.5 967 c 128,-1,27
 691 987 691 987 740 999 c 128,-1,28
 789 1011 789 1011 839 1011 c 0,29,30
 942 1011 942 1011 1014 968 c 128,-1,31
 1086 925 1086 925 1127 853 c 128,-1,32
 1168 781 1168 781 1176 686 c 0,33,34
 1178 661 1178 661 1179 636 c 0,35,36
 1179 564 1179 564 1161 487 c 0,37,38
 1146 424 1146 424 1110.5 362 c 128,-1,39
 1075 300 1075 300 1025 244.5 c 128,-1,40
 975 189 975 189 914.5 141.5 c 128,-1,41
 854 94 854 94 789 59.5 c 128,-1,42
 724 25 724 25 657.5 5.5 c 128,-1,43
 591 -14 591 -14 530 -14 c 0,44,45
 430 -14 430 -14 366 18 c 0,46,47
 302 50 302 50 266 104 c 0,48,49
 228 158 228 158 216 232 c 0,50,51
 206 292 206 292 206 359 c 0,52,53
 206 376 206 376 207 392 c 0,54,55
 210 478 210 478 226.5 570 c 128,-1,56
 243 662 243 662 264 755 c 2,57,-1
 293 880 l 1,0,1
396 603 m 0,58,59
 378 519 378 519 370 440 c 0,60,61
 368 415 368 415 367 392 c 0,62,63
 367 388 367 388 367 384 c 0,64,65
 367 338 367 338 378 300 c 0,66,67
 394 239 394 239 438 202 c 128,-1,68
 482 165 482 165 563 165 c 2,69,-1
 616 165 l 1,70,71
 649 173 649 173 688.5 190 c 128,-1,72
 728 207 728 207 768 230 c 128,-1,73
 808 253 808 253 846 282 c 128,-1,74
 884 311 884 311 915.5 343.5 c 128,-1,75
 947 376 947 376 969 411.5 c 128,-1,76
 991 447 991 447 1000 484 c 0,77,78
 1013 541 1013 541 1013 594 c 0,79,80
 1012 606 1012 606 1012 618 c 0,81,82
 1008 682 1008 682 984 729 c 128,-1,83
 960 776 960 776 913.5 804 c 128,-1,84
 867 832 867 832 797 832 c 0,85,86
 773 832 773 832 736 823.5 c 128,-1,87
 699 815 699 815 656.5 799.5 c 128,-1,88
 614 784 614 784 570.5 762.5 c 128,-1,89
 527 741 527 741 490.5 715.5 c 128,-1,90
 454 690 454 690 428.5 661.5 c 128,-1,91
 403 633 403 633 396 603 c 0,58,59
EndSplineSet
EndChar

StartChar: seven
Encoding: 55 55 26
Width: 1208
GlyphClass: 2
Flags: W
LayerCount: 2
Fore
SplineSet
448 134 m 2,0,1
 472 238 472 238 516.5 342 c 128,-1,2
 561 446 561 446 619.5 548.5 c 128,-1,3
 678 651 678 651 747 750.5 c 128,-1,4
 816 850 816 850 890.5 945 c 128,-1,5
 965 1040 965 1040 1040 1129 c 128,-1,6
 1115 1218 1115 1218 1185 1299 c 1,7,-1
 1187 1305 l 1,8,9
 1111 1305 1111 1305 1033 1302 c 128,-1,10
 955 1299 955 1299 878 1299 c 0,11,12
 853 1299 853 1299 803 1296 c 128,-1,13
 753 1293 753 1293 693 1292 c 0,14,15
 677 1291 677 1291 661 1291 c 0,16,17
 611 1291 611 1291 572 1294 c 0,18,19
 508 1299 508 1299 464 1312 c 0,20,21
 416 1326 416 1326 390 1353 c 0,22,23
 371 1372 371 1372 371 1401 c 0,24,25
 371 1413 371 1413 374 1426 c 0,26,27
 376 1436 376 1436 382 1449.5 c 128,-1,28
 388 1463 388 1463 397 1475.5 c 128,-1,29
 406 1488 406 1488 417.5 1496.5 c 128,-1,30
 429 1505 429 1505 443 1505 c 2,31,-1
 511 1505 l 1,32,33
 584 1495 584 1495 636.5 1489 c 128,-1,34
 689 1483 689 1483 736 1479.5 c 128,-1,35
 783 1476 783 1476 831 1475 c 128,-1,36
 879 1474 879 1474 941 1474 c 0,37,38
 1001 1474 1001 1474 1060.5 1480 c 128,-1,39
 1120 1486 1120 1486 1181 1492.5 c 128,-1,40
 1242 1499 1242 1499 1302 1505 c 128,-1,41
 1362 1511 1362 1511 1421 1511 c 0,42,43
 1454 1511 1454 1511 1475 1491 c 0,44,45
 1490 1477 1490 1477 1490 1452 c 0,46,47
 1490 1441 1490 1441 1487 1429 c 0,48,49
 1480 1399 1480 1399 1457 1371 c 1,50,51
 1356 1260 1356 1260 1257 1145.5 c 128,-1,52
 1158 1031 1158 1031 1064.5 911.5 c 128,-1,53
 971 792 971 792 886 668 c 128,-1,54
 801 544 801 544 727 413 c 0,55,56
 714 390 714 390 700.5 350.5 c 128,-1,57
 687 311 687 311 672 265.5 c 128,-1,58
 657 220 657 220 639.5 172.5 c 128,-1,59
 622 125 622 125 600.5 87 c 128,-1,60
 579 49 579 49 552.5 24.5 c 128,-1,61
 526 0 526 0 494 0 c 0,62,63
 468 0 468 0 451 17 c 128,-1,64
 434 34 434 34 432 61 c 1,65,-1
 448 134 l 2,0,1
EndSplineSet
EndChar

StartChar: eight
Encoding: 56 56 27
Width: 983
GlyphClass: 2
Flags: W
LayerCount: 2
Fore
SplineSet
1048 399 m 0,0,1
 1035 343 1035 343 1004.5 292.5 c 128,-1,2
 974 242 974 242 931.5 198 c 128,-1,3
 889 154 889 154 837 118.5 c 128,-1,4
 785 83 785 83 730.5 58 c 128,-1,5
 676 33 676 33 620.5 19.5 c 128,-1,6
 565 6 565 6 516 6 c 0,7,8
 431 6 431 6 352.5 38 c 128,-1,9
 274 70 274 70 218 128 c 0,10,11
 162 188 162 188 137 270 c 0,12,13
 124 313 124 313 124 360 c 0,14,15
 124 404 124 404 135 452 c 0,16,17
 152 524 152 524 178 573 c 128,-1,18
 204 622 204 622 235.5 656 c 128,-1,19
 267 690 267 690 303.5 714 c 128,-1,20
 340 738 340 738 376.5 761 c 128,-1,21
 413 784 413 784 448 809.5 c 128,-1,22
 483 835 483 835 513 873 c 1,23,24
 494 907 494 907 471.5 934.5 c 128,-1,25
 449 962 449 962 427 988 c 128,-1,26
 405 1014 405 1014 386 1040.5 c 128,-1,27
 367 1067 367 1067 355 1098 c 0,28,29
 342 1129 342 1129 340 1167 c 0,30,31
 340 1174 340 1174 340 1181 c 0,32,33
 340 1214 340 1214 349 1254 c 0,34,35
 368 1336 368 1336 415 1403 c 128,-1,36
 462 1470 462 1470 525 1517 c 128,-1,37
 588 1564 588 1564 661 1590 c 128,-1,38
 734 1616 734 1616 805 1616 c 0,39,40
 861 1616 861 1616 917 1598.5 c 128,-1,41
 973 1581 973 1581 1023 1549.5 c 128,-1,42
 1073 1518 1073 1518 1114.5 1474 c 128,-1,43
 1156 1430 1156 1430 1183 1378 c 0,44,45
 1210 1326 1210 1326 1219 1266 c 0,46,47
 1223 1243 1223 1243 1223 1218 c 0,48,49
 1223 1181 1223 1181 1214 1143 c 0,50,51
 1200 1082 1200 1082 1168 1032.5 c 128,-1,52
 1136 983 1136 983 1092.5 942.5 c 128,-1,53
 1049 902 1049 902 998.5 869.5 c 128,-1,54
 948 837 948 837 897 811 c 1,55,-1
 896 808 l 2,56,57
 892 791 892 791 905 767.5 c 128,-1,58
 918 744 918 744 938.5 714.5 c 128,-1,59
 959 685 959 685 983 650 c 128,-1,60
 1007 615 1007 615 1025.5 575.5 c 128,-1,61
 1044 536 1044 536 1052 492 c 0,62,63
 1055 474 1055 474 1055 455 c 0,64,65
 1055 428 1055 428 1048 399 c 0,0,1
883 403 m 0,66,67
 888 426 888 426 885 445 c 128,-1,68
 882 464 882 464 873 483 c 1,69,70
 867 491 867 491 852 513.5 c 128,-1,71
 837 536 837 536 816 564.5 c 128,-1,72
 795 593 795 593 769.5 623.5 c 128,-1,73
 744 654 744 654 720 679.5 c 128,-1,74
 696 705 696 705 674.5 721.5 c 128,-1,75
 653 738 653 738 639 738 c 0,76,77
 611 738 611 738 577 725.5 c 128,-1,78
 543 713 543 713 508.5 692 c 128,-1,79
 474 671 474 671 439.5 642.5 c 128,-1,80
 405 614 405 614 377.5 583 c 128,-1,81
 350 552 350 552 330 519 c 128,-1,82
 310 486 310 486 302 455 c 0,83,84
 296 429 296 429 296 404 c 0,85,86
 296 370 296 370 307 342 c 0,87,88
 326 292 326 292 364.5 256.5 c 128,-1,89
 403 221 403 221 455 202 c 128,-1,90
 507 183 507 183 557 183 c 0,91,92
 583 183 583 183 615 191 c 128,-1,93
 647 199 647 199 681 213 c 128,-1,94
 715 227 715 227 748 247 c 128,-1,95
 781 267 781 267 809 291.5 c 128,-1,96
 837 316 837 316 856.5 344 c 128,-1,97
 876 372 876 372 883 403 c 0,66,67
1044 1146 m 0,98,99
 1049 1165 1049 1165 1049 1184 c 0,100,101
 1048 1202 1048 1202 1044 1219 c 0,102,103
 1036 1255 1036 1255 1015.5 1287.5 c 128,-1,104
 995 1320 995 1320 965 1347.5 c 128,-1,105
 935 1375 935 1375 901 1395 c 128,-1,106
 867 1415 867 1415 831.5 1426.5 c 128,-1,107
 796 1438 796 1438 764 1438 c 0,108,109
 727 1438 727 1438 688 1425.5 c 128,-1,110
 649 1413 649 1413 615 1389 c 128,-1,111
 581 1365 581 1365 556 1331 c 128,-1,112
 531 1297 531 1297 521 1254 c 0,113,114
 516 1233 516 1233 516 1215 c 0,115,116
 516 1198 516 1198 521 1182 c 0,117,118
 531 1152 531 1152 555 1125 c 2,119,-1
 715 953 l 1,120,121
 718 948 718 948 722 947 c 128,-1,122
 726 946 726 946 730 946 c 0,123,124
 751 946 751 946 781.5 954 c 128,-1,125
 812 962 812 962 845 976 c 128,-1,126
 878 990 878 990 910.5 1009 c 128,-1,127
 943 1028 943 1028 971 1050.5 c 128,-1,128
 999 1073 999 1073 1018.5 1097 c 128,-1,129
 1038 1121 1038 1121 1044 1146 c 0,98,99
EndSplineSet
EndChar

StartChar: nine
Encoding: 57 57 28
Width: 1117
GlyphClass: 2
Flags: W
LayerCount: 2
Fore
SplineSet
1200 655 m 1,0,1
 1153 525 1153 525 1072 407.5 c 128,-1,2
 991 290 991 290 887 201 c 128,-1,3
 783 112 783 112 660.5 59.5 c 128,-1,4
 538 7 538 7 409 7 c 0,5,6
 390 7 390 7 362.5 4.5 c 128,-1,7
 335 2 335 2 305.5 1 c 128,-1,8
 276 0 276 0 247 2.5 c 128,-1,9
 218 5 218 5 196.5 14 c 128,-1,10
 175 23 175 23 165 41 c 128,-1,11
 155 59 155 59 162 90 c 0,12,13
 171 128 171 128 201.5 151 c 128,-1,14
 232 174 232 174 265 174 c 0,15,16
 311 174 311 174 357 180 c 128,-1,17
 403 186 403 186 450 186 c 0,18,19
 507 186 507 186 568.5 203 c 128,-1,20
 630 220 630 220 689.5 251 c 128,-1,21
 749 282 749 282 805 325 c 128,-1,22
 861 368 861 368 907 420.5 c 128,-1,23
 953 473 953 473 986 533 c 128,-1,24
 1019 593 1019 593 1034 658 c 2,25,-1
 1038 673 l 1,26,27
 994 643 994 643 941 615.5 c 128,-1,28
 888 588 888 588 832.5 568 c 128,-1,29
 777 548 777 548 722 536 c 128,-1,30
 667 524 667 524 618 524 c 0,31,32
 515 524 515 524 449 567 c 128,-1,33
 383 610 383 610 348.5 682 c 128,-1,34
 314 754 314 754 311 849 c 0,35,36
 311 860 311 860 311 870 c 0,37,38
 311 955 311 955 332 1048 c 0,39,40
 347 1112 347 1112 382 1173.5 c 128,-1,41
 417 1235 417 1235 466.5 1290.5 c 128,-1,42
 516 1346 516 1346 576.5 1393.5 c 128,-1,43
 637 1441 637 1441 701.5 1475.5 c 128,-1,44
 766 1510 766 1510 832 1529.5 c 128,-1,45
 898 1549 898 1549 958 1549 c 0,46,47
 1058 1549 1058 1549 1122.5 1517.5 c 128,-1,48
 1187 1486 1187 1486 1224.5 1431.5 c 128,-1,49
 1262 1377 1262 1377 1276 1303 c 0,50,51
 1286 1249 1286 1249 1286 1189 c 0,52,53
 1286 1184 1286 1184 1286 1178 c 0,54,55
 1286 1162 1286 1162 1286 1144 c 0,56,57
 1282 1058 1282 1058 1266 965 c 128,-1,58
 1250 872 1250 872 1229 780 c 2,59,-1
 1200 655 l 1,0,1
1098 932 m 0,60,61
 1117 1016 1117 1016 1123 1095 c 0,62,63
 1125 1116 1125 1116 1125 1136 c 0,64,65
 1124 1190 1124 1190 1112 1235 c 0,66,67
 1096 1296 1096 1296 1051.5 1333 c 128,-1,68
 1007 1370 1007 1370 925 1370 c 2,69,-1
 872 1370 l 1,70,71
 822 1358 822 1358 761 1327 c 128,-1,72
 700 1296 700 1296 645 1253 c 128,-1,73
 590 1210 590 1210 548 1158 c 128,-1,74
 506 1106 506 1106 494 1051 c 0,75,76
 478 980 478 980 476 917 c 0,77,78
 476 909 476 909 475 901 c 0,79,80
 475 898 475 898 475 895 c 0,81,82
 475 846 475 846 490 806 c 0,83,84
 508 758 508 758 549 730.5 c 128,-1,85
 590 703 590 703 660 703 c 0,86,87
 684 703 684 703 724 711.5 c 128,-1,88
 764 720 764 720 810.5 735.5 c 128,-1,89
 857 751 857 751 904.5 772.5 c 128,-1,90
 952 794 952 794 993 819.5 c 128,-1,91
 1034 845 1034 845 1062.5 873.5 c 128,-1,92
 1091 902 1091 902 1098 932 c 0,60,61
EndSplineSet
EndChar

StartChar: colon
Encoding: 58 58 29
Width: 443
GlyphClass: 2
Flags: W
LayerCount: 2
Fore
SplineSet
131 151 m 256,0,1
 138 181 138 181 155 208 c 128,-1,2
 172 235 172 235 195 255 c 128,-1,3
 218 275 218 275 245.5 286.5 c 128,-1,4
 273 298 273 298 301 298 c 256,5,6
 329 298 329 298 351.5 286.5 c 128,-1,7
 374 275 374 275 388 255 c 128,-1,8
 402 235 402 235 406.5 208 c 128,-1,9
 411 181 411 181 404 151 c 256,10,11
 397 121 397 121 380 94 c 128,-1,12
 363 67 363 67 340 47.5 c 128,-1,13
 317 28 317 28 289 16.5 c 128,-1,14
 261 5 261 5 234 5 c 256,15,16
 206 5 206 5 183.5 16.5 c 128,-1,17
 161 28 161 28 147 47.5 c 128,-1,18
 133 67 133 67 128.5 94 c 128,-1,19
 124 121 124 121 131 151 c 256,0,1
315 979 m 256,20,21
 322 1009 322 1009 339 1036 c 128,-1,22
 356 1063 356 1063 378.5 1083 c 128,-1,23
 401 1103 401 1103 429 1114.5 c 128,-1,24
 457 1126 457 1126 485 1126 c 256,25,26
 513 1126 513 1126 535.5 1114.5 c 128,-1,27
 558 1103 558 1103 572 1083 c 128,-1,28
 586 1063 586 1063 590.5 1036 c 128,-1,29
 595 1009 595 1009 588 979 c 256,30,31
 581 949 581 949 564 922 c 128,-1,32
 547 895 547 895 524 875.5 c 128,-1,33
 501 856 501 856 473 844.5 c 128,-1,34
 445 833 445 833 417 833 c 256,35,36
 389 833 389 833 366.5 844.5 c 128,-1,37
 344 856 344 856 330.5 875.5 c 128,-1,38
 317 895 317 895 312.5 922 c 128,-1,39
 308 949 308 949 315 979 c 256,20,21
EndSplineSet
EndChar

StartChar: semicolon
Encoding: 59 59 30
Width: 474
GlyphClass: 2
Flags: W
LayerCount: 2
Fore
SplineSet
27 -185 m 0,0,1
 81 -133 81 -133 120 -83 c 128,-1,2
 159 -33 159 -33 188.5 18 c 128,-1,3
 218 69 218 69 240.5 122.5 c 128,-1,4
 263 176 263 176 284 234 c 0,5,6
 296 266 296 266 324.5 284 c 128,-1,7
 353 302 353 302 381 302 c 0,8,9
 411 302 411 302 428 289 c 128,-1,10
 445 276 445 276 449 246 c 1,11,-1
 435 187 l 2,12,13
 428 155 428 155 410 108 c 128,-1,14
 392 61 392 61 366 9.5 c 128,-1,15
 340 -42 340 -42 308 -92.5 c 128,-1,16
 276 -143 276 -143 240.5 -183.5 c 128,-1,17
 205 -224 205 -224 166.5 -249 c 128,-1,18
 128 -274 128 -274 90 -274 c 0,19,20
 71 -274 71 -274 55 -264 c 128,-1,21
 39 -254 39 -254 28.5 -240 c 128,-1,22
 18 -226 18 -226 16.5 -211 c 128,-1,23
 15 -196 15 -196 27 -185 c 0,0,1
382 978 m 256,24,25
 389 1008 389 1008 405.5 1035 c 128,-1,26
 422 1062 422 1062 445 1082 c 128,-1,27
 468 1102 468 1102 495.5 1113.5 c 128,-1,28
 523 1125 523 1125 551 1125 c 256,29,30
 579 1125 579 1125 601.5 1113.5 c 128,-1,31
 624 1102 624 1102 638 1082 c 128,-1,32
 652 1062 652 1062 656.5 1035 c 128,-1,33
 661 1008 661 1008 654 978 c 256,34,35
 647 948 647 948 630 921 c 128,-1,36
 613 894 613 894 590 874.5 c 128,-1,37
 567 855 567 855 539.5 843.5 c 128,-1,38
 512 832 512 832 484 832 c 256,39,40
 456 832 456 832 433.5 843.5 c 128,-1,41
 411 855 411 855 397.5 874.5 c 128,-1,42
 384 894 384 894 379.5 921 c 128,-1,43
 375 948 375 948 382 978 c 256,24,25
EndSplineSet
EndChar

StartChar: less
Encoding: 60 60 31
Width: 1075
GlyphClass: 2
Flags: W
LayerCount: 2
Fore
SplineSet
300 655 m 0,0,1
 307 674 307 674 336 696 c 128,-1,2
 365 718 365 718 406 741 c 128,-1,3
 447 764 447 764 495 787 c 128,-1,4
 543 810 543 810 587 831 c 128,-1,5
 631 852 631 852 666 869 c 128,-1,6
 701 886 701 886 716 897 c 2,7,-1
 1142 1212 l 1,8,9
 1152 1218 1152 1218 1166 1223 c 128,-1,10
 1180 1228 1180 1228 1191 1228 c 0,11,12
 1224 1228 1224 1228 1239.5 1204 c 128,-1,13
 1255 1180 1255 1180 1247 1147 c 0,14,15
 1238 1110 1238 1110 1198.5 1065.5 c 128,-1,16
 1159 1021 1159 1021 1101 974 c 128,-1,17
 1043 927 1043 927 973.5 880 c 128,-1,18
 904 833 904 833 835.5 790.5 c 128,-1,19
 767 748 767 748 707 713 c 128,-1,20
 647 678 647 678 608 655 c 1,21,22
 657 605 657 605 713.5 553 c 128,-1,23
 770 501 770 501 826 445.5 c 128,-1,24
 882 390 882 390 932.5 329.5 c 128,-1,25
 983 269 983 269 1022 202 c 0,26,27
 1028 193 1028 193 1025 182 c 128,-1,28
 1022 171 1022 171 1020 162 c 0,29,30
 1012 126 1012 126 987 103.5 c 128,-1,31
 962 81 962 81 926 81 c 0,32,33
 904 81 904 81 870.5 114 c 128,-1,34
 837 147 837 147 794.5 197.5 c 128,-1,35
 752 248 752 248 701.5 308 c 128,-1,36
 651 368 651 368 593 423 c 128,-1,37
 535 478 535 478 470 519.5 c 128,-1,38
 405 561 405 561 335 574 c 0,39,40
 309 579 309 579 299.5 603 c 128,-1,41
 290 627 290 627 300 655 c 0,0,1
EndSplineSet
EndChar

StartChar: equal
Encoding: 61 61 32
Width: 1098
GlyphClass: 2
Flags: W
LayerCount: 2
Fore
SplineSet
1042 366 m 1,0,-1
 208 366 l 1,1,-1
 285 552 l 1,2,-1
 1119 552 l 1,3,-1
 1042 366 l 1,0,-1
1145 808 m 1,4,-1
 310 808 l 1,5,-1
 383 978 l 1,6,-1
 1217 978 l 1,7,-1
 1145 808 l 1,4,-1
EndSplineSet
EndChar

StartChar: greater
Encoding: 62 62 33
Width: 1075
GlyphClass: 2
Flags: W
LayerCount: 2
Fore
SplineSet
1102 655 m 0,0,1
 1099 627 1099 627 1078.5 603 c 128,-1,2
 1058 579 1058 579 1030 574 c 0,3,4
 954 561 954 561 870 519.5 c 128,-1,5
 786 478 786 478 702.5 423 c 128,-1,6
 619 368 619 368 540.5 308 c 128,-1,7
 462 248 462 248 396.5 197.5 c 128,-1,8
 331 147 331 147 282.5 114 c 128,-1,9
 234 81 234 81 211 81 c 0,10,11
 175 81 175 81 160.5 103.5 c 128,-1,12
 146 126 146 126 155 162 c 0,13,14
 157 171 157 171 159 182 c 128,-1,15
 161 193 161 193 171 202 c 0,16,17
 240 269 240 269 319 329.5 c 128,-1,18
 398 390 398 390 479.5 445.5 c 128,-1,19
 561 501 561 501 641.5 553 c 128,-1,20
 722 605 722 605 794 655 c 1,21,22
 766 678 766 678 722 713 c 128,-1,23
 678 748 678 748 629 790.5 c 128,-1,24
 580 833 580 833 532.5 880 c 128,-1,25
 485 927 485 927 449 974 c 0,26,27
 414 1022 414 1022 394 1066 c 0,28,29
 380 1098 380 1098 380 1125 c 0,30,31
 380 1136 380 1136 382 1147 c 0,32,33
 390 1180 390 1180 416.5 1204 c 128,-1,34
 443 1228 443 1228 476 1228 c 0,35,36
 487 1228 487 1228 498.5 1223 c 128,-1,37
 510 1218 510 1218 517 1212 c 1,38,-1
 798 897 l 2,39,40
 808 886 808 886 835.5 869 c 128,-1,41
 863 852 863 852 897 831 c 128,-1,42
 931 810 931 810 968 787 c 128,-1,43
 1005 764 1005 764 1035.5 741 c 128,-1,44
 1066 718 1066 718 1085 696 c 128,-1,45
 1104 674 1104 674 1102 655 c 0,0,1
EndSplineSet
EndChar

StartChar: question
Encoding: 63 63 34
Width: 898
GlyphClass: 2
Flags: W
LayerCount: 2
Fore
SplineSet
333 169 m 256,0,1
 341 203 341 203 360 232.5 c 128,-1,2
 379 262 379 262 404.5 284 c 128,-1,3
 430 306 430 306 460.5 319 c 128,-1,4
 491 332 491 332 523 332 c 0,5,6
 556 332 556 332 580 319 c 128,-1,7
 604 306 604 306 618 283.5 c 128,-1,8
 632 261 632 261 636 231.5 c 128,-1,9
 640 202 640 202 632 169 c 256,10,11
 624 136 624 136 607 106 c 128,-1,12
 590 76 590 76 565 53.5 c 128,-1,13
 540 31 540 31 510 18 c 128,-1,14
 480 5 480 5 448 5 c 128,-1,15
 416 5 416 5 391 18 c 128,-1,16
 366 31 366 31 350.5 53 c 128,-1,17
 335 75 335 75 330 105 c 0,18,19
 328 117 328 117 328 129 c 0,20,21
 328 148 328 148 333 169 c 256,0,1
503 636 m 0,22,23
 507 654 507 654 516.5 669.5 c 128,-1,24
 526 685 526 685 539.5 696.5 c 128,-1,25
 553 708 553 708 569 714.5 c 128,-1,26
 585 721 585 721 601 721 c 0,27,28
 625 721 625 721 649 717 c 128,-1,29
 673 713 673 713 697 713 c 0,30,31
 753 713 753 713 794.5 742.5 c 128,-1,32
 836 772 836 772 865.5 817.5 c 128,-1,33
 895 863 895 863 914 917 c 128,-1,34
 933 971 933 971 944 1020 c 0,35,36
 950 1048 950 1048 957 1082 c 128,-1,37
 964 1116 964 1116 968 1152 c 0,38,39
 970 1173 970 1173 970 1193 c 0,40,41
 970 1207 970 1207 968 1221 c 0,42,43
 966 1254 966 1254 955 1279.5 c 128,-1,44
 944 1305 944 1305 922 1320.5 c 128,-1,45
 900 1336 900 1336 864 1336 c 0,46,47
 803 1336 803 1336 748 1310.5 c 128,-1,48
 693 1285 693 1285 645 1246.5 c 128,-1,49
 597 1208 597 1208 555 1163 c 128,-1,50
 513 1118 513 1118 476 1079.5 c 128,-1,51
 439 1041 439 1041 407.5 1015.5 c 128,-1,52
 376 990 376 990 349 990 c 0,53,54
 318 990 318 990 300 1016 c 0,55,56
 288 1033 288 1033 288 1055 c 0,57,58
 288 1066 288 1066 291 1079 c 0,59,60
 305 1139 305 1139 342.5 1194.5 c 128,-1,61
 380 1250 380 1250 432 1298 c 128,-1,62
 484 1346 484 1346 546.5 1386 c 128,-1,63
 609 1426 609 1426 672.5 1454 c 128,-1,64
 736 1482 736 1482 796 1497.5 c 128,-1,65
 856 1513 856 1513 905 1513 c 0,66,67
 967 1513 967 1513 1009.5 1492.5 c 128,-1,68
 1052 1472 1052 1472 1079 1436 c 128,-1,69
 1106 1400 1106 1400 1120 1352 c 0,70,71
 1132 1304 1132 1304 1134 1250 c 0,72,73
 1134 1240 1134 1240 1135 1230 c 0,74,75
 1135 1223 1135 1223 1135 1217 c 0,76,77
 1135 1178 1135 1178 1130 1138 c 0,78,79
 1124 1080 1124 1080 1110 1025 c 0,80,81
 1089 935 1089 935 1050.5 847 c 128,-1,82
 1012 759 1012 759 955.5 689.5 c 128,-1,83
 899 620 899 620 824 577.5 c 128,-1,84
 749 535 749 535 655 535 c 0,85,86
 632 535 632 535 602.5 537.5 c 128,-1,87
 573 540 573 540 547.5 549.5 c 128,-1,88
 522 559 522 559 508.5 579.5 c 128,-1,89
 495 600 495 600 503 636 c 0,22,23
EndSplineSet
EndChar

StartChar: at
Encoding: 64 64 35
Width: 1803
GlyphClass: 2
Flags: W
LayerCount: 2
Fore
SplineSet
252 586 m 0,0,1
 281 713 281 713 335 827 c 128,-1,2
 389 941 389 941 462 1037.5 c 128,-1,3
 535 1134 535 1134 625 1211 c 128,-1,4
 715 1288 715 1288 818 1342.5 c 128,-1,5
 921 1397 921 1397 1033.5 1426 c 128,-1,6
 1146 1455 1146 1455 1264 1455 c 0,7,8
 1390 1455 1390 1455 1486.5 1421 c 128,-1,9
 1583 1387 1583 1387 1653.5 1326 c 128,-1,10
 1724 1265 1724 1265 1767 1179 c 128,-1,11
 1810 1093 1810 1093 1828 990 c 0,12,13
 1842 911 1842 911 1842 823 c 0,14,15
 1842 796 1842 796 1840 769 c 0,16,17
 1834 651 1834 651 1806 525 c 0,18,19
 1795 476 1795 476 1776.5 416.5 c 128,-1,20
 1758 357 1758 357 1732 296.5 c 128,-1,21
 1706 236 1706 236 1672.5 178.5 c 128,-1,22
 1639 121 1639 121 1596 76.5 c 128,-1,23
 1553 32 1553 32 1501.5 5 c 128,-1,24
 1450 -22 1450 -22 1388 -22 c 0,25,26
 1333 -22 1333 -22 1298.5 -5.5 c 128,-1,27
 1264 11 1264 11 1242.5 38 c 128,-1,28
 1221 65 1221 65 1210 100 c 128,-1,29
 1199 135 1199 135 1193 172.5 c 128,-1,30
 1187 210 1187 210 1181.5 247.5 c 128,-1,31
 1176 285 1176 285 1167 317 c 1,32,33
 1141 299 1141 299 1109 275 c 128,-1,34
 1077 251 1077 251 1042 229.5 c 128,-1,35
 1007 208 1007 208 972.5 193 c 128,-1,36
 938 178 938 178 909 178 c 2,37,-1
 756 178 l 2,38,39
 712 178 712 178 683.5 198 c 128,-1,40
 655 218 655 218 638.5 251.5 c 128,-1,41
 622 285 622 285 616 327 c 0,42,43
 610 366 610 366 610 406 c 0,44,45
 610 409 610 409 610 413 c 0,46,47
 610 457 610 457 616 498.5 c 128,-1,48
 622 540 622 540 629 573 c 2,49,-1
 652 673 l 1,50,51
 694 777 694 777 761 844.5 c 128,-1,52
 828 912 828 912 909 951 c 128,-1,53
 990 990 990 990 1079.5 1005.5 c 128,-1,54
 1169 1021 1169 1021 1257 1021 c 0,55,56
 1275 1021 1275 1021 1304.5 1020.5 c 128,-1,57
 1334 1020 1334 1020 1363 1014 c 128,-1,58
 1392 1008 1392 1008 1413 993.5 c 128,-1,59
 1434 979 1434 979 1435 951 c 1,60,61
 1432 936 1432 936 1425.5 904.5 c 128,-1,62
 1419 873 1419 873 1411.5 833.5 c 128,-1,63
 1404 794 1404 794 1396 751 c 128,-1,64
 1388 708 1388 708 1380.5 668.5 c 128,-1,65
 1373 629 1373 629 1367 597.5 c 128,-1,66
 1361 566 1361 566 1359 551 c 0,67,68
 1356 533 1356 533 1352 497.5 c 128,-1,69
 1348 462 1348 462 1347 420 c 0,70,71
 1347 411 1347 411 1347 401 c 0,72,73
 1348 368 1348 368 1350 332 c 0,74,75
 1354 288 1354 288 1362.5 251.5 c 128,-1,76
 1371 215 1371 215 1388 192 c 128,-1,77
 1405 169 1405 169 1432 169 c 256,78,79
 1459 169 1459 169 1483.5 190.5 c 128,-1,80
 1508 212 1508 212 1529.5 245.5 c 128,-1,81
 1551 279 1551 279 1568.5 320 c 128,-1,82
 1586 361 1586 361 1599.5 399.5 c 128,-1,83
 1613 438 1613 438 1621.5 470 c 128,-1,84
 1630 502 1630 502 1634 517 c 0,85,86
 1665 653 1665 653 1665 775 c 0,87,88
 1664 791 1664 791 1664 806 c 0,89,90
 1660 942 1660 942 1610 1043.5 c 128,-1,91
 1560 1145 1560 1145 1462 1204.5 c 128,-1,92
 1364 1264 1364 1264 1213 1264 c 0,93,94
 1076 1264 1076 1264 949 1215 c 128,-1,95
 822 1166 822 1166 716.5 1077 c 128,-1,96
 611 988 611 988 534.5 864.5 c 128,-1,97
 458 741 458 741 423 591 c 0,98,99
 403 503 403 503 403 422 c 0,100,101
 403 386 403 386 407 351 c 0,102,103
 420 238 420 238 472 153.5 c 128,-1,104
 524 69 524 69 613 19.5 c 128,-1,105
 702 -30 702 -30 825 -30 c 2,106,-1
 902 -30 l 1,107,108
 925 -17 925 -17 941 -15 c 128,-1,109
 957 -13 957 -13 978 -13 c 0,110,111
 1017 -13 1017 -13 1033 -35 c 128,-1,112
 1049 -57 1049 -57 1040 -96 c 0,113,114
 1029 -143 1029 -143 998.5 -168.5 c 128,-1,115
 968 -194 968 -194 929 -206 c 128,-1,116
 890 -218 890 -218 849 -220 c 128,-1,117
 808 -222 808 -222 777 -222 c 0,118,119
 671 -222 671 -222 583.5 -192.5 c 128,-1,120
 496 -163 496 -163 429.5 -110 c 128,-1,121
 363 -57 363 -57 317.5 17.5 c 128,-1,122
 272 92 272 92 249 182 c 0,123,124
 226 270 226 270 226 370 c 0,125,126
 226 474 226 474 252 586 c 0,0,1
783 573 m 0,127,128
 774 534 774 534 770 494 c 0,129,130
 769 480 769 480 769 467 c 0,131,132
 770 442 770 442 774 420 c 0,133,134
 782 386 782 386 804.5 364.5 c 128,-1,135
 827 343 827 343 871 343 c 0,136,137
 931 343 931 343 978.5 365 c 128,-1,138
 1026 387 1026 387 1063.5 424 c 128,-1,139
 1101 461 1101 461 1130 509.5 c 128,-1,140
 1159 558 1159 558 1180 610.5 c 128,-1,141
 1201 663 1201 663 1216 716 c 128,-1,142
 1231 769 1231 769 1242 816 c 0,143,144
 1243 819 1243 819 1244.5 824.5 c 128,-1,145
 1246 830 1246 830 1247 835 c 128,-1,146
 1248 840 1248 840 1247 843.5 c 128,-1,147
 1246 847 1246 847 1241 847 c 2,148,-1
 1173 847 l 2,149,150
 1108 847 1108 847 1045.5 834.5 c 128,-1,151
 983 822 983 822 931 791 c 128,-1,152
 879 760 879 760 840.5 707 c 128,-1,153
 802 654 802 654 783 573 c 0,127,128
EndSplineSet
EndChar

StartChar: A
Encoding: 65 65 36
Width: 1127
GlyphClass: 2
Flags: W
LayerCount: 2
Fore
SplineSet
875 118 m 2,0,1
 892 190 892 190 914 262 c 128,-1,2
 936 334 936 334 959 406 c 128,-1,3
 982 478 982 478 1004 550 c 128,-1,4
 1026 622 1026 622 1043 694 c 1,5,-1
 432 694 l 1,6,7
 392 538 392 538 330 381.5 c 128,-1,8
 268 225 268 225 191 73 c 0,9,10
 184 59 184 59 173.5 45.5 c 128,-1,11
 163 32 163 32 150 20.5 c 128,-1,12
 137 9 137 9 123.5 2 c 128,-1,13
 110 -5 110 -5 98 -5 c 0,14,15
 82 -5 82 -5 71 4.5 c 128,-1,16
 60 14 60 14 54 28.5 c 128,-1,17
 48 43 48 43 47 60.5 c 128,-1,18
 46 78 46 78 50 95 c 2,19,-1
 55 118 l 1,20,21
 74 159 74 159 98.5 208.5 c 128,-1,22
 123 258 123 258 147 310 c 128,-1,23
 171 362 171 362 192.5 412 c 128,-1,24
 214 462 214 462 227 504 c 2,25,-1
 389 1022 l 2,26,27
 407 1081 407 1081 442 1140 c 128,-1,28
 477 1199 477 1199 523.5 1253 c 128,-1,29
 570 1307 570 1307 625 1354.5 c 128,-1,30
 680 1402 680 1402 739 1437 c 128,-1,31
 798 1472 798 1472 857 1492 c 128,-1,32
 916 1512 916 1512 971 1512 c 0,33,34
 1069 1512 1069 1512 1128.5 1475 c 128,-1,35
 1188 1438 1188 1438 1220 1376.5 c 128,-1,36
 1252 1315 1252 1315 1259 1234 c 0,37,38
 1263 1198 1263 1198 1263 1161 c 0,39,40
 1262 1156 1262 1156 1262 1151 c 0,41,42
 1262 1108 1262 1108 1259 1064 c 0,43,44
 1252 975 1252 975 1234.5 884.5 c 128,-1,45
 1217 794 1217 794 1198 714 c 2,46,-1
 1168 582 l 1,47,48
 1163 563 1163 563 1150.5 522.5 c 128,-1,49
 1138 482 1138 482 1123 431.5 c 128,-1,50
 1108 381 1108 381 1089.5 325 c 128,-1,51
 1071 269 1071 269 1055.5 218.5 c 128,-1,52
 1040 168 1040 168 1027 127.5 c 128,-1,53
 1014 87 1014 87 1008 67 c 1,54,55
 996 40 996 40 971.5 20 c 128,-1,56
 947 0 947 0 920 0 c 0,57,58
 895 0 895 0 878.5 15.5 c 128,-1,59
 862 31 862 31 860 56 c 1,60,-1
 875 118 l 2,0,1
476 885 m 0,61,62
 475 882 475 882 501 880.5 c 128,-1,63
 527 879 527 879 566.5 878 c 128,-1,64
 606 877 606 877 653.5 876.5 c 128,-1,65
 701 876 701 876 744.5 876 c 128,-1,66
 788 876 788 876 821.5 875.5 c 128,-1,67
 855 875 855 875 866 875 c 0,68,69
 891 874 891 874 916 874 c 0,70,71
 929 874 929 874 941 874 c 0,72,73
 979 874 979 874 1010.5 876.5 c 128,-1,74
 1042 879 1042 879 1062 882 c 128,-1,75
 1082 885 1082 885 1083 890 c 0,76,77
 1098 979 1098 979 1110 1061 c 0,78,79
 1116 1107 1116 1107 1117 1147 c 0,80,81
 1117 1178 1117 1178 1113 1206 c 0,82,83
 1104 1268 1104 1268 1067 1305.5 c 128,-1,84
 1030 1343 1030 1343 949 1343 c 0,85,86
 893 1343 893 1343 839.5 1323 c 128,-1,87
 786 1303 786 1303 737.5 1268.5 c 128,-1,88
 689 1234 689 1234 646 1188 c 128,-1,89
 603 1142 603 1142 569 1091 c 128,-1,90
 535 1040 535 1040 511 987 c 128,-1,91
 487 934 487 934 476 885 c 0,61,62
EndSplineSet
EndChar

StartChar: B
Encoding: 66 66 37
Width: 1302
GlyphClass: 2
Flags: W
LayerCount: 2
Fore
SplineSet
221 19 m 1,0,1
 199 27 199 27 195 49.5 c 128,-1,2
 191 72 191 72 197 98 c 0,3,4
 203 126 203 126 222.5 162 c 128,-1,5
 242 198 242 198 265 235 c 128,-1,6
 288 272 288 272 309.5 305 c 128,-1,7
 331 338 331 338 341 359 c 0,8,9
 400 473 400 473 451 594 c 128,-1,10
 502 715 502 715 545 838.5 c 128,-1,11
 588 962 588 962 623 1085.5 c 128,-1,12
 658 1209 658 1209 686 1328 c 1,13,14
 653 1328 653 1328 620.5 1321.5 c 128,-1,15
 588 1315 588 1315 555 1307 c 128,-1,16
 522 1299 522 1299 490 1292.5 c 128,-1,17
 458 1286 458 1286 426 1286 c 0,18,19
 392 1286 392 1286 375.5 1307.5 c 128,-1,20
 359 1329 359 1329 367 1365 c 0,21,22
 376 1403 376 1403 415.5 1428.5 c 128,-1,23
 455 1454 455 1454 512.5 1470 c 128,-1,24
 570 1486 570 1486 636.5 1494 c 128,-1,25
 703 1502 703 1502 764.5 1505 c 128,-1,26
 826 1508 826 1508 875.5 1508 c 128,-1,27
 925 1508 925 1508 950 1508 c 0,28,29
 1128 1508 1128 1508 1237 1483 c 128,-1,30
 1346 1458 1346 1458 1403 1414 c 128,-1,31
 1460 1370 1460 1370 1472 1310 c 0,32,33
 1477 1283 1477 1283 1478 1254 c 0,34,35
 1478 1217 1478 1217 1469 1178 c 0,36,37
 1455 1118 1455 1118 1418 1078 c 128,-1,38
 1381 1038 1381 1038 1330 1010.5 c 128,-1,39
 1279 983 1279 983 1219.5 964.5 c 128,-1,40
 1160 946 1160 946 1101.5 931 c 128,-1,41
 1043 916 1043 916 990 900.5 c 128,-1,42
 937 885 937 885 899 862 c 1,43,44
 946 842 946 842 996.5 817 c 128,-1,45
 1047 792 1047 792 1094.5 761.5 c 128,-1,46
 1142 731 1142 731 1183.5 694 c 128,-1,47
 1225 657 1225 657 1252 610.5 c 128,-1,48
 1279 564 1279 564 1288 508 c 0,49,50
 1291 487 1291 487 1291 464 c 0,51,52
 1291 426 1291 426 1282 385 c 0,53,54
 1261 296 1261 296 1212.5 233 c 128,-1,55
 1164 170 1164 170 1098 127.5 c 128,-1,56
 1032 85 1032 85 954 60 c 128,-1,57
 876 35 876 35 797.5 22 c 128,-1,58
 719 9 719 9 644.5 5.5 c 128,-1,59
 570 2 570 2 512 2 c 0,60,61
 471 2 471 2 439.5 3 c 128,-1,62
 408 4 408 4 376.5 6.5 c 128,-1,63
 345 9 345 9 308 12 c 128,-1,64
 271 15 271 15 221 19 c 1,0,1
414 172 m 1,65,66
 418 172 418 172 432.5 171.5 c 128,-1,67
 447 171 447 171 464.5 170.5 c 128,-1,68
 482 170 482 170 498.5 169.5 c 128,-1,69
 515 169 515 169 524 169 c 0,70,71
 550 169 550 169 602 169.5 c 128,-1,72
 654 170 654 170 716.5 175.5 c 128,-1,73
 779 181 779 181 846.5 193 c 128,-1,74
 914 205 914 205 972 229 c 128,-1,75
 1030 253 1030 253 1072.5 291 c 128,-1,76
 1115 329 1115 329 1128 385 c 0,77,78
 1134 411 1134 411 1134 436 c 0,79,80
 1134 456 1134 456 1130 476 c 0,81,82
 1121 520 1121 520 1098.5 557.5 c 128,-1,83
 1076 595 1076 595 1042 626.5 c 128,-1,84
 1008 658 1008 658 971 683.5 c 128,-1,85
 934 709 934 709 897 727.5 c 128,-1,86
 860 746 860 746 830 758 c 1,87,88
 813 763 813 763 787.5 770.5 c 128,-1,89
 762 778 762 778 738.5 785 c 128,-1,90
 715 792 715 792 697.5 796 c 128,-1,91
 680 800 680 800 680 799 c 2,92,-1
 673 788 l 1,93,94
 645 717 645 717 613.5 638.5 c 128,-1,95
 582 560 582 560 547 480 c 128,-1,96
 512 400 512 400 473.5 322.5 c 128,-1,97
 435 245 435 245 394 178 c 1,98,-1
 414 172 l 1,65,66
849 1348 m 1,99,100
 845 1335 845 1335 837 1304.5 c 128,-1,101
 829 1274 829 1274 817.5 1235.5 c 128,-1,102
 806 1197 806 1197 794 1154.5 c 128,-1,103
 782 1112 782 1112 771 1073.5 c 128,-1,104
 760 1035 760 1035 751.5 1004.5 c 128,-1,105
 743 974 743 974 739 961 c 1,106,-1
 737 955 l 1,107,-1
 736 950 l 1,108,109
 745 950 745 950 776 956.5 c 128,-1,110
 807 963 807 963 850 974.5 c 128,-1,111
 893 986 893 986 945 1001.5 c 128,-1,112
 997 1017 997 1017 1051 1036 c 128,-1,113
 1105 1055 1105 1055 1156 1076.5 c 128,-1,114
 1207 1098 1207 1098 1249 1120 c 0,115,116
 1289 1142 1289 1142 1317 1166 c 0,117,118
 1346 1190 1346 1190 1352 1215 c 0,119,120
 1360 1252 1360 1252 1348 1276 c 0,121,122
 1335 1302 1335 1302 1308 1319 c 0,123,124
 1282 1336 1282 1336 1243 1344 c 128,-1,125
 1204 1352 1204 1352 1162 1356 c 0,126,127
 1129 1359 1129 1359 1097 1359 c 0,128,129
 1088 1359 1088 1359 1078 1359 c 0,130,131
 1036 1358 1036 1358 1001 1355.5 c 128,-1,132
 966 1353 966 1353 943 1350.5 c 128,-1,133
 920 1348 920 1348 916 1348 c 2,134,-1
 849 1348 l 1,99,100
EndSplineSet
EndChar

StartChar: C
Encoding: 67 67 38
Width: 1327
GlyphClass: 2
Flags: W
LayerCount: 2
Fore
SplineSet
225 752 m 0,0,1
 263 918 263 918 336.5 1057 c 128,-1,2
 410 1196 410 1196 514 1296.5 c 128,-1,3
 618 1397 618 1397 752 1453 c 128,-1,4
 886 1509 886 1509 1046 1509 c 0,5,6
 1060 1509 1060 1509 1089 1507.5 c 128,-1,7
 1118 1506 1118 1506 1157 1502.5 c 128,-1,8
 1196 1499 1196 1499 1240.5 1493 c 128,-1,9
 1285 1487 1285 1487 1329 1477.5 c 128,-1,10
 1373 1468 1373 1468 1412 1455 c 128,-1,11
 1451 1442 1451 1442 1480 1424 c 128,-1,12
 1509 1406 1509 1406 1523.5 1383.5 c 128,-1,13
 1538 1361 1538 1361 1531 1332 c 0,14,15
 1522 1295 1522 1295 1495.5 1274.5 c 128,-1,16
 1469 1254 1469 1254 1436 1254 c 2,17,-1
 1412 1254 l 1,18,19
 1315 1293 1315 1293 1216 1317 c 128,-1,20
 1117 1341 1117 1341 1007 1341 c 0,21,22
 882 1341 882 1341 780.5 1299.5 c 128,-1,23
 679 1258 679 1258 601 1182 c 128,-1,24
 523 1106 523 1106 468.5 999.5 c 128,-1,25
 414 893 414 893 384 763 c 0,26,27
 367 688 367 688 358 613 c 0,28,29
 352 559 352 559 352 508 c 0,30,31
 352 488 352 488 352 470 c 0,32,33
 356 402 356 402 373.5 342 c 128,-1,34
 391 282 391 282 427.5 238.5 c 128,-1,35
 464 195 464 195 521.5 170 c 128,-1,36
 579 145 579 145 661 145 c 0,37,38
 768 145 768 145 882.5 177 c 128,-1,39
 997 209 997 209 1103 266 c 0,40,41
 1118 274 1118 274 1137 287.5 c 128,-1,42
 1156 301 1156 301 1176.5 314.5 c 128,-1,43
 1197 328 1197 328 1218 337.5 c 128,-1,44
 1239 347 1239 347 1255 347 c 0,45,46
 1290 347 1290 347 1305 323 c 128,-1,47
 1320 299 1320 299 1312 264 c 0,48,49
 1302 219 1302 219 1256 180.5 c 128,-1,50
 1210 142 1210 142 1144.5 110 c 128,-1,51
 1079 78 1079 78 1002 53.5 c 128,-1,52
 925 29 925 29 852 12 c 128,-1,53
 779 -5 779 -5 718.5 -13.5 c 128,-1,54
 658 -22 658 -22 625 -22 c 0,55,56
 522 -22 522 -22 445.5 7.5 c 128,-1,57
 369 37 369 37 317 90 c 128,-1,58
 265 143 265 143 235.5 215.5 c 128,-1,59
 206 288 206 288 196 374 c 0,60,61
 190 422 190 422 190 473 c 0,62,63
 190 514 190 514 194 556 c 0,64,65
 202 652 202 652 225 752 c 0,0,1
EndSplineSet
EndChar

StartChar: D
Encoding: 68 68 39
Width: 1312
GlyphClass: 2
Flags: W
LayerCount: 2
Fore
SplineSet
144 110 m 1,0,1
 241 248 241 248 319 400.5 c 128,-1,2
 397 553 397 553 459 711.5 c 128,-1,3
 521 870 521 870 568.5 1030 c 128,-1,4
 616 1190 616 1190 651 1343 c 1,5,6
 618 1343 618 1343 585 1335 c 128,-1,7
 552 1327 552 1327 519 1317 c 128,-1,8
 486 1307 486 1307 453.5 1299 c 128,-1,9
 421 1291 421 1291 390 1291 c 0,10,11
 355 1291 355 1291 339.5 1310.5 c 128,-1,12
 324 1330 324 1330 333 1369 c 0,13,14
 342 1409 342 1409 373 1435.5 c 128,-1,15
 404 1462 404 1462 447 1477.5 c 128,-1,16
 490 1493 490 1493 540.5 1500.5 c 128,-1,17
 591 1508 591 1508 640 1510 c 0,18,19
 679 1512 679 1512 713 1512 c 0,20,21
 720 1512 720 1512 730 1512 c 0,22,23
 773 1512 773 1512 799 1511 c 0,24,25
 898 1511 898 1511 992 1487 c 128,-1,26
 1086 1463 1086 1463 1168 1416.5 c 128,-1,27
 1250 1370 1250 1370 1315.5 1303.5 c 128,-1,28
 1381 1237 1381 1237 1421 1151.5 c 128,-1,29
 1461 1066 1461 1066 1472 964 c 0,30,31
 1475 934 1475 934 1475 903 c 0,32,33
 1475 827 1475 827 1456 744 c 0,34,35
 1424 604 1424 604 1356 494.5 c 128,-1,36
 1288 385 1288 385 1195 302.5 c 128,-1,37
 1102 220 1102 220 988.5 163.5 c 128,-1,38
 875 107 875 107 751 72 c 0,39,40
 626 37 626 37 496 23 c 0,41,42
 389 11 389 11 284 11 c 0,43,44
 262 11 262 11 240 12 c 1,45,46
 226 7 226 7 216.5 6.5 c 128,-1,47
 207 6 207 6 195 6 c 0,48,49
 161 6 161 6 145.5 28 c 128,-1,50
 130 50 130 50 139 87 c 2,51,-1
 144 110 l 1,0,1
596 655 m 1,52,53
 548 536 548 536 492 420.5 c 128,-1,54
 436 305 436 305 371 190 c 1,55,-1
 388 190 l 1,56,57
 423 188 423 188 458 188 c 0,58,59
 521 188 521 188 586 195 c 0,60,61
 685 206 685 206 779.5 235 c 128,-1,62
 874 264 874 264 958.5 310.5 c 128,-1,63
 1043 357 1043 357 1111.5 421 c 128,-1,64
 1180 485 1180 485 1229 566.5 c 128,-1,65
 1278 648 1278 648 1301 747 c 0,66,67
 1314 803 1314 803 1314 857 c 0,68,69
 1314 879 1314 879 1312 902 c 0,70,71
 1304 977 1304 977 1275.5 1043.5 c 128,-1,72
 1247 1110 1247 1110 1201 1165 c 128,-1,73
 1155 1220 1155 1220 1098 1259.5 c 128,-1,74
 1041 1299 1041 1299 974.5 1321 c 128,-1,75
 908 1343 908 1343 838 1343 c 2,76,-1
 819 1343 l 1,77,-1
 812 1337 l 1,78,79
 794 1259 794 1259 768.5 1170.5 c 128,-1,80
 743 1082 743 1082 714 992.5 c 128,-1,81
 685 903 685 903 654.5 816.5 c 128,-1,82
 624 730 624 730 596 655 c 1,52,53
EndSplineSet
EndChar

StartChar: E
Encoding: 69 69 40
Width: 1144
GlyphClass: 2
Flags: W
LayerCount: 2
Fore
SplineSet
93 123 m 1,0,1
 145 195 145 195 184.5 271 c 128,-1,2
 224 347 224 347 257 425 c 128,-1,3
 290 503 290 503 319.5 582.5 c 128,-1,4
 349 662 349 662 381 742 c 1,5,6
 410 824 410 824 440 911.5 c 128,-1,7
 470 999 470 999 497.5 1087.5 c 128,-1,8
 525 1176 525 1176 549.5 1264 c 128,-1,9
 574 1352 574 1352 593 1435 c 1,10,11
 611 1471 611 1471 636 1484 c 128,-1,12
 661 1497 661 1497 692 1497 c 0,13,14
 765 1497 765 1497 835.5 1494 c 128,-1,15
 906 1491 906 1491 979 1491 c 0,16,17
 1061 1491 1061 1491 1143.5 1496 c 128,-1,18
 1226 1501 1226 1501 1308 1501 c 0,19,20
 1339 1501 1339 1501 1358 1484.5 c 128,-1,21
 1377 1468 1377 1468 1369 1433 c 0,22,23
 1360 1392 1360 1392 1329 1368 c 128,-1,24
 1298 1344 1298 1344 1257 1332 c 0,25,26
 1215 1318 1215 1318 1165 1316 c 0,27,28
 1145 1315 1145 1315 1125 1315 c 0,29,-1
 1106 1315 l 0,30,31
 1088 1316 1088 1316 1071 1316 c 0,32,33
 1025 1318 1025 1318 987.5 1321 c 128,-1,34
 950 1324 950 1324 929 1324 c 0,35,36
 879 1324 879 1324 828 1327 c 128,-1,37
 777 1330 777 1330 726 1330 c 2,38,-1
 719 1330 l 1,39,-1
 580 864 l 1,40,-1
 576 847 l 1,41,42
 616 847 616 847 656 850.5 c 128,-1,43
 696 854 696 854 736.5 858.5 c 128,-1,44
 777 863 777 863 817 866.5 c 128,-1,45
 857 870 857 870 897 870 c 0,46,47
 916 870 916 870 931.5 866 c 128,-1,48
 947 862 947 862 958 852.5 c 128,-1,49
 969 843 969 843 973 827.5 c 128,-1,50
 977 812 977 812 972 789 c 0,51,52
 963 751 963 751 933.5 730.5 c 128,-1,53
 904 710 904 710 871 708 c 2,54,-1
 532 680 l 1,55,-1
 511 675 l 1,56,57
 486 613 486 613 463 550 c 128,-1,58
 440 487 440 487 415.5 424 c 128,-1,59
 391 361 391 361 362.5 299 c 128,-1,60
 334 237 334 237 298 179 c 1,61,-1
 297 174 l 1,62,-1
 321 168 l 2,63,64
 325 168 325 168 340 167.5 c 128,-1,65
 355 167 355 167 373.5 166.5 c 128,-1,66
 392 166 392 166 409.5 165.5 c 128,-1,67
 427 165 427 165 438 165 c 0,68,69
 503 165 503 165 563.5 169 c 128,-1,70
 624 173 624 173 684.5 177.5 c 128,-1,71
 745 182 745 182 806 186 c 128,-1,72
 867 190 867 190 932 190 c 0,73,74
 967 190 967 190 980.5 166 c 128,-1,75
 994 142 994 142 986 107 c 0,76,77
 979 75 979 75 955.5 53 c 128,-1,78
 932 31 932 31 900 29 c 2,79,-1
 621 7 l 1,80,-1
 170 7 l 2,81,82
 150 7 150 7 132.5 13 c 128,-1,83
 115 19 115 19 103 31 c 128,-1,84
 91 43 91 43 87 60.5 c 128,-1,85
 83 78 83 78 88 101 c 2,86,-1
 93 123 l 1,0,1
EndSplineSet
EndChar

StartChar: F
Encoding: 70 70 41
Width: 1106
GlyphClass: 2
Flags: W
LayerCount: 2
Fore
SplineSet
76 103 m 1,0,1
 128 175 128 175 162 251.5 c 128,-1,2
 196 328 196 328 223.5 406.5 c 128,-1,3
 251 485 251 485 275.5 565 c 128,-1,4
 300 645 300 645 333 725 c 1,5,6
 362 808 362 808 392.5 898 c 128,-1,7
 423 988 423 988 451.5 1080 c 128,-1,8
 480 1172 480 1172 505 1262.5 c 128,-1,9
 530 1353 530 1353 549 1437 c 1,10,11
 568 1473 568 1473 592.5 1486 c 128,-1,12
 617 1499 617 1499 649 1499 c 0,13,14
 685 1499 685 1499 726 1498 c 128,-1,15
 767 1497 767 1497 808.5 1496 c 128,-1,16
 850 1495 850 1495 890.5 1494 c 128,-1,17
 931 1493 931 1493 968 1493 c 0,18,19
 1009 1493 1009 1493 1061.5 1495.5 c 128,-1,20
 1114 1498 1114 1498 1168.5 1501.5 c 128,-1,21
 1223 1505 1223 1505 1276 1507.5 c 128,-1,22
 1329 1510 1329 1510 1370 1510 c 0,23,24
 1402 1510 1402 1510 1420 1490 c 128,-1,25
 1438 1470 1438 1470 1430 1435 c 0,26,27
 1423 1404 1423 1404 1400.5 1382.5 c 128,-1,28
 1378 1361 1378 1361 1345.5 1347.5 c 128,-1,29
 1313 1334 1313 1334 1273 1327 c 128,-1,30
 1233 1320 1233 1320 1190 1318 c 0,31,32
 1160 1316 1160 1316 1129 1316 c 0,33,34
 1117 1316 1117 1316 1106 1316 c 0,35,36
 1063 1317 1063 1317 1026.5 1319 c 128,-1,37
 990 1321 990 1321 961.5 1323 c 128,-1,38
 933 1325 933 1325 919 1325 c 0,39,40
 894 1325 894 1325 863.5 1326 c 128,-1,41
 833 1327 833 1327 801 1328 c 128,-1,42
 769 1329 769 1329 738.5 1330 c 128,-1,43
 708 1331 708 1331 683 1331 c 2,44,-1
 675 1331 l 1,45,-1
 532 848 l 1,46,-1
 608 848 l 2,47,48
 633 848 633 848 664 849.5 c 128,-1,49
 695 851 695 851 726 853.5 c 128,-1,50
 757 856 757 856 787 857.5 c 128,-1,51
 817 859 817 859 842 859 c 0,52,53
 879 859 879 859 895 839.5 c 128,-1,54
 911 820 911 820 901 778 c 0,55,56
 893 744 893 744 870.5 726 c 128,-1,57
 848 708 848 708 819.5 699 c 128,-1,58
 791 690 791 690 760.5 688.5 c 128,-1,59
 730 687 730 687 708 686 c 0,60,61
 701 686 701 686 682.5 685.5 c 128,-1,62
 664 685 664 685 640.5 684.5 c 128,-1,63
 617 684 617 684 591 683 c 128,-1,64
 565 682 565 682 541.5 681.5 c 128,-1,65
 518 681 518 681 499 680.5 c 128,-1,66
 480 680 480 680 473 680 c 1,67,68
 468 668 468 668 457.5 643.5 c 128,-1,69
 447 619 447 619 433.5 588.5 c 128,-1,70
 420 558 420 558 404 524.5 c 128,-1,71
 388 491 388 491 375 461 c 128,-1,72
 362 431 362 431 350.5 407 c 128,-1,73
 339 383 339 383 334 372 c 0,74,75
 325 353 325 353 314.5 318 c 128,-1,76
 304 283 304 283 290.5 242 c 128,-1,77
 277 201 277 201 260.5 158.5 c 128,-1,78
 244 116 244 116 224 81 c 128,-1,79
 204 46 204 46 179.5 24 c 128,-1,80
 155 2 155 2 126 2 c 0,81,82
 93 2 93 2 77.5 22.5 c 128,-1,83
 62 43 62 43 71 81 c 2,84,-1
 76 103 l 1,0,1
EndSplineSet
EndChar

StartChar: G
Encoding: 71 71 42
Width: 1233
GlyphClass: 2
Flags: W
LayerCount: 2
Fore
SplineSet
232 820 m 0,0,1
 271 988 271 988 347.5 1113 c 128,-1,2
 424 1238 424 1238 527.5 1322.5 c 128,-1,3
 631 1407 631 1407 756 1453.5 c 128,-1,4
 881 1500 881 1500 1017 1512 c 0,5,6
 1030 1514 1030 1514 1049 1514 c 0,7,8
 1069 1514 1069 1514 1090 1512 c 0,9,10
 1136 1509 1136 1509 1187 1500 c 128,-1,11
 1238 1491 1238 1491 1289.5 1475 c 128,-1,12
 1341 1459 1341 1459 1380 1435 c 0,13,14
 1419 1412 1419 1412 1440 1378 c 0,15,16
 1454 1355 1454 1355 1454 1328 c 0,17,18
 1454 1315 1454 1315 1451 1301 c 0,19,20
 1442 1263 1442 1263 1416 1242 c 128,-1,21
 1390 1221 1390 1221 1361 1221 c 2,22,-1
 1337 1221 l 1,23,24
 1282 1246 1282 1246 1243 1270 c 128,-1,25
 1204 1294 1204 1294 1165 1312 c 128,-1,26
 1126 1330 1126 1330 1083 1338 c 0,27,28
 1062 1342 1062 1342 1034 1342 c 0,29,30
 1028 1342 1028 1342 1023 1342 c 0,31,32
 1000 1342 1000 1342 972 1340 c 0,33,34
 877 1331 877 1331 783.5 1297 c 128,-1,35
 690 1263 690 1263 609 1200 c 128,-1,36
 528 1137 528 1137 466.5 1043 c 128,-1,37
 405 949 405 949 375 820 c 0,38,39
 354 730 354 730 338 644 c 0,40,41
 322 558 322 558 316 483 c 0,42,43
 314 452 314 452 313 424 c 0,44,45
 313 383 313 383 318 346 c 0,46,47
 326 284 326 284 354.5 239.5 c 128,-1,48
 383 195 383 195 434 170.5 c 128,-1,49
 485 146 485 146 565 146 c 0,50,51
 581 146 581 146 625 153.5 c 128,-1,52
 669 161 669 161 726.5 175 c 128,-1,53
 784 189 784 189 848 208 c 128,-1,54
 912 227 912 227 966.5 249.5 c 128,-1,55
 1021 272 1021 272 1058.5 297 c 128,-1,56
 1096 322 1096 322 1102 348 c 2,57,-1
 1171 645 l 1,58,59
 1160 646 1160 646 1132 649.5 c 128,-1,60
 1104 653 1104 653 1073.5 657 c 128,-1,61
 1043 661 1043 661 1015 664.5 c 128,-1,62
 987 668 987 668 977 669 c 0,63,64
 957 672 957 672 931.5 677.5 c 128,-1,65
 906 683 906 683 885 694 c 128,-1,66
 864 705 864 705 852.5 725.5 c 128,-1,67
 841 746 841 746 849 779 c 0,68,69
 853 795 853 795 861.5 810.5 c 128,-1,70
 870 826 870 826 882 838 c 128,-1,71
 894 850 894 850 908 857.5 c 128,-1,72
 922 865 922 865 937 865 c 2,73,-1
 943 865 l 1,74,75
 948 864 948 864 962 860.5 c 128,-1,76
 976 857 976 857 992 853 c 128,-1,77
 1008 849 1008 849 1022 845.5 c 128,-1,78
 1036 842 1036 842 1041 841 c 2,79,-1
 1294 817 l 2,80,81
 1301 816 1301 816 1310.5 811 c 128,-1,82
 1320 806 1320 806 1327.5 798 c 128,-1,83
 1335 790 1335 790 1339 779.5 c 128,-1,84
 1343 769 1343 769 1340 758 c 2,85,-1
 1188 98 l 2,86,87
 1185 85 1185 85 1175 74 c 128,-1,88
 1165 63 1165 63 1153 55.5 c 128,-1,89
 1141 48 1141 48 1128.5 43.5 c 128,-1,90
 1116 39 1116 39 1107 39 c 0,91,92
 1091 39 1091 39 1080.5 45.5 c 128,-1,93
 1070 52 1070 52 1064 62.5 c 128,-1,94
 1058 73 1058 73 1054.5 87 c 128,-1,95
 1051 101 1051 101 1049 116 c 1,96,97
 994 83 994 83 925 56.5 c 128,-1,98
 856 30 856 30 785 11.5 c 128,-1,99
 714 -7 714 -7 645.5 -16.5 c 128,-1,100
 577 -26 577 -26 522 -26 c 0,101,102
 421 -26 421 -26 353 5 c 128,-1,103
 285 36 285 36 243.5 92 c 128,-1,104
 202 148 202 148 186 226 c 0,105,106
 171 298 171 298 170 382 c 0,107,108
 170 390 170 390 170 398 c 0,109,110
 172 492 172 492 189 599 c 128,-1,111
 206 706 206 706 232 820 c 0,0,1
EndSplineSet
EndChar

StartChar: H
Encoding: 72 72 43
Width: 1227
GlyphClass: 2
Flags: W
LayerCount: 2
Fore
SplineSet
120 77 m 0,0,1
 126 105 126 105 139 132 c 128,-1,2
 152 159 152 159 167 185 c 128,-1,3
 182 211 182 211 197 237.5 c 128,-1,4
 212 264 212 264 224 292 c 0,5,6
 265 391 265 391 293.5 475 c 128,-1,7
 322 559 322 559 344 637 c 128,-1,8
 366 715 366 715 385.5 791 c 128,-1,9
 405 867 405 867 429 949 c 2,10,-1
 567 1436 l 2,11,12
 571 1450 571 1450 581 1460.5 c 128,-1,13
 591 1471 591 1471 604 1478 c 128,-1,14
 617 1485 617 1485 630 1488.5 c 128,-1,15
 643 1492 643 1492 654 1492 c 0,16,17
 680 1492 680 1492 696.5 1478 c 128,-1,18
 713 1464 713 1464 715 1436 c 1,19,-1
 692 1334 l 2,20,21
 677 1270 677 1270 663.5 1218.5 c 128,-1,22
 650 1167 650 1167 635.5 1115.5 c 128,-1,23
 621 1064 621 1064 602.5 1005.5 c 128,-1,24
 584 947 584 947 557 869 c 1,25,-1
 551 841 l 1,26,27
 619 841 619 841 693 843 c 128,-1,28
 767 845 767 845 842 847.5 c 128,-1,29
 917 850 917 850 991 852 c 0,30,31
 1013 852 1013 852 1034.5 852 c 128,-1,32
 1056 852 1056 852 1077 852 c 0,33,34
 1105 852 1105 852 1132 852 c 1,35,-1
 1141 869 l 2,36,37
 1142 871 1142 871 1148.5 890 c 128,-1,38
 1155 909 1155 909 1164 938 c 128,-1,39
 1173 967 1173 967 1184 1002.5 c 128,-1,40
 1195 1038 1195 1038 1206.5 1074 c 128,-1,41
 1218 1110 1218 1110 1227.5 1142.5 c 128,-1,42
 1237 1175 1237 1175 1243 1198 c 0,43,44
 1247 1210 1247 1210 1255 1239.5 c 128,-1,45
 1263 1269 1263 1269 1271.5 1302.5 c 128,-1,46
 1280 1336 1280 1336 1287 1365.5 c 128,-1,47
 1294 1395 1294 1395 1297 1407 c 0,48,49
 1307 1442 1307 1442 1332.5 1467 c 128,-1,50
 1358 1492 1358 1492 1393 1492 c 0,51,52
 1423 1492 1423 1492 1438.5 1474 c 128,-1,53
 1454 1456 1454 1456 1454 1424 c 1,54,-1
 1437 1351 l 2,55,56
 1432 1331 1432 1331 1419 1281.5 c 128,-1,57
 1406 1232 1406 1232 1385 1161 c 128,-1,58
 1364 1090 1364 1090 1338 1003 c 128,-1,59
 1312 916 1312 916 1282 821 c 128,-1,60
 1252 726 1252 726 1218.5 629 c 128,-1,61
 1185 532 1185 532 1150.5 441 c 128,-1,62
 1116 350 1116 350 1081.5 270.5 c 128,-1,63
 1047 191 1047 191 1014.5 131.5 c 128,-1,64
 982 72 982 72 952 37.5 c 128,-1,65
 922 3 922 3 897 3 c 0,66,67
 865 3 865 3 847.5 23 c 128,-1,68
 830 43 830 43 838 79 c 0,69,70
 844 103 844 103 860 149.5 c 128,-1,71
 876 196 876 196 898.5 254 c 128,-1,72
 921 312 921 312 946.5 376.5 c 128,-1,73
 972 441 972 441 996.5 500.5 c 128,-1,74
 1021 560 1021 560 1041 609.5 c 128,-1,75
 1061 659 1061 659 1074 688 c 1,76,-1
 1071 688 l 1,77,-1
 1068 688 l 1,78,79
 1047 687 1047 687 1002.5 686 c 128,-1,80
 958 685 958 685 900.5 683 c 128,-1,81
 843 681 843 681 780.5 679.5 c 128,-1,82
 718 678 718 678 660.5 676 c 128,-1,83
 603 674 603 674 558.5 673 c 128,-1,84
 514 672 514 672 493 671 c 1,85,86
 484 648 484 648 473.5 607.5 c 128,-1,87
 463 567 463 567 449 515.5 c 128,-1,88
 435 464 435 464 418 406.5 c 128,-1,89
 401 349 401 349 381 292 c 128,-1,90
 361 235 361 235 337 182.5 c 128,-1,91
 313 130 313 130 285 90 c 128,-1,92
 257 50 257 50 224.5 26.5 c 128,-1,93
 192 3 192 3 155 3 c 0,94,95
 122 3 122 3 117 22.5 c 128,-1,96
 112 42 112 42 120 77 c 0,0,1
EndSplineSet
EndChar

StartChar: I
Encoding: 73 73 44
Width: 795
GlyphClass: 2
Flags: W
LayerCount: 2
Fore
SplineSet
115 5 m 0,0,1
 102 7 102 7 93.5 18 c 128,-1,2
 85 29 85 29 80 44 c 128,-1,3
 75 59 75 59 74 75.5 c 128,-1,4
 73 92 73 92 76 106 c 0,5,6
 78 116 78 116 85 129.5 c 128,-1,7
 92 143 92 143 101.5 154 c 128,-1,8
 111 165 111 165 122.5 173 c 128,-1,9
 134 181 134 181 146 181 c 2,10,-1
 303 181 l 1,11,-1
 434 509 l 1,12,-1
 672 1320 l 1,13,-1
 535 1331 l 2,14,15
 521 1332 521 1332 512.5 1340 c 128,-1,16
 504 1348 504 1348 499.5 1359.5 c 128,-1,17
 495 1371 495 1371 494.5 1385 c 128,-1,18
 494 1399 494 1399 497 1411 c 0,19,20
 499 1421 499 1421 506 1434.5 c 128,-1,21
 513 1448 513 1448 522.5 1459 c 128,-1,22
 532 1470 532 1470 543 1478 c 128,-1,23
 554 1486 554 1486 566 1486 c 2,24,-1
 613 1486 l 2,25,26
 666 1486 666 1486 725 1484 c 128,-1,27
 784 1482 784 1482 842 1479.5 c 128,-1,28
 900 1477 900 1477 953 1474.5 c 128,-1,29
 1006 1472 1006 1472 1049 1470 c 1,30,31
 1072 1461 1072 1461 1078 1441.5 c 128,-1,32
 1084 1422 1084 1422 1078 1395 c 0,33,34
 1075 1383 1075 1383 1069 1371 c 128,-1,35
 1063 1359 1063 1359 1053.5 1348.5 c 128,-1,36
 1044 1338 1044 1338 1032.5 1331.5 c 128,-1,37
 1021 1325 1021 1325 1008 1325 c 2,38,-1
 829 1325 l 1,39,-1
 626 625 l 1,40,-1
 461 181 l 1,41,-1
 460 178 l 1,42,-1
 460 175 l 2,43,44
 460 173 460 173 461 170 c 0,45,46
 461 168 461 168 463 167 c 1,47,-1
 629 167 l 2,48,49
 640 167 640 167 647 158.5 c 128,-1,50
 654 150 654 150 657 137.5 c 128,-1,51
 660 125 660 125 659.5 111.5 c 128,-1,52
 659 98 659 98 657 89 c 0,53,54
 650 58 650 58 631.5 35.5 c 128,-1,55
 613 13 613 13 584 5 c 1,56,57
 578 5 578 5 562 3.5 c 128,-1,58
 546 2 546 2 527.5 0 c 128,-1,59
 509 -2 509 -2 493 -3.5 c 128,-1,60
 477 -5 477 -5 471 -5 c 0,61,62
 418 -6 418 -6 379 -6 c 0,63,64
 366 -6 366 -6 353 -6 c 0,65,66
 327 -6 327 -6 301 -5 c 0,67,68
 262 -4 262 -4 218.5 -2 c 128,-1,69
 175 0 175 0 115 5 c 0,0,1
EndSplineSet
EndChar

StartChar: J
Encoding: 74 74 45
Width: 876
GlyphClass: 2
Flags: W
LayerCount: 2
Fore
SplineSet
88 321 m 4,0,1
 97 358 97 358 121 376.5 c 132,-1,2
 145 395 145 395 178 395 c 4,3,4
 209 395 209 395 228 377 c 132,-1,5
 247 359 247 359 261 332 c 132,-1,6
 275 305 275 305 286 273 c 132,-1,7
 297 241 297 241 312 214 c 132,-1,8
 327 187 327 187 347.5 169 c 132,-1,9
 368 151 368 151 402 151 c 4,10,11
 452 151 452 151 492 181.5 c 132,-1,12
 532 212 532 212 562.5 260 c 132,-1,13
 593 308 593 308 616.5 367 c 132,-1,14
 640 426 640 426 656 483 c 4,15,16
 670 532 670 532 680 575 c 0,17,18
 681 582 681 582 683 590 c 4,19,20
 695 640 695 640 701 667 c 6,21,-1
 849 1308 l 6,22,23
 851 1315 851 1315 828 1315 c 4,24,25
 808 1315 808 1315 774 1314 c 4,26,27
 757 1314 757 1314 739.5 1314 c 128,-1,28
 722 1314 722 1314 702 1314 c 4,29,30
 664 1315 664 1315 633 1324 c 132,-1,31
 602 1333 602 1333 585 1353 c 132,-1,32
 568 1373 568 1373 577 1411 c 260,33,34
 586 1449 586 1449 613 1469.5 c 132,-1,35
 640 1490 640 1490 675 1490 c 4,36,37
 788 1490 788 1490 903 1484 c 132,-1,38
 1018 1478 1018 1478 1130 1473 c 5,39,40
 1172 1460 1172 1460 1172 1417 c 0,41,42
 1172 1405 1172 1405 1169 1391 c 4,43,44
 1166 1380 1166 1380 1160.5 1367 c 132,-1,45
 1155 1354 1155 1354 1146.5 1342.5 c 132,-1,46
 1138 1331 1138 1331 1127.5 1323 c 132,-1,47
 1117 1315 1117 1315 1104 1314 c 6,48,-1
 1006 1303 l 5,49,-1
 809 492 l 6,50,51
 795 437 795 437 774.5 378.5 c 132,-1,52
 754 320 754 320 726 264 c 132,-1,53
 698 208 698 208 661 157.5 c 132,-1,54
 624 107 624 107 579.5 69 c 132,-1,55
 535 31 535 31 482 9 c 132,-1,56
 429 -13 429 -13 367 -13 c 4,57,58
 333 -13 333 -13 296 1 c 132,-1,59
 259 15 259 15 225 39.5 c 132,-1,60
 191 64 191 64 162.5 96.5 c 132,-1,61
 134 129 134 129 114 166.5 c 132,-1,62
 94 204 94 204 86 244 c 4,63,64
 83 262 83 262 83 279 c 0,65,66
 83 300 83 300 88 321 c 4,0,1
EndSplineSet
EndChar

StartChar: K
Encoding: 75 75 46
Width: 1197
GlyphClass: 2
Flags: W
LayerCount: 2
Fore
SplineSet
515 701 m 1,0,1
 510 689 510 689 501.5 664.5 c 128,-1,2
 493 640 493 640 481 609 c 128,-1,3
 469 578 469 578 456 544 c 128,-1,4
 443 510 443 510 431 479.5 c 128,-1,5
 419 449 419 449 409.5 424.5 c 128,-1,6
 400 400 400 400 395 389 c 0,7,8
 387 372 387 372 375 337 c 128,-1,9
 363 302 363 302 346.5 260 c 128,-1,10
 330 218 330 218 308.5 173 c 128,-1,11
 287 128 287 128 262.5 91.5 c 128,-1,12
 238 55 238 55 209.5 31.5 c 128,-1,13
 181 8 181 8 149 8 c 0,14,15
 114 8 114 8 100 32.5 c 128,-1,16
 86 57 86 57 94 93 c 2,17,-1
 98 110 l 1,18,-1
 184 275 l 1,19,-1
 325 611 l 2,20,21
 328 619 328 619 338 648 c 128,-1,22
 348 677 348 677 361.5 718.5 c 128,-1,23
 375 760 375 760 390.5 808.5 c 128,-1,24
 406 857 406 857 421.5 904.5 c 128,-1,25
 437 952 437 952 450 992.5 c 128,-1,26
 463 1033 463 1033 471 1059 c 0,27,28
 475 1073 475 1073 482.5 1101 c 128,-1,29
 490 1129 490 1129 499 1164 c 128,-1,30
 508 1199 508 1199 518.5 1238.5 c 128,-1,31
 529 1278 529 1278 538 1313 c 128,-1,32
 547 1348 547 1348 554 1376 c 128,-1,33
 561 1404 561 1404 564 1418 c 1,34,35
 577 1447 577 1447 599 1466.5 c 128,-1,36
 621 1486 621 1486 651 1486 c 0,37,38
 674 1486 674 1486 688 1477.5 c 128,-1,39
 702 1469 702 1469 708.5 1454 c 128,-1,40
 715 1439 715 1439 714 1419.5 c 128,-1,41
 713 1400 713 1400 708 1378 c 0,42,43
 698 1335 698 1335 684 1280 c 128,-1,44
 670 1225 670 1225 656.5 1172.5 c 128,-1,45
 643 1120 643 1120 631 1076.5 c 128,-1,46
 619 1033 619 1033 614 1014 c 1,47,48
 785 1141 785 1141 961 1250.5 c 128,-1,49
 1137 1360 1137 1360 1319 1457 c 1,50,51
 1336 1470 1336 1470 1348 1472 c 128,-1,52
 1360 1474 1360 1474 1378 1474 c 0,53,54
 1411 1474 1411 1474 1428 1452.5 c 128,-1,55
 1445 1431 1445 1431 1436 1395 c 0,56,57
 1433 1380 1433 1380 1422.5 1360.5 c 128,-1,58
 1412 1341 1412 1341 1396 1332 c 2,59,-1
 961 1077 l 1,60,-1
 666 872 l 1,61,62
 654 866 654 866 652 858 c 2,63,-1
 651 855 l 1,64,65
 693 814 693 814 742 762.5 c 128,-1,66
 791 711 791 711 838 651 c 128,-1,67
 885 591 885 591 927 524 c 0,68,69
 969 456 969 456 996 384 c 0,70,71
 1024 312 1024 312 1032 235 c 0,72,73
 1035 210 1035 210 1034 185 c 0,74,75
 1034 132 1034 132 1022 79 c 0,76,77
 1014 43 1014 43 985.5 22.5 c 128,-1,78
 957 2 957 2 927 2 c 0,79,80
 917 2 917 2 903.5 28.5 c 128,-1,81
 890 55 890 55 872 99 c 128,-1,82
 854 143 854 143 833 200.5 c 128,-1,83
 812 258 812 258 787 320.5 c 128,-1,84
 762 383 762 383 732.5 445.5 c 128,-1,85
 703 508 703 508 670.5 562 c 128,-1,86
 638 616 638 616 601.5 657 c 128,-1,87
 565 698 565 698 524 718 c 1,88,-1
 515 701 l 1,0,1
EndSplineSet
EndChar

StartChar: L
Encoding: 76 76 47
Width: 1016
GlyphClass: 2
Flags: W
LayerCount: 2
Fore
SplineSet
54 81 m 0,0,1
 61 112 61 112 78.5 150 c 128,-1,2
 96 188 96 188 116 226 c 128,-1,3
 136 264 136 264 156 299.5 c 128,-1,4
 176 335 176 335 190 363 c 0,5,6
 223 427 223 427 260 505 c 128,-1,7
 297 583 297 583 330.5 663 c 128,-1,8
 364 743 364 743 392.5 820 c 128,-1,9
 421 897 421 897 438 960 c 2,10,-1
 562 1406 l 2,11,12
 567 1422 567 1422 576 1437 c 128,-1,13
 585 1452 585 1452 597.5 1464 c 128,-1,14
 610 1476 610 1476 624.5 1483 c 128,-1,15
 639 1490 639 1490 655 1490 c 0,16,17
 667 1490 667 1490 679.5 1485 c 128,-1,18
 692 1480 692 1480 702 1471 c 128,-1,19
 712 1462 712 1462 717 1450 c 128,-1,20
 722 1438 722 1438 718 1423 c 2,21,-1
 683 1270 l 1,22,-1
 551 836 l 2,23,24
 528 760 528 760 496 676 c 128,-1,25
 464 592 464 592 427 507.5 c 128,-1,26
 390 423 390 423 348.5 341 c 128,-1,27
 307 259 307 259 264 186 c 1,28,-1
 270 186 l 1,29,30
 317 194 317 194 363 198 c 0,31,32
 407 202 407 202 451 202 c 0,33,34
 466 202 466 202 481 202 c 0,35,36
 511 202 511 202 539 201 c 0,37,38
 582 200 582 200 629 200 c 0,39,40
 652 200 652 200 694 201 c 0,41,42
 711 201 711 201 727 201 c 0,43,44
 753 200 753 200 782 200 c 0,45,46
 829 198 829 198 877.5 193.5 c 128,-1,47
 926 189 926 189 963.5 176.5 c 128,-1,48
 1001 164 1001 164 1021.5 143 c 128,-1,49
 1042 122 1042 122 1034 89 c 0,50,51
 1026 53 1026 53 1005 39.5 c 128,-1,52
 984 26 984 26 952 26 c 0,53,54
 863 26 863 26 768 25.5 c 128,-1,55
 673 25 673 25 576 25 c 0,56,57
 513 25 513 25 455 26 c 0,58,59
 416 27 416 27 379 27 c 0,60,61
 358 26 358 26 340 26 c 0,62,63
 282 26 282 26 224.5 23 c 128,-1,64
 167 20 167 20 104 13 c 1,65,-1
 89 13 l 2,66,67
 56 13 56 13 51 29 c 128,-1,68
 46 45 46 45 54 81 c 0,0,1
EndSplineSet
EndChar

StartChar: M
Encoding: 77 77 48
Width: 1597
GlyphClass: 2
Flags: W
LayerCount: 2
Fore
SplineSet
1282 421 m 2,0,1
 1284 427 1284 427 1293.5 461 c 128,-1,2
 1303 495 1303 495 1317 546 c 128,-1,3
 1331 597 1331 597 1347.5 659 c 128,-1,4
 1364 721 1364 721 1380.5 782.5 c 128,-1,5
 1397 844 1397 844 1411 899 c 128,-1,6
 1425 954 1425 954 1435 991 c 1,7,-1
 1462 1110 l 1,8,-1
 1490 1230 l 1,9,-1
 1043 793 l 2,10,11
 1017 767 1017 767 995 751 c 128,-1,12
 973 735 973 735 941 735 c 0,13,14
 926 735 926 735 910.5 742 c 128,-1,15
 895 749 895 749 891 764 c 0,16,17
 888 774 888 774 881 795 c 128,-1,18
 874 816 874 816 865.5 842 c 128,-1,19
 857 868 857 868 847.5 896.5 c 128,-1,20
 838 925 838 925 829.5 950.5 c 128,-1,21
 821 976 821 976 814.5 996 c 128,-1,22
 808 1016 808 1016 805 1026 c 0,23,24
 800 1040 800 1040 790 1065 c 128,-1,25
 780 1090 780 1090 769 1115 c 128,-1,26
 758 1140 758 1140 749 1160 c 128,-1,27
 740 1180 740 1180 738 1183 c 2,28,-1
 728 1198 l 1,29,-1
 540 607 l 2,30,31
 538 603 538 603 531 585.5 c 128,-1,32
 524 568 524 568 514.5 543 c 128,-1,33
 505 518 505 518 492.5 488 c 128,-1,34
 480 458 480 458 468.5 429.5 c 128,-1,35
 457 401 457 401 446.5 375.5 c 128,-1,36
 436 350 436 350 429 334 c 0,37,38
 421 316 421 316 409.5 286.5 c 128,-1,39
 398 257 398 257 383 223 c 128,-1,40
 368 189 368 189 349.5 154 c 128,-1,41
 331 119 331 119 309.5 90.5 c 128,-1,42
 288 62 288 62 263 44 c 128,-1,43
 238 26 238 26 211 26 c 0,44,45
 175 26 175 26 160.5 47 c 128,-1,46
 146 68 146 68 155 107 c 2,47,-1
 160 130 l 1,48,49
 186 176 186 176 212.5 227 c 128,-1,50
 239 278 239 278 263 330.5 c 128,-1,51
 287 383 287 383 309 434.5 c 128,-1,52
 331 486 331 486 350 532 c 1,53,54
 441 764 441 764 512 996 c 0,55,56
 576 1206 576 1206 626 1421 c 0,57,58
 631 1444 631 1444 636 1466 c 1,59,60
 651 1497 651 1497 676.5 1516.5 c 128,-1,61
 702 1536 702 1536 733 1536 c 0,62,63
 753 1536 753 1536 766.5 1524 c 128,-1,64
 780 1512 780 1512 789 1495 c 1,65,-1
 970 1090 l 1,66,-1
 1014 971 l 1,67,-1
 1571 1513 l 2,68,69
 1592 1533 1592 1533 1607 1540 c 128,-1,70
 1622 1547 1622 1547 1644 1547 c 0,71,72
 1657 1547 1657 1547 1670.5 1543 c 128,-1,73
 1684 1539 1684 1539 1694 1531.5 c 128,-1,74
 1704 1524 1704 1524 1709 1511.5 c 128,-1,75
 1714 1499 1714 1499 1710 1483 c 2,76,-1
 1642 1189 l 1,77,-1
 1408 311 l 2,78,79
 1404 297 1404 297 1397 268.5 c 128,-1,80
 1390 240 1390 240 1380 206 c 128,-1,81
 1370 172 1370 172 1355.5 135.5 c 128,-1,82
 1341 99 1341 99 1322 69.5 c 128,-1,83
 1303 40 1303 40 1279.5 21 c 128,-1,84
 1256 2 1256 2 1228 2 c 0,85,86
 1219 2 1219 2 1206.5 6 c 128,-1,87
 1194 10 1194 10 1184 16.5 c 128,-1,88
 1174 23 1174 23 1168 33 c 128,-1,89
 1162 43 1162 43 1165 55 c 2,90,-1
 1180 119 l 1,91,-1
 1282 421 l 2,0,1
EndSplineSet
EndChar

StartChar: N
Encoding: 78 78 49
Width: 1551
GlyphClass: 2
Flags: W
LayerCount: 2
Fore
SplineSet
831 1157 m 1,0,-1
 823 1142 l 1,1,-1
 646 591 l 2,2,3
 644 586 644 586 637 568 c 0,4,5
 630 551 630 551 621 526 c 0,6,7
 611 501 611 501 599 472 c 0,8,9
 586 442 586 442 576 413 c 0,10,11
 564 384 564 384 553 359 c 0,12,13
 542 334 542 334 535 318 c 0,14,15
 527 301 527 301 516 271 c 0,16,17
 499 226 499 226 490 207 c 0,18,19
 471 164 471 164 456 138 c 0,20,21
 435 101 435 101 415 74 c 0,22,23
 394 46 394 46 369.5 28 c 128,-1,24
 345 10 345 10 318 10 c 0,25,26
 282 10 282 10 267 31 c 128,-1,27
 252 52 252 52 261 91 c 2,28,-1
 267 114 l 1,29,30
 301 173 301 173 320 211 c 0,31,32
 348 267 348 267 369 314 c 0,33,34
 403 387 403 387 416 418 c 0,35,36
 437 469 437 469 456 515 c 1,37,38
 545 743 545 743 618 980 c 0,39,40
 681 1185 681 1185 732 1405 c 0,41,42
 742 1450 l 1,43,44
 756 1480 756 1480 782.5 1500 c 128,-1,45
 809 1520 809 1520 839 1520 c 0,46,47
 859 1520 859 1520 869 1512 c 0,48,49
 881 1503 881 1503 890 1490 c 0,50,51
 902 1473 902 1473 906 1462 c 0,52,53
 912 1446 912 1446 917 1433 c 0,54,55
 925 1411 925 1411 938 1376 c 0,56,57
 951 1340 951 1340 965 1306 c 0,58,59
 978 1272 978 1272 987 1246 c 0,60,61
 996 1220 996 1220 997 1218 c 2,62,-1
 1137 631 l 1,63,64
 1139 618 1139 618 1144.5 586 c 128,-1,65
 1150 554 1150 554 1156.5 518 c 128,-1,66
 1163 482 1163 482 1169 450 c 128,-1,67
 1175 418 1175 418 1176 405 c 0,68,69
 1177 401 1177 401 1178 399 c 0,70,71
 1180 394 1180 394 1179 393 c 2,72,-1
 1190 416 l 1,73,-1
 1548 1450 l 2,74,75
 1561 1488 1561 1488 1587 1510 c 0,76,77
 1611 1531 1611 1531 1647.5 1531 c 128,-1,78
 1684 1531 1684 1531 1698 1508 c 128,-1,79
 1712 1485 1712 1485 1703 1447 c 2,80,-1
 1699 1427 l 1,81,-1
 1246 143 l 2,82,83
 1237 117 1237 117 1226 94 c 0,84,85
 1215 72 1215 72 1200 50 c 0,86,87
 1184 27 1184 27 1166 16 c 0,88,89
 1146 4 1146 4 1119 4 c 0,90,91
 1097 4 1097 4 1078.5 16 c 128,-1,92
 1060 28 1060 28 1057 50 c 1,93,-1
 950 689 l 1,94,-1
 831 1157 l 1,0,-1
EndSplineSet
EndChar

StartChar: O
Encoding: 79 79 50
Width: 1393
GlyphClass: 2
Flags: W
LayerCount: 2
Fore
SplineSet
282 767 m 0,0,1
 303 859 303 859 347.5 951.5 c 128,-1,2
 392 1044 392 1044 454 1128.5 c 128,-1,3
 516 1213 516 1213 592.5 1286.5 c 128,-1,4
 669 1360 669 1360 754.5 1413.5 c 128,-1,5
 840 1467 840 1467 931 1498 c 128,-1,6
 1022 1529 1022 1529 1113 1529 c 0,7,8
 1203 1529 1203 1529 1269.5 1491.5 c 128,-1,9
 1336 1454 1336 1454 1382 1391 c 128,-1,10
 1428 1328 1428 1328 1454 1245 c 128,-1,11
 1480 1162 1480 1162 1489 1072 c 0,12,13
 1494 1018 1494 1018 1494 962 c 0,14,15
 1494 924 1494 924 1492 888 c 0,16,17
 1486 796 1486 796 1467 713 c 0,18,19
 1449 637 1449 637 1414 557 c 128,-1,20
 1379 477 1379 477 1330.5 400.5 c 128,-1,21
 1282 324 1282 324 1220.5 254 c 128,-1,22
 1159 184 1159 184 1088.5 128 c 128,-1,23
 1018 72 1018 72 940 33.5 c 128,-1,24
 862 -5 862 -5 781 -19 c 1,25,-1
 699 -19 l 2,26,27
 541 -19 541 -19 442 42.5 c 128,-1,28
 343 104 343 104 295 210 c 0,29,30
 248 316 248 316 246 460 c 0,31,32
 246 465 246 465 245 471 c 0,33,34
 245 610 245 610 282 767 c 0,0,1
439 761 m 0,35,36
 410 636 410 636 408 525 c 0,37,38
 408 519 408 519 408 513 c 0,39,40
 408 410 408 410 440 331 c 0,41,42
 474 248 474 248 546 200 c 128,-1,43
 618 152 618 152 739 152 c 0,44,45
 804 152 804 152 867.5 176.5 c 128,-1,46
 931 201 931 201 989.5 243 c 128,-1,47
 1048 285 1048 285 1099.5 340.5 c 128,-1,48
 1151 396 1151 396 1193 458 c 128,-1,49
 1235 520 1235 520 1264 584.5 c 128,-1,50
 1293 649 1293 649 1307 710 c 0,51,52
 1320 768 1320 768 1326 838 c 0,53,54
 1330 879 1330 879 1330 921 c 0,55,56
 1330 950 1330 950 1328 979 c 0,57,58
 1324 1050 1324 1050 1308 1117.5 c 128,-1,59
 1292 1185 1292 1185 1261.5 1237 c 128,-1,60
 1231 1289 1231 1289 1184 1320.5 c 128,-1,61
 1137 1352 1137 1352 1070 1352 c 0,62,63
 1001 1352 1001 1352 931.5 1327.5 c 128,-1,64
 862 1303 862 1303 797.5 1260 c 128,-1,65
 733 1217 733 1217 675 1159.5 c 128,-1,66
 617 1102 617 1102 569.5 1036 c 128,-1,67
 522 970 522 970 488.5 899.5 c 128,-1,68
 455 829 455 829 439 761 c 0,35,36
EndSplineSet
EndChar

StartChar: P
Encoding: 80 80 51
Width: 1189
GlyphClass: 2
Flags: W
LayerCount: 2
Fore
SplineSet
210 116 m 1,0,-1
 332 372 l 2,1,2
 386 484 386 484 428.5 601 c 128,-1,3
 471 718 471 718 506 837.5 c 128,-1,4
 541 957 541 957 570 1076 c 128,-1,5
 599 1195 599 1195 625 1310 c 1,6,-1
 612 1310 l 2,7,8
 580 1310 580 1310 549 1302 c 128,-1,9
 518 1294 518 1294 487.5 1284.5 c 128,-1,10
 457 1275 457 1275 427.5 1267 c 128,-1,11
 398 1259 398 1259 368 1259 c 0,12,13
 333 1259 333 1259 317.5 1278.5 c 128,-1,14
 302 1298 302 1298 311 1336 c 0,15,16
 320 1375 320 1375 360 1402 c 128,-1,17
 400 1429 400 1429 456.5 1447 c 128,-1,18
 513 1465 513 1465 579.5 1475.5 c 128,-1,19
 646 1486 646 1486 709 1491 c 128,-1,20
 772 1496 772 1496 824.5 1497 c 128,-1,21
 877 1498 877 1498 905 1498 c 0,22,23
 965 1498 965 1498 1033.5 1492.5 c 128,-1,24
 1102 1487 1102 1487 1168.5 1472 c 128,-1,25
 1235 1457 1235 1457 1293.5 1430.5 c 128,-1,26
 1352 1404 1352 1404 1392 1361 c 128,-1,27
 1432 1318 1432 1318 1448 1256 c 0,28,29
 1455 1228 1455 1228 1454 1197 c 0,30,31
 1454 1158 1454 1158 1444 1111 c 0,32,33
 1423 1021 1423 1021 1368.5 959 c 128,-1,34
 1314 897 1314 897 1242 858 c 128,-1,35
 1170 819 1170 819 1090.5 799.5 c 128,-1,36
 1011 780 1011 780 939 776 c 2,37,-1
 634 759 l 1,38,-1
 467 315 l 2,39,40
 461 299 461 299 450.5 270.5 c 128,-1,41
 440 242 440 242 425.5 208.5 c 128,-1,42
 411 175 411 175 393.5 140.5 c 128,-1,43
 376 106 376 106 355 78 c 128,-1,44
 334 50 334 50 310 32 c 128,-1,45
 286 14 286 14 260 14 c 0,46,47
 225 14 225 14 211 36 c 128,-1,48
 197 58 197 58 205 96 c 2,49,-1
 210 116 l 1,0,-1
868 1330 m 0,50,51
 861 1330 861 1330 849.5 1329.5 c 128,-1,52
 838 1329 838 1329 826 1328.5 c 128,-1,53
 814 1328 814 1328 805.5 1327.5 c 128,-1,54
 797 1327 797 1327 796 1327 c 2,55,-1
 788 1316 l 1,56,57
 770 1249 770 1249 754 1187 c 0,58,59
 747 1161 747 1161 739.5 1133 c 128,-1,60
 732 1105 732 1105 725 1078.5 c 128,-1,61
 718 1052 718 1052 712 1028 c 128,-1,62
 706 1004 706 1004 702 986 c 2,63,-1
 688 926 l 1,64,65
 714 926 714 926 766 925 c 0,66,67
 781 925 781 925 797 925 c 0,68,69
 810 925 810 925 824 925 c 0,70,71
 851 925 851 925 881 926 c 0,72,73
 944 928 944 928 1011 937.5 c 128,-1,74
 1078 947 1078 947 1136 967.5 c 128,-1,75
 1194 988 1194 988 1236.5 1021.5 c 128,-1,76
 1279 1055 1279 1055 1291 1108 c 0,77,78
 1297 1131 1297 1131 1297 1152 c 0,79,80
 1296 1180 1296 1180 1286 1202 c 0,81,82
 1268 1240 1268 1240 1233 1264.5 c 128,-1,83
 1198 1289 1198 1289 1148.5 1302.5 c 128,-1,84
 1099 1316 1099 1316 1048 1322 c 128,-1,85
 997 1328 997 1328 949 1329 c 128,-1,86
 901 1330 901 1330 868 1330 c 0,50,51
EndSplineSet
EndChar

StartChar: Q
Encoding: 81 81 52
Width: 1394
GlyphClass: 2
Flags: W
LayerCount: 2
Fore
SplineSet
1029 62 m 1,0,1
 961 30 961 30 901.5 14.5 c 128,-1,2
 842 -1 842 -1 776 -1 c 0,3,4
 676 -1 676 -1 594.5 26.5 c 128,-1,5
 513 54 513 54 451.5 104 c 128,-1,6
 390 154 390 154 350 224 c 128,-1,7
 310 294 310 294 290 378 c 0,8,9
 272 455 272 455 272 542 c 0,10,11
 272 550 272 550 272 560 c 0,12,13
 274 658 274 658 298 763 c 0,14,15
 319 854 319 854 361 944.5 c 128,-1,16
 403 1035 403 1035 461 1117.5 c 128,-1,17
 519 1200 519 1200 591 1270.5 c 128,-1,18
 663 1341 663 1341 744 1393 c 128,-1,19
 825 1445 825 1445 912.5 1474.5 c 128,-1,20
 1000 1504 1000 1504 1089 1504 c 0,21,22
 1177 1504 1177 1504 1243.5 1468 c 128,-1,23
 1310 1432 1310 1432 1356.5 1371 c 128,-1,24
 1403 1310 1403 1310 1431 1230 c 0,25,26
 1460 1150 1460 1150 1470 1061 c 0,27,28
 1477 1001 1477 1001 1477 941 c 0,29,30
 1477 912 1477 912 1475 882 c 0,31,32
 1470 792 1470 792 1451 711 c 0,33,34
 1418 570 1418 570 1351 436.5 c 128,-1,35
 1284 303 1284 303 1181 188 c 1,36,-1
 1178 177 l 2,37,38
 1175 165 1175 165 1186 146.5 c 128,-1,39
 1197 128 1197 128 1216 107 c 128,-1,40
 1235 86 1235 86 1258.5 65 c 128,-1,41
 1282 44 1282 44 1305.5 27.5 c 128,-1,42
 1329 11 1329 11 1349.5 0.5 c 128,-1,43
 1370 -10 1370 -10 1381 -10 c 2,44,-1
 1488 -10 l 1,45,46
 1497 -20 1497 -20 1504 -27 c 128,-1,47
 1511 -34 1511 -34 1515 -42 c 128,-1,48
 1519 -50 1519 -50 1520.5 -60.5 c 128,-1,49
 1522 -71 1522 -71 1518 -87 c 0,50,51
 1511 -117 1511 -117 1496 -135.5 c 128,-1,52
 1481 -154 1481 -154 1462 -163.5 c 128,-1,53
 1443 -173 1443 -173 1420 -176 c 128,-1,54
 1397 -179 1397 -179 1373 -179 c 0,55,56
 1314 -179 1314 -179 1264 -156.5 c 128,-1,57
 1214 -134 1214 -134 1172 -98.5 c 128,-1,58
 1130 -63 1130 -63 1095 -20.5 c 128,-1,59
 1060 22 1060 22 1029 62 c 1,0,1
453 760 m 0,60,61
 431 667 431 667 431 582 c 0,62,63
 432 554 432 554 434 528 c 0,64,65
 444 420 444 420 490.5 339 c 128,-1,66
 537 258 537 258 620.5 211.5 c 128,-1,67
 704 165 704 165 823 165 c 0,68,69
 853 165 853 165 885 171 c 128,-1,70
 917 177 917 177 947 194 c 1,71,-1
 948 197 l 2,72,73
 954 221 954 221 945 244.5 c 128,-1,74
 936 268 936 268 921.5 293 c 128,-1,75
 907 318 907 318 889 344 c 0,76,77
 871 370 871 370 857 400 c 0,78,79
 842 430 842 430 836 462 c 0,80,81
 833 476 833 476 834 491 c 0,82,83
 834 511 834 511 839 533 c 0,84,85
 848 570 848 570 874 591.5 c 128,-1,86
 900 613 900 613 932 613 c 0,87,88
 962 613 962 613 981.5 596 c 128,-1,89
 1001 579 1001 579 1014 552 c 128,-1,90
 1027 525 1027 525 1035.5 491 c 128,-1,91
 1044 457 1044 457 1052 424 c 128,-1,92
 1060 391 1060 391 1070.5 362 c 128,-1,93
 1081 333 1081 333 1098 315 c 1,94,95
 1124 331 1124 331 1147.5 359.5 c 128,-1,96
 1171 388 1171 388 1191 424.5 c 128,-1,97
 1211 461 1211 461 1228 501.5 c 128,-1,98
 1245 542 1245 542 1258.5 581 c 128,-1,99
 1272 620 1272 620 1281.5 654.5 c 128,-1,100
 1291 689 1291 689 1297 714 c 0,101,102
 1310 769 1310 769 1314 837 c 0,103,104
 1316 865 1316 865 1316 893 c 0,105,106
 1316 933 1316 933 1312 974 c 0,107,108
 1306 1043 1306 1043 1288 1108.5 c 128,-1,109
 1270 1174 1270 1174 1239 1224.5 c 128,-1,110
 1208 1275 1208 1275 1161.5 1306 c 128,-1,111
 1115 1337 1115 1337 1053 1337 c 0,112,113
 985 1337 985 1337 918 1313 c 128,-1,114
 851 1289 851 1289 790 1247.5 c 128,-1,115
 729 1206 729 1206 674 1150 c 128,-1,116
 619 1094 619 1094 575.5 1029.5 c 128,-1,117
 532 965 532 965 500 896 c 128,-1,118
 468 827 468 827 453 760 c 0,60,61
EndSplineSet
EndChar

StartChar: R
Encoding: 82 82 53
Width: 1226
GlyphClass: 2
Flags: W
LayerCount: 2
Fore
SplineSet
601 708 m 1,0,1
 567 620 567 620 528.5 532 c 128,-1,2
 490 444 490 444 447 357.5 c 128,-1,3
 404 271 404 271 353.5 188 c 128,-1,4
 303 105 303 105 244 27 c 1,5,6
 226 10 226 10 209 1 c 128,-1,7
 192 -8 192 -8 171 -8 c 0,8,9
 138 -8 138 -8 122.5 15 c 128,-1,10
 107 38 107 38 115 70 c 0,11,12
 123 105 123 105 143 141 c 128,-1,13
 163 177 163 177 187 213 c 128,-1,14
 211 249 211 249 235 283.5 c 128,-1,15
 259 318 259 318 276 350 c 0,16,17
 394 585 394 585 480 824 c 128,-1,18
 566 1063 566 1063 623 1309 c 1,19,20
 599 1309 599 1309 566.5 1303.5 c 128,-1,21
 534 1298 534 1298 500 1289.5 c 128,-1,22
 466 1281 466 1281 433.5 1272 c 128,-1,23
 401 1263 401 1263 378 1257 c 1,24,-1
 362 1257 l 2,25,26
 328 1257 328 1257 312.5 1280.5 c 128,-1,27
 297 1304 297 1304 306 1341 c 0,28,29
 315 1380 315 1380 354 1407 c 128,-1,30
 393 1434 393 1434 449.5 1452 c 128,-1,31
 506 1470 506 1470 571.5 1479.5 c 128,-1,32
 637 1489 637 1489 698 1494 c 128,-1,33
 759 1499 759 1499 809.5 1500 c 128,-1,34
 860 1501 860 1501 885 1501 c 0,35,36
 915 1501 915 1501 958.5 1500 c 128,-1,37
 1002 1499 1002 1499 1052.5 1494.5 c 128,-1,38
 1103 1490 1103 1490 1156.5 1482 c 128,-1,39
 1210 1474 1210 1474 1260 1459.5 c 128,-1,40
 1310 1445 1310 1445 1353.5 1423.5 c 128,-1,41
 1397 1402 1397 1402 1426 1372 c 0,42,43
 1456 1340 1456 1340 1468 1300 c 0,44,45
 1474 1279 1474 1279 1474 1256 c 128,-1,46
 1474 1233 1474 1233 1468 1208 c 0,47,48
 1453 1145 1453 1145 1408.5 1094 c 128,-1,49
 1364 1043 1364 1043 1302.5 1002.5 c 128,-1,50
 1241 962 1241 962 1169.5 930.5 c 128,-1,51
 1098 899 1098 899 1028 875.5 c 128,-1,52
 958 852 958 852 896 835 c 128,-1,53
 834 818 834 818 795 807 c 1,54,-1
 789 801 l 1,55,56
 826 761 826 761 869.5 711 c 0,57,58
 913 660 913 660 956 602 c 0,59,60
 998 544 998 544 1036 478 c 0,61,62
 1074 414 1074 414 1098 344 c 128,-1,63
 1122 274 1122 274 1130 200 c 0,64,65
 1132 178 1132 178 1133 155 c 0,66,67
 1133 104 1133 104 1121 53 c 0,68,69
 1117 35 1117 35 1107 20.5 c 128,-1,70
 1097 6 1097 6 1083.5 -4 c 128,-1,71
 1070 -14 1070 -14 1055 -19.5 c 128,-1,72
 1040 -25 1040 -25 1025 -25 c 0,73,74
 1014 -25 1014 -25 995.5 10.5 c 128,-1,75
 977 46 977 46 955.5 102 c 128,-1,76
 934 158 934 158 909 225 c 128,-1,77
 884 292 884 292 859.5 356 c 128,-1,78
 835 420 835 420 811 471.5 c 128,-1,79
 787 523 787 523 767 547 c 0,80,81
 764 551 764 551 748 569 c 128,-1,82
 732 587 732 587 711.5 608.5 c 128,-1,83
 691 630 691 630 670 651.5 c 128,-1,84
 649 673 649 673 638 685 c 0,85,86
 631 692 631 692 624.5 700 c 128,-1,87
 618 708 618 708 605 708 c 2,88,-1
 601 708 l 1,0,1
866 1324 m 0,89,90
 859 1324 859 1324 847.5 1323.5 c 128,-1,91
 836 1323 836 1323 824.5 1322.5 c 128,-1,92
 813 1322 813 1322 804.5 1321.5 c 128,-1,93
 796 1321 796 1321 795 1321 c 2,94,-1
 788 1309 l 1,95,96
 770 1244 770 1244 752 1183 c 0,97,98
 744 1157 744 1157 737 1129.5 c 128,-1,99
 730 1102 730 1102 722.5 1076 c 128,-1,100
 715 1050 715 1050 708.5 1027 c 128,-1,101
 702 1004 702 1004 696 986 c 1,102,-1
 687 945 l 1,103,104
 688 945 688 945 713.5 952 c 128,-1,105
 739 959 739 959 781.5 971.5 c 128,-1,106
 824 984 824 984 878 1001.5 c 128,-1,107
 932 1019 932 1019 989 1039 c 128,-1,108
 1046 1059 1046 1059 1101 1080.5 c 128,-1,109
 1156 1102 1156 1102 1200.5 1124 c 128,-1,110
 1245 1146 1245 1146 1273.5 1167.5 c 128,-1,111
 1302 1189 1302 1189 1307 1208 c 0,112,113
 1312 1230 1312 1230 1283.5 1247 c 128,-1,114
 1255 1264 1255 1264 1209.5 1277 c 128,-1,115
 1164 1290 1164 1290 1108.5 1299 c 128,-1,116
 1053 1308 1053 1308 1002 1313.5 c 128,-1,117
 951 1319 951 1319 913 1321.5 c 128,-1,118
 875 1324 875 1324 866 1324 c 0,89,90
EndSplineSet
EndChar

StartChar: S
Encoding: 83 83 54
Width: 1179
GlyphClass: 2
Flags: W
LayerCount: 2
Fore
SplineSet
112 278 m 0,0,1
 120 313 120 313 146.5 338 c 128,-1,2
 173 363 173 363 208 363 c 0,3,4
 228 363 228 363 246 349 c 128,-1,5
 264 335 264 335 284.5 314.5 c 128,-1,6
 305 294 305 294 328.5 269.5 c 128,-1,7
 352 245 352 245 383 224.5 c 128,-1,8
 414 204 414 204 454 190 c 128,-1,9
 494 176 494 176 546 176 c 0,10,11
 584 176 584 176 635.5 183 c 128,-1,12
 687 190 687 190 742.5 205 c 128,-1,13
 798 220 798 220 853.5 243 c 128,-1,14
 909 266 909 266 956 299.5 c 128,-1,15
 1003 333 1003 333 1037 376.5 c 128,-1,16
 1071 420 1071 420 1084 475 c 0,17,18
 1088 493 1088 493 1088 510 c 0,19,20
 1088 528 1088 528 1083 544 c 0,21,22
 1073 576 1073 576 1051.5 600.5 c 128,-1,23
 1030 625 1030 625 1001.5 642 c 128,-1,24
 973 659 973 659 944 668 c 2,25,-1
 561 785 l 2,26,27
 519 798 519 798 479 819 c 128,-1,28
 439 840 439 840 408 871 c 128,-1,29
 377 902 377 902 359 943 c 0,30,31
 343 980 343 980 343 1027 c 0,32,33
 343 1032 343 1032 343 1037 c 1,34,-1
 357 1098 l 2,35,36
 377 1184 377 1184 418.5 1255.5 c 128,-1,37
 460 1327 460 1327 518 1380.5 c 128,-1,38
 576 1434 576 1434 647.5 1467.5 c 128,-1,39
 719 1501 719 1501 801 1511 c 0,40,41
 806 1511 806 1511 819.5 1511.5 c 128,-1,42
 833 1512 833 1512 848 1512.5 c 128,-1,43
 863 1513 863 1513 877 1513.5 c 128,-1,44
 891 1514 891 1514 896 1514 c 0,45,46
 919 1514 919 1514 964 1513.5 c 128,-1,47
 1009 1513 1009 1513 1062.5 1508.5 c 128,-1,48
 1116 1504 1116 1504 1170.5 1495 c 128,-1,49
 1225 1486 1225 1486 1267.5 1469 c 128,-1,50
 1310 1452 1310 1452 1334 1426 c 0,51,52
 1351 1407 1351 1407 1350 1382 c 0,53,54
 1350 1372 1350 1372 1348 1362 c 0,55,56
 1340 1327 1340 1327 1314 1302 c 128,-1,57
 1288 1277 1288 1277 1253 1277 c 2,58,-1
 1241 1277 l 1,59,60
 1146 1301 1146 1301 1052.5 1321 c 128,-1,61
 959 1341 959 1341 856 1341 c 0,62,63
 797 1341 797 1341 743 1329.5 c 128,-1,64
 689 1318 689 1318 643.5 1289.5 c 128,-1,65
 598 1261 598 1261 564.5 1214 c 128,-1,66
 531 1167 531 1167 514 1095 c 0,67,68
 507 1066 507 1066 515 1044 c 128,-1,69
 523 1022 523 1022 539 1005.5 c 128,-1,70
 555 989 555 989 576.5 978 c 128,-1,71
 598 967 598 967 619 961 c 2,72,-1
 985 849 l 2,73,74
 1045 831 1045 831 1100 799.5 c 128,-1,75
 1155 768 1155 768 1192 722 c 0,76,77
 1228 676 1228 676 1244 614 c 0,78,79
 1251 586 1251 586 1252 554 c 0,80,81
 1252 517 1252 517 1242 475 c 0,82,83
 1223 393 1223 393 1178.5 326 c 128,-1,84
 1134 259 1134 259 1073 206 c 128,-1,85
 1012 153 1012 153 939 114.5 c 128,-1,86
 866 76 866 76 789.5 50.5 c 128,-1,87
 713 25 713 25 639 12.5 c 128,-1,88
 565 0 565 0 503 0 c 0,89,90
 470 0 470 0 425 6.5 c 128,-1,91
 380 13 380 13 332.5 27 c 128,-1,92
 285 41 285 41 240 63 c 128,-1,93
 195 85 195 85 163 116 c 0,94,95
 132 147 132 147 116 187 c 0,96,97
 107 210 107 210 107 236 c 0,98,99
 107 256 107 256 112 278 c 0,0,1
EndSplineSet
EndChar

StartChar: T
Encoding: 84 84 55
Width: 1165
GlyphClass: 2
Flags: W
LayerCount: 2
Fore
SplineSet
329 83 m 0,0,1
 336 113 336 113 355 149 c 128,-1,2
 374 185 374 185 396.5 221.5 c 128,-1,3
 419 258 419 258 440.5 292.5 c 128,-1,4
 462 327 462 327 474 354 c 0,5,6
 587 595 587 595 670.5 831 c 128,-1,7
 754 1067 754 1067 811 1315 c 2,8,-1
 814 1327 l 1,9,-1
 428 1339 l 2,10,11
 412 1339 412 1339 403 1347.5 c 128,-1,12
 394 1356 394 1356 389.5 1368.5 c 128,-1,13
 385 1381 385 1381 384.5 1396 c 128,-1,14
 384 1411 384 1411 387 1424 c 0,15,16
 390 1436 390 1436 397 1450 c 128,-1,17
 404 1464 404 1464 414 1476 c 128,-1,18
 424 1488 424 1488 435.5 1496 c 128,-1,19
 447 1504 447 1504 460 1504 c 2,20,-1
 1167 1504 l 2,21,22
 1181 1504 1181 1504 1209 1505 c 0,23,24
 1223 1505 1223 1505 1238.5 1505.5 c 128,-1,25
 1254 1506 1254 1506 1271 1505 c 0,26,27
 1304 1504 1304 1504 1336.5 1499 c 128,-1,28
 1369 1494 1369 1494 1394.5 1482 c 128,-1,29
 1420 1470 1420 1470 1433 1449 c 128,-1,30
 1446 1428 1446 1428 1439 1395 c 0,31,32
 1431 1359 1431 1359 1404 1334 c 128,-1,33
 1377 1309 1377 1309 1342 1309 c 0,34,35
 1278 1309 1278 1309 1216 1318 c 128,-1,36
 1154 1327 1154 1327 1088 1327 c 2,37,-1
 978 1327 l 1,38,-1
 831 831 l 2,39,40
 828 824 828 824 820.5 801 c 128,-1,41
 813 778 813 778 801 746.5 c 128,-1,42
 789 715 789 715 775.5 678.5 c 128,-1,43
 762 642 762 642 749 607.5 c 128,-1,44
 736 573 736 573 723.5 543 c 128,-1,45
 711 513 711 513 705 496 c 0,46,47
 701 487 701 487 686 455.5 c 128,-1,48
 671 424 671 424 653.5 386.5 c 128,-1,49
 636 349 636 349 619.5 313.5 c 128,-1,50
 603 278 603 278 595 260 c 1,51,52
 587 244 587 244 575.5 218.5 c 128,-1,53
 564 193 564 193 549.5 164 c 128,-1,54
 535 135 535 135 517 106 c 128,-1,55
 499 77 499 77 479 53.5 c 128,-1,56
 459 30 459 30 436.5 15.5 c 128,-1,57
 414 1 414 1 390 1 c 0,58,59
 374 1 374 1 361.5 7.5 c 128,-1,60
 349 14 349 14 340.5 25.5 c 128,-1,61
 332 37 332 37 328.5 51.5 c 128,-1,62
 325 66 325 66 329 83 c 0,0,1
EndSplineSet
EndChar

StartChar: U
Encoding: 85 85 56
Width: 1168
GlyphClass: 2
Flags: W
LayerCount: 2
Fore
SplineSet
439 1464 m 1,0,1
 446 1477 446 1477 457 1487 c 128,-1,2
 468 1497 468 1497 481.5 1503.5 c 128,-1,3
 495 1510 495 1510 509 1513.5 c 128,-1,4
 523 1517 523 1517 535 1517 c 0,5,6
 545 1517 545 1517 556 1513.5 c 128,-1,7
 567 1510 567 1510 575.5 1503.5 c 128,-1,8
 584 1497 584 1497 589 1487 c 128,-1,9
 594 1477 594 1477 592 1464 c 1,10,-1
 468 1027 l 1,11,12
 465 1009 465 1009 460 987 c 0,13,14
 453 956 453 956 442 918 c 0,15,16
 424 854 424 854 405 782 c 128,-1,17
 386 710 386 710 368 633 c 0,18,19
 367 629 367 629 365 624 c 0,20,21
 349 551 349 551 341 483 c 0,22,23
 334 428 334 428 334 378 c 0,24,25
 334 361 334 361 335 345 c 0,26,27
 338 280 338 280 361.5 231 c 128,-1,28
 385 182 385 182 432.5 154 c 128,-1,29
 480 126 480 126 558 126 c 0,30,31
 631 126 631 126 697.5 163 c 128,-1,32
 764 200 764 200 823 260.5 c 128,-1,33
 882 321 882 321 931 398.5 c 128,-1,34
 980 476 980 476 1019.5 558 c 128,-1,35
 1059 640 1059 640 1087 720.5 c 128,-1,36
 1115 801 1115 801 1131 867 c 1,37,-1
 1179 1075 l 2,38,39
 1200 1166 1200 1166 1218.5 1255.5 c 128,-1,40
 1237 1345 1237 1345 1258 1437 c 0,41,42
 1266 1473 1266 1473 1297 1495 c 128,-1,43
 1328 1517 1328 1517 1363 1517 c 0,44,45
 1393 1517 1393 1517 1408 1498.5 c 128,-1,46
 1423 1480 1423 1480 1419 1448 c 1,47,48
 1407 1384 1407 1384 1398 1336 c 128,-1,49
 1389 1288 1389 1288 1380 1245 c 128,-1,50
 1371 1202 1371 1202 1361.5 1158 c 128,-1,51
 1352 1114 1352 1114 1339 1059 c 0,52,53
 1317 962 1317 962 1280.5 844.5 c 128,-1,54
 1244 727 1244 727 1193 607.5 c 128,-1,55
 1142 488 1142 488 1075 375 c 128,-1,56
 1008 262 1008 262 924.5 173.5 c 128,-1,57
 841 85 841 85 741.5 30 c 128,-1,58
 642 -25 642 -25 525 -29 c 0,59,60
 515 -29 515 -29 504 -29 c 0,61,62
 399 -29 399 -29 333 8 c 0,63,64
 261 49 261 49 226 122 c 0,65,66
 191 196 191 196 185 294 c 0,67,68
 184 310 184 310 184 327 c 0,69,70
 184 411 184 411 197 504 c 0,71,72
 210 599 210 599 232 699 c 0,73,74
 236 716 236 716 240 734 c 0,75,76
 269 852 269 852 301.5 964 c 128,-1,77
 334 1076 334 1076 364.5 1176 c 128,-1,78
 395 1276 395 1276 412 1350 c 2,79,-1
 439 1464 l 1,0,1
EndSplineSet
EndChar

StartChar: V
Encoding: 86 86 57
Width: 1245
GlyphClass: 2
Flags: W
LayerCount: 2
Fore
SplineSet
432 1442 m 1,0,1
 447 1471 447 1471 470 1488 c 128,-1,2
 493 1505 493 1505 521 1505 c 0,3,4
 545 1505 545 1505 563 1489.5 c 128,-1,5
 581 1474 581 1474 582 1448 c 1,6,7
 568 1286 568 1286 564 1160 c 0,8,9
 562 1097 562 1097 562 1041 c 0,10,11
 562 984 562 984 564 936 c 0,12,13
 568 838 568 838 577.5 764 c 128,-1,14
 587 690 587 690 598.5 630.5 c 128,-1,15
 610 571 610 571 623.5 522 c 128,-1,16
 637 473 637 473 648.5 426 c 128,-1,17
 660 379 660 379 667.5 328.5 c 128,-1,18
 675 278 675 278 677 217 c 1,19,-1
 684 223 l 1,20,-1
 1024 668 l 2,21,22
 1089 753 1089 753 1142.5 847.5 c 128,-1,23
 1196 942 1196 942 1237 1040.5 c 128,-1,24
 1278 1139 1278 1139 1310 1239 c 128,-1,25
 1342 1339 1342 1339 1367 1437 c 1,26,27
 1383 1469 1383 1469 1407.5 1487 c 128,-1,28
 1432 1505 1432 1505 1462 1505 c 0,29,30
 1496 1506 1496 1506 1510 1478 c 0,31,32
 1518 1461 1518 1461 1519 1440 c 0,33,34
 1519 1428 1519 1428 1516 1414 c 0,35,36
 1497 1331 1497 1331 1469 1237 c 128,-1,37
 1441 1143 1441 1143 1403.5 1047.5 c 128,-1,38
 1366 952 1366 952 1319.5 861.5 c 128,-1,39
 1273 771 1273 771 1217 696 c 2,40,-1
 727 46 l 2,41,42
 710 24 710 24 688 12 c 128,-1,43
 666 0 666 0 645 0 c 0,44,45
 619 0 619 0 595.5 14 c 128,-1,46
 572 28 572 28 553 49.5 c 128,-1,47
 534 71 534 71 521.5 96 c 128,-1,48
 509 121 509 121 506 143 c 0,49,50
 493 241 493 241 474 339 c 128,-1,51
 455 437 455 437 436.5 536 c 128,-1,52
 418 635 418 635 402 735 c 0,53,54
 386 836 386 836 381 938 c 0,55,56
 378 987 378 987 378 1037 c 0,57,58
 378 1091 378 1091 382 1146 c 0,59,60
 388 1252 388 1252 414 1363 c 2,61,-1
 432 1442 l 1,0,1
EndSplineSet
EndChar

StartChar: W
Encoding: 87 87 58
Width: 1604
GlyphClass: 2
Flags: W
LayerCount: 2
Fore
SplineSet
392 1427 m 0,0,1
 401 1465 401 1465 430 1489.5 c 128,-1,2
 459 1514 459 1514 493 1514 c 0,3,4
 501 1514 501 1514 512 1513 c 128,-1,5
 523 1512 523 1512 532 1509 c 128,-1,6
 541 1506 541 1506 547.5 1500.5 c 128,-1,7
 554 1495 554 1495 554 1486 c 2,8,-1
 565 958 l 1,9,-1
 679 424 l 1,10,-1
 709 279 l 2,11,12
 710 274 710 274 712.5 273.5 c 128,-1,13
 715 273 715 273 716 273 c 0,14,15
 721 273 721 273 722.5 276.5 c 128,-1,16
 724 280 724 280 728 285 c 0,17,18
 757 336 757 336 779 376 c 128,-1,19
 801 416 801 416 821 457 c 128,-1,20
 841 498 841 498 863 546 c 128,-1,21
 885 594 885 594 917 662 c 1,22,23
 928 683 928 683 940.5 703.5 c 128,-1,24
 953 724 953 724 967.5 740.5 c 128,-1,25
 982 757 982 757 1000.5 767.5 c 128,-1,26
 1019 778 1019 778 1043 778 c 0,27,28
 1072 778 1072 778 1090.5 754.5 c 128,-1,29
 1109 731 1109 731 1120.5 692 c 128,-1,30
 1132 653 1132 653 1138.5 603.5 c 128,-1,31
 1145 554 1145 554 1150.5 502.5 c 128,-1,32
 1156 451 1156 451 1161 401.5 c 128,-1,33
 1166 352 1166 352 1176 313 c 128,-1,34
 1186 274 1186 274 1202.5 250.5 c 128,-1,35
 1219 227 1219 227 1245 227 c 2,36,-1
 1248 227 l 1,37,38
 1316 318 1316 318 1374 408.5 c 128,-1,39
 1432 499 1432 499 1478.5 591.5 c 128,-1,40
 1525 684 1525 684 1561.5 780.5 c 128,-1,41
 1598 877 1598 877 1622 981 c 0,42,43
 1643 1071 1643 1071 1660.5 1159.5 c 128,-1,44
 1678 1248 1678 1248 1699 1337 c 2,45,-1
 1701 1346 l 2,46,47
 1703 1353 1703 1353 1707 1368.5 c 128,-1,48
 1711 1384 1711 1384 1716 1401.5 c 128,-1,49
 1721 1419 1721 1419 1725.5 1434.5 c 128,-1,50
 1730 1450 1730 1450 1732 1456 c 1,51,52
 1746 1485 1746 1485 1769.5 1499.5 c 128,-1,53
 1793 1514 1793 1514 1820 1514 c 0,54,55
 1850 1514 1850 1514 1863.5 1496.5 c 128,-1,56
 1877 1479 1877 1479 1881 1451 c 1,57,58
 1866 1378 1866 1378 1854.5 1322.5 c 128,-1,59
 1843 1267 1843 1267 1832 1216.5 c 128,-1,60
 1821 1166 1821 1166 1809 1114.5 c 128,-1,61
 1797 1063 1797 1063 1782 998 c 2,62,-1
 1746 842 l 1,63,64
 1711 730 1711 730 1663 626 c 128,-1,65
 1615 522 1615 522 1555.5 423 c 128,-1,66
 1496 324 1496 324 1428 228 c 128,-1,67
 1360 132 1360 132 1285 35 c 1,68,69
 1267 18 1267 18 1249.5 9 c 128,-1,70
 1232 0 1232 0 1211 0 c 0,71,72
 1175 0 1175 0 1145.5 24 c 128,-1,73
 1116 48 1116 48 1092 86 c 128,-1,74
 1068 124 1068 124 1049.5 171.5 c 128,-1,75
 1031 219 1031 219 1017 267 c 128,-1,76
 1003 315 1003 315 993 358 c 128,-1,77
 983 401 983 401 977 430 c 1,78,-1
 972 435 l 1,79,80
 963 414 963 414 944.5 373.5 c 128,-1,81
 926 333 926 333 902.5 285 c 128,-1,82
 879 237 879 237 849.5 186 c 128,-1,83
 820 135 820 135 788.5 94 c 128,-1,84
 757 53 757 53 723 26.5 c 128,-1,85
 689 0 689 0 656 0 c 0,86,87
 625 0 625 0 611.5 19 c 128,-1,88
 598 38 598 38 590 64 c 0,89,90
 584 86 584 86 574.5 121.5 c 128,-1,91
 565 157 565 157 555.5 191 c 128,-1,92
 546 225 546 225 539 251 c 128,-1,93
 532 277 532 277 532 279 c 2,94,-1
 403 921 l 2,95,96
 403 924 403 924 401 961.5 c 128,-1,97
 399 999 399 999 398 1054.5 c 128,-1,98
 397 1110 397 1110 395.5 1174 c 128,-1,99
 394 1238 394 1238 393.5 1293.5 c 128,-1,100
 393 1349 393 1349 392 1386.5 c 128,-1,101
 391 1424 391 1424 392 1427 c 0,0,1
EndSplineSet
EndChar

StartChar: X
Encoding: 88 88 59
Width: 1378
GlyphClass: 2
Flags: W
LayerCount: 2
Fore
SplineSet
97 82 m 0,0,1
 110 138 110 138 146.5 200 c 128,-1,2
 183 262 183 262 234 325 c 128,-1,3
 285 388 285 388 345.5 450 c 128,-1,4
 406 512 406 512 465.5 568 c 128,-1,5
 525 624 525 624 579 671.5 c 128,-1,6
 633 719 633 719 673 754 c 1,7,8
 654 799 654 799 622.5 849 c 128,-1,9
 591 899 591 899 556.5 953.5 c 128,-1,10
 522 1008 522 1008 489.5 1065.5 c 128,-1,11
 457 1123 457 1123 434 1183 c 128,-1,12
 411 1243 411 1243 402 1304 c 0,13,14
 398 1328 398 1328 398 1352 c 0,15,16
 398 1389 398 1389 407 1426 c 0,17,18
 415 1461 415 1461 440.5 1486 c 128,-1,19
 466 1511 466 1511 503 1511 c 0,20,21
 526 1511 526 1511 538.5 1503.5 c 128,-1,22
 551 1496 551 1496 561 1476 c 1,23,24
 579 1393 579 1393 603.5 1312.5 c 128,-1,25
 628 1232 628 1232 659.5 1155.5 c 128,-1,26
 691 1079 691 1079 731 1008.5 c 128,-1,27
 771 938 771 938 821 877 c 1,28,29
 836 888 836 888 866.5 911 c 128,-1,30
 897 934 897 934 935 963.5 c 128,-1,31
 973 993 973 993 1015 1025.5 c 128,-1,32
 1057 1058 1057 1058 1095 1087.5 c 128,-1,33
 1133 1117 1133 1117 1162.5 1140.5 c 128,-1,34
 1192 1164 1192 1164 1207 1176 c 0,35,36
 1229 1193 1229 1193 1258.5 1224.5 c 128,-1,37
 1288 1256 1288 1256 1321 1293 c 128,-1,38
 1354 1330 1354 1330 1390.5 1369 c 128,-1,39
 1427 1408 1427 1408 1462 1439.5 c 128,-1,40
 1497 1471 1497 1471 1529 1491 c 128,-1,41
 1561 1511 1561 1511 1587 1511 c 0,42,43
 1620 1511 1620 1511 1638.5 1489 c 128,-1,44
 1657 1467 1657 1467 1648 1429 c 0,45,46
 1640 1393 1640 1393 1610.5 1351.5 c 128,-1,47
 1581 1310 1581 1310 1541 1268 c 128,-1,48
 1501 1226 1501 1226 1454.5 1185 c 128,-1,49
 1408 1144 1408 1144 1364 1108 c 128,-1,50
 1320 1072 1320 1072 1283.5 1044 c 128,-1,51
 1247 1016 1247 1016 1226 1000 c 0,52,53
 1219 994 1219 994 1198 977.5 c 128,-1,54
 1177 961 1177 961 1148 938.5 c 128,-1,55
 1119 916 1119 916 1086.5 891 c 128,-1,56
 1054 866 1054 866 1025 843.5 c 128,-1,57
 996 821 996 821 975 804.5 c 128,-1,58
 954 788 954 788 947 783 c 1,59,60
 942 781 942 781 932 771.5 c 128,-1,61
 922 762 922 762 920 760 c 1,62,-1
 919 757 l 1,63,-1
 918 754 l 1,64,65
 932 732 932 732 959 699.5 c 128,-1,66
 986 667 986 667 1020.5 627.5 c 128,-1,67
 1055 588 1055 588 1094 542.5 c 128,-1,68
 1133 497 1133 497 1171.5 449 c 128,-1,69
 1210 401 1210 401 1243.5 352 c 128,-1,70
 1277 303 1277 303 1301 256 c 0,71,72
 1325 208 1325 208 1336 166 c 0,73,74
 1342 143 1342 143 1342 122 c 0,75,76
 1342 104 1342 104 1338 88 c 0,77,78
 1329 48 1329 48 1301.5 25.5 c 128,-1,79
 1274 3 1274 3 1239 3 c 0,80,81
 1206 3 1206 3 1186.5 24.5 c 128,-1,82
 1167 46 1167 46 1154.5 76.5 c 128,-1,83
 1142 107 1142 107 1132 140.5 c 128,-1,84
 1122 174 1122 174 1107 197 c 0,85,86
 1064 261 1064 261 1025 315 c 128,-1,87
 986 369 986 369 945 421 c 128,-1,88
 904 473 904 473 860.5 525 c 128,-1,89
 817 577 817 577 766 637 c 1,90,91
 690 569 690 569 619 500 c 128,-1,92
 548 431 548 431 481.5 358 c 128,-1,93
 415 285 415 285 353.5 207.5 c 128,-1,94
 292 130 292 130 236 44 c 1,95,96
 217 20 217 20 197.5 11.5 c 128,-1,97
 178 3 178 3 152 3 c 0,98,99
 121 3 121 3 105 25 c 128,-1,100
 89 47 89 47 97 82 c 0,0,1
EndSplineSet
EndChar

StartChar: Y
Encoding: 89 89 60
Width: 1157
GlyphClass: 2
Flags: W
LayerCount: 2
Fore
SplineSet
616 59 m 1,0,1
 633 120 633 120 647 184 c 0,2,3
 650 196 650 196 652 206 c 0,4,5
 670 282 670 282 684.5 358 c 128,-1,6
 699 434 699 434 710.5 509.5 c 128,-1,7
 722 585 722 585 732 656 c 1,8,9
 735 667 735 667 733.5 678 c 128,-1,10
 732 689 732 689 725 695 c 1,11,-1
 529 955 l 2,12,13
 498 996 498 996 468 1054 c 128,-1,14
 438 1112 438 1112 418.5 1178 c 128,-1,15
 399 1244 399 1244 392 1312 c 0,16,17
 390 1334 390 1334 390 1356 c 0,18,19
 390 1402 390 1402 400 1444 c 0,20,21
 408 1478 408 1478 432 1495.5 c 128,-1,22
 456 1513 456 1513 489 1513 c 0,23,24
 514 1513 514 1513 530.5 1493 c 128,-1,25
 547 1473 547 1473 558 1441.5 c 128,-1,26
 569 1410 569 1410 575.5 1371.5 c 128,-1,27
 582 1333 582 1333 587 1295.5 c 128,-1,28
 592 1258 592 1258 597 1225.5 c 128,-1,29
 602 1193 602 1193 610 1175 c 0,30,31
 654 1086 654 1086 710 1002.5 c 128,-1,32
 766 919 766 919 836 853 c 1,33,34
 874 893 874 893 915 935.5 c 128,-1,35
 956 978 956 978 995.5 1022 c 128,-1,36
 1035 1066 1035 1066 1072.5 1111 c 128,-1,37
 1110 1156 1110 1156 1143 1203 c 1,38,39
 1157 1225 1157 1225 1173.5 1257 c 128,-1,40
 1190 1289 1190 1289 1208 1324 c 128,-1,41
 1226 1359 1226 1359 1246 1394 c 128,-1,42
 1266 1429 1266 1429 1287.5 1456.5 c 128,-1,43
 1309 1484 1309 1484 1333.5 1501.5 c 128,-1,44
 1358 1519 1358 1519 1386 1519 c 0,45,46
 1418 1519 1418 1519 1436.5 1503.5 c 128,-1,47
 1455 1488 1455 1488 1447 1452 c 0,48,49
 1435 1401 1435 1401 1406.5 1343 c 128,-1,50
 1378 1285 1378 1285 1340.5 1228 c 128,-1,51
 1303 1171 1303 1171 1262 1119 c 128,-1,52
 1221 1067 1221 1067 1186 1028 c 2,53,-1
 911 723 l 1,54,-1
 903 712 l 1,55,-1
 892 664 l 2,56,57
 868 561 868 561 851 452 c 128,-1,58
 834 343 834 343 810 240 c 0,59,60
 806 224 806 224 802.5 200 c 128,-1,61
 799 176 799 176 793 149.5 c 128,-1,62
 787 123 787 123 778.5 97 c 128,-1,63
 770 71 770 71 756.5 50 c 128,-1,64
 743 29 743 29 724 16 c 128,-1,65
 705 3 705 3 679 3 c 256,66,67
 653 3 653 3 634.5 15 c 128,-1,68
 616 27 616 27 616 59 c 1,0,1
EndSplineSet
EndChar

StartChar: Z
Encoding: 90 90 61
Width: 1366
GlyphClass: 2
Flags: W
LayerCount: 2
Fore
SplineSet
151 38 m 0,0,1
 120 44 120 44 102.5 64.5 c 128,-1,2
 85 85 85 85 94 122 c 0,3,4
 106 172 106 172 145.5 235 c 128,-1,5
 185 298 185 298 241.5 366.5 c 128,-1,6
 298 435 298 435 365 504 c 128,-1,7
 432 573 432 573 497 634 c 128,-1,8
 562 695 562 695 618 743.5 c 128,-1,9
 674 792 674 792 711 820 c 2,10,-1
 1204 1193 l 1,11,-1
 1346 1316 l 1,12,-1
 1327 1316 l 2,13,14
 1264 1316 1264 1316 1200 1313 c 128,-1,15
 1136 1310 1136 1310 1071 1310 c 0,16,17
 989 1310 989 1310 909.5 1316 c 128,-1,18
 830 1322 830 1322 750.5 1328 c 128,-1,19
 671 1334 671 1334 592 1340 c 0,20,21
 524 1345 524 1345 456 1345 c 0,22,-1
 431 1345 l 1,23,24
 406 1354 406 1354 397 1376 c 128,-1,25
 388 1398 388 1398 395 1427 c 256,26,27
 402 1456 402 1456 421 1478 c 128,-1,28
 440 1500 440 1500 469 1508 c 1,29,-1
 588 1508 l 2,30,31
 656 1508 656 1508 723 1503.5 c 128,-1,32
 790 1499 790 1499 856.5 1493.5 c 128,-1,33
 923 1488 923 1488 990.5 1483.5 c 128,-1,34
 1058 1479 1058 1479 1126 1479 c 0,35,36
 1185 1479 1185 1479 1231.5 1481 c 128,-1,37
 1278 1483 1278 1483 1326 1487 c 128,-1,38
 1374 1491 1374 1491 1429 1497.5 c 128,-1,39
 1484 1504 1484 1504 1560 1514 c 1,40,-1
 1579 1514 l 2,41,42
 1612 1514 1612 1514 1629.5 1492 c 128,-1,43
 1647 1470 1647 1470 1639 1435 c 0,44,45
 1627 1383 1627 1383 1567 1315.5 c 128,-1,46
 1507 1248 1507 1248 1415.5 1169.5 c 128,-1,47
 1324 1091 1324 1091 1210.5 1005.5 c 128,-1,48
 1097 920 1097 920 979 832 c 128,-1,49
 861 744 861 744 747.5 656 c 128,-1,50
 634 568 634 568 541.5 486.5 c 128,-1,51
 449 405 449 405 387.5 331.5 c 128,-1,52
 326 258 326 258 312 198 c 2,53,-1
 311 195 l 1,54,55
 345 183 345 183 386 178 c 0,56,57
 426 174 426 174 465 172 c 0,58,59
 489 171 489 171 514 171 c 0,60,61
 531 171 531 171 548 171 c 0,62,63
 589 172 589 172 629 172 c 0,64,65
 697 172 697 172 766 176.5 c 128,-1,66
 835 181 835 181 904 186.5 c 128,-1,67
 973 192 973 192 1041.5 196.5 c 128,-1,68
 1110 201 1110 201 1179 201 c 2,69,-1
 1295 201 l 1,70,71
 1322 192 1322 192 1332 169.5 c 128,-1,72
 1342 147 1342 147 1335 116 c 0,73,74
 1329 90 1329 90 1309 68 c 128,-1,75
 1289 46 1289 46 1263 38 c 1,76,77
 1250 38 1250 38 1237 38 c 0,78,79
 1166 38 1166 38 1095 34 c 0,80,81
 1010 28 1010 28 925 20.5 c 128,-1,82
 840 13 840 13 755 6.5 c 128,-1,83
 670 0 670 0 586 0 c 0,84,85
 522 0 522 0 473 1.5 c 128,-1,86
 424 3 424 3 376 7 c 128,-1,87
 328 11 328 11 275.5 18.5 c 128,-1,88
 223 26 223 26 151 38 c 0,0,1
EndSplineSet
EndChar

StartChar: bracketleft
Encoding: 91 91 62
Width: 803
GlyphClass: 2
Flags: W
LayerCount: 2
Fore
SplineSet
65 -192 m 1,0,-1
 275 449 l 1,1,-1
 568 1483 l 2,2,3
 571 1494 571 1494 580 1504 c 128,-1,4
 589 1514 589 1514 599.5 1521 c 128,-1,5
 610 1528 610 1528 621 1532 c 128,-1,6
 632 1536 632 1536 641 1536 c 2,7,-1
 1037 1536 l 2,8,9
 1051 1536 1051 1536 1059 1529.5 c 128,-1,10
 1067 1523 1067 1523 1071.5 1512.5 c 128,-1,11
 1076 1502 1076 1502 1076.5 1489 c 128,-1,12
 1077 1476 1077 1476 1074 1464 c 0,13,14
 1072 1455 1072 1455 1067.5 1443.5 c 128,-1,15
 1063 1432 1063 1432 1056 1421 c 128,-1,16
 1049 1410 1049 1410 1038.5 1402.5 c 128,-1,17
 1028 1395 1028 1395 1016 1395 c 2,18,-1
 676 1395 l 1,19,-1
 431 521 l 1,20,-1
 224 -134 l 1,21,-1
 589 -134 l 2,22,23
 616 -134 616 -134 624.5 -158 c 128,-1,24
 633 -182 633 -182 626 -209 c 0,25,26
 620 -234 620 -234 607.5 -247.5 c 128,-1,27
 595 -261 595 -261 569 -271 c 1,28,29
 513 -274 513 -274 470 -275 c 128,-1,30
 427 -276 427 -276 387.5 -277 c 128,-1,31
 348 -278 348 -278 308 -278 c 128,-1,32
 268 -278 268 -278 218 -278 c 2,33,-1
 93 -278 l 2,34,35
 80 -278 80 -278 73 -271.5 c 128,-1,36
 66 -265 66 -265 62 -254.5 c 128,-1,37
 58 -244 58 -244 58 -232 c 128,-1,38
 58 -220 58 -220 61 -209 c 2,39,-1
 65 -192 l 1,0,-1
EndSplineSet
EndChar

StartChar: backslash
Encoding: 92 92 63
Width: 891
GlyphClass: 2
Flags: W
LayerCount: 2
Fore
SplineSet
822 1 m 0,0,1
 813 -39 813 -39 782.5 -65.5 c 128,-1,2
 752 -92 752 -92 714 -92 c 0,3,4
 680 -92 680 -92 664.5 -73 c 128,-1,5
 649 -54 649 -54 643 -25.5 c 128,-1,6
 637 3 637 3 635.5 35.5 c 128,-1,7
 634 68 634 68 628 94 c 1,8,-1
 516 729 l 1,9,10
 505 770 505 770 493.5 823.5 c 128,-1,11
 482 877 482 877 471 937.5 c 128,-1,12
 460 998 460 998 452 1062 c 0,13,14
 444 1126 444 1126 440 1190 c 0,15,16
 438 1224 438 1224 438 1257 c 0,17,18
 438 1284 438 1284 439 1312 c 0,19,20
 442 1372 442 1372 454 1422 c 0,21,22
 459 1444 459 1444 470.5 1460.5 c 128,-1,23
 482 1477 482 1477 498.5 1488.5 c 128,-1,24
 515 1500 515 1500 533.5 1505.5 c 128,-1,25
 552 1511 552 1511 570 1511 c 0,26,27
 628 1511 628 1511 634 1451 c 1,28,29
 634 1400 634 1400 637 1327.5 c 128,-1,30
 640 1255 640 1255 646.5 1177 c 128,-1,31
 653 1099 653 1099 662 1024.5 c 128,-1,32
 671 950 671 950 684 895 c 1,33,-1
 809 186 l 1,34,35
 814 166 814 166 818.5 143 c 128,-1,36
 823 120 823 120 826 96 c 128,-1,37
 829 72 829 72 828 47.5 c 128,-1,38
 827 23 827 23 822 1 c 0,0,1
EndSplineSet
EndChar

StartChar: bracketright
Encoding: 93 93 64
Width: 789
GlyphClass: 2
Flags: W
LayerCount: 2
Fore
SplineSet
607 -209 m 2,0,1
 604 -220 604 -220 599 -232 c 128,-1,2
 594 -244 594 -244 585.5 -254.5 c 128,-1,3
 577 -265 577 -265 566 -271.5 c 128,-1,4
 555 -278 555 -278 543 -278 c 2,5,-1
 418 -278 l 2,6,7
 368 -278 368 -278 328 -278 c 128,-1,8
 288 -278 288 -278 249.5 -277 c 128,-1,9
 211 -276 211 -276 168 -275 c 128,-1,10
 125 -274 125 -274 70 -271 c 1,11,12
 49 -261 49 -261 42.5 -247.5 c 128,-1,13
 36 -234 36 -234 42 -209 c 0,14,15
 48 -182 48 -182 67.5 -158 c 128,-1,16
 87 -134 87 -134 114 -134 c 2,17,-1
 479 -134 l 1,18,-1
 594 521 l 1,19,-1
 790 1395 l 1,20,-1
 456 1395 l 2,21,22
 443 1395 443 1395 436.5 1402.5 c 128,-1,23
 430 1410 430 1410 428 1421 c 128,-1,24
 426 1432 426 1432 427 1443.5 c 128,-1,25
 428 1455 428 1455 430 1464 c 0,26,27
 433 1476 433 1476 439 1489 c 128,-1,28
 445 1502 445 1502 454.5 1512.5 c 128,-1,29
 464 1523 464 1523 475.5 1529.5 c 128,-1,30
 487 1536 487 1536 501 1536 c 2,31,-1
 889 1536 l 2,32,33
 898 1536 898 1536 907.5 1532 c 128,-1,34
 917 1528 917 1528 924.5 1521 c 128,-1,35
 932 1514 932 1514 935.5 1504 c 128,-1,36
 939 1494 939 1494 938 1483 c 1,37,-1
 717 449 l 1,38,-1
 611 -192 l 1,39,-1
 607 -209 l 2,0,1
EndSplineSet
EndChar

StartChar: asciicircum
Encoding: 94 94 65
Width: 1206
GlyphClass: 2
Flags: W
LayerCount: 2
Fore
SplineSet
1332 1016 m 1,0,-1
 1145 855 l 1,1,-1
 895 1339 l 1,2,-1
 429 845 l 1,3,-1
 311 986 l 1,4,-1
 968 1641 l 1,5,-1
 1332 1016 l 1,0,-1
EndSplineSet
EndChar

StartChar: underscore
Encoding: 95 95 66
Width: 1052
GlyphClass: 2
Flags: W
LayerCount: 2
Fore
SplineSet
1068 28 m 1,0,-1
 -48 28 l 1,1,-1
 27 209 l 1,2,-1
 1143 209 l 1,3,-1
 1068 28 l 1,0,-1
EndSplineSet
EndChar

StartChar: grave
Encoding: 96 96 67
Width: 1193
GlyphClass: 2
Flags: W
LayerCount: 2
Fore
SplineSet
1002 1302 m 5,0,-1
 873 1224 l 5,1,-1
 696 1676 l 5,2,-1
 848 1746 l 5,3,-1
 1002 1302 l 5,0,-1
EndSplineSet
EndChar

StartChar: a
Encoding: 97 97 68
Width: 958
GlyphClass: 2
Flags: W
LayerCount: 2
Fore
SplineSet
661 51 m 4,0,1
 637 51 637 51 610.5 45 c 132,-1,2
 584 39 584 39 558 32.5 c 132,-1,3
 532 26 532 26 505 20 c 132,-1,4
 478 14 478 14 453 14 c 4,5,6
 358 14 358 14 290 49 c 132,-1,7
 222 84 222 84 183.5 147 c 132,-1,8
 145 210 145 210 136 296 c 4,9,10
 134 319 134 319 134 344 c 0,11,12
 134 410 134 410 151 483 c 4,13,14
 174 581 174 581 222.5 658.5 c 132,-1,15
 271 736 271 736 338 789.5 c 132,-1,16
 405 843 405 843 486.5 871 c 132,-1,17
 568 899 568 899 656 899 c 4,18,19
 693 899 693 899 727.5 889.5 c 132,-1,20
 762 880 762 880 795.5 868 c 132,-1,21
 829 856 829 856 863 846.5 c 132,-1,22
 897 837 897 837 932 837 c 6,23,-1
 937 837 l 5,24,-1
 957 911 l 0,25,-1
 1128 956 l 0,26,-1
 1023 586 l 6,27,28
 1021 579 1021 579 1012 554 c 132,-1,29
 1003 529 1003 529 990.5 493.5 c 132,-1,30
 978 458 978 458 963 416 c 132,-1,31
 948 374 948 374 933.5 333 c 132,-1,32
 919 292 919 292 906.5 256 c 132,-1,33
 894 220 894 220 885 198 c 4,34,35
 882 189 882 189 872.5 165 c 132,-1,36
 863 141 863 141 851.5 114.5 c 132,-1,37
 840 88 840 88 829.5 65 c 132,-1,38
 819 42 819 42 815 33 c 4,39,40
 799 2 799 2 774.5 -12 c 132,-1,41
 750 -26 750 -26 724 -26 c 4,42,43
 708 -26 708 -26 697.5 -14 c 132,-1,44
 687 -2 687 -2 680.5 12.5 c 132,-1,45
 674 27 674 27 670 39 c 132,-1,46
 666 51 666 51 661 51 c 4,0,1
309 480 m 260,47,48
 298 434 298 434 298 395 c 0,49,50
 298 378 298 378 300 364 c 4,51,52
 306 312 306 312 330 275.5 c 132,-1,53
 354 239 354 239 396 219.5 c 132,-1,54
 438 200 438 200 497 200 c 4,55,56
 512 200 512 200 535.5 201.5 c 132,-1,57
 559 203 559 203 585.5 207.5 c 132,-1,58
 612 212 612 212 640 219.5 c 132,-1,59
 668 227 668 227 692 238 c 132,-1,60
 716 249 716 249 734.5 265 c 132,-1,61
 753 281 753 281 760 302 c 6,62,-1
 871 616 l 5,63,-1
 872 622 l 6,64,65
 877 642 877 642 863.5 656.5 c 132,-1,66
 850 671 850 671 826 681 c 132,-1,67
 802 691 802 691 771.5 697.5 c 132,-1,68
 741 704 741 704 711.5 707.5 c 132,-1,69
 682 711 682 711 657.5 712 c 132,-1,70
 633 713 633 713 620 713 c 4,71,72
 566 713 566 713 516.5 700.5 c 132,-1,73
 467 688 467 688 426 660.5 c 132,-1,74
 385 633 385 633 354.5 588.5 c 132,-1,75
 324 544 324 544 309 480 c 260,47,48
EndSplineSet
EndChar

StartChar: b
Encoding: 98 98 69
Width: 982
GlyphClass: 2
Flags: W
LayerCount: 2
Fore
SplineSet
27 86 m 1,0,-1
 163 438 l 2,1,2
 166 449 166 449 179.5 491 c 128,-1,3
 193 533 193 533 212 594 c 128,-1,4
 231 655 231 655 253 727.5 c 128,-1,5
 275 800 275 800 296.5 870.5 c 128,-1,6
 318 941 318 941 336.5 1003 c 128,-1,7
 355 1065 355 1065 366 1105 c 0,8,9
 371 1123 371 1123 380.5 1160 c 128,-1,10
 390 1197 390 1197 402 1244 c 128,-1,11
 414 1291 414 1291 427.5 1342.5 c 128,-1,12
 441 1394 441 1394 452.5 1441 c 128,-1,13
 464 1488 464 1488 473.5 1524.5 c 128,-1,14
 483 1561 483 1561 487 1579 c 1,15,16
 503 1613 503 1613 529.5 1634.5 c 128,-1,17
 556 1656 556 1656 588 1656 c 0,18,19
 614 1656 614 1656 630.5 1638.5 c 128,-1,20
 647 1621 647 1621 649 1592 c 1,21,-1
 604 1397 l 2,22,23
 587 1322 587 1322 570.5 1261.5 c 128,-1,24
 554 1201 554 1201 537.5 1143.5 c 128,-1,25
 521 1086 521 1086 504.5 1025.5 c 128,-1,26
 488 965 488 965 470 890 c 1,27,-1
 729 913 l 1,28,29
 787 913 787 913 838 890 c 128,-1,30
 889 867 889 867 930 826 c 128,-1,31
 971 785 971 785 1000.5 730 c 128,-1,32
 1030 675 1030 675 1046 611 c 0,33,34
 1062 546 1062 546 1062 476 c 0,35,36
 1062 472 1062 472 1062 468 c 0,37,38
 1062 402 1062 402 1047 336 c 0,39,40
 1028 255 1028 255 991 191 c 128,-1,41
 954 127 954 127 903.5 82.5 c 128,-1,42
 853 38 853 38 791 14 c 128,-1,43
 729 -10 729 -10 658 -10 c 0,44,45
 532 -10 532 -10 420.5 16.5 c 128,-1,46
 309 43 309 43 216 108 c 1,47,48
 200 83 200 83 189.5 60.5 c 128,-1,49
 179 38 179 38 166 20.5 c 128,-1,50
 153 3 153 3 134 -7 c 128,-1,51
 115 -17 115 -17 83 -17 c 0,52,53
 50 -17 50 -17 32 7 c 0,54,55
 20 23 20 23 20 46 c 0,56,57
 20 59 20 59 24 73 c 2,58,-1
 27 86 l 1,0,-1
303 336 m 2,59,60
 297 311 297 311 318.5 289.5 c 128,-1,61
 340 268 340 268 376.5 250 c 128,-1,62
 413 232 413 232 459 218 c 128,-1,63
 505 204 505 204 550.5 194.5 c 128,-1,64
 596 185 596 185 634 180 c 128,-1,65
 672 175 672 175 692 175 c 0,66,67
 766 175 766 175 811 212.5 c 128,-1,68
 856 250 856 250 876 339 c 0,69,70
 887 386 887 386 887 427 c 0,71,72
 887 431 887 431 887 434 c 0,73,74
 887 469 887 469 878 501 c 0,75,76
 858 573 858 573 814 623 c 128,-1,77
 770 673 770 673 709 700 c 128,-1,78
 648 727 648 727 587 727 c 0,79,80
 562 727 562 727 541.5 723 c 128,-1,81
 521 719 521 719 501 714 c 128,-1,82
 481 709 481 709 458.5 702.5 c 128,-1,83
 436 696 436 696 408 692 c 1,84,85
 405 685 405 685 397.5 659.5 c 128,-1,86
 390 634 390 634 379.5 599 c 128,-1,87
 369 564 369 564 357.5 525 c 128,-1,88
 346 486 346 486 335.5 451 c 128,-1,89
 325 416 325 416 317.5 390.5 c 128,-1,90
 310 365 310 365 308 358 c 1,91,-1
 303 336 l 2,59,60
EndSplineSet
EndChar

StartChar: c
Encoding: 99 99 70
Width: 884
GlyphClass: 2
Flags: W
LayerCount: 2
Fore
SplineSet
154 523 m 0,0,1
 178 625 178 625 223 707.5 c 128,-1,2
 268 790 268 790 332 849 c 128,-1,3
 396 908 396 908 477 940 c 128,-1,4
 558 972 558 972 653 972 c 0,5,6
 750 972 750 972 836.5 948 c 128,-1,7
 923 924 923 924 1003 886 c 1,8,9
 1038 862 1038 862 1038 816 c 0,10,11
 1038 800 1038 800 1034 781 c 0,12,13
 1024 737 1024 737 992.5 710.5 c 128,-1,14
 961 684 961 684 922 684 c 0,15,16
 884 684 884 684 846 695 c 128,-1,17
 808 706 808 706 770.5 719.5 c 128,-1,18
 733 733 733 733 694 744.5 c 128,-1,19
 655 756 655 756 612 756 c 0,20,21
 503 756 503 756 435.5 701 c 128,-1,22
 368 646 368 646 340 524 c 0,23,24
 324 459 324 459 324 399 c 0,25,26
 324 342 324 342 342 298 c 0,27,28
 360 254 360 254 400 227 c 128,-1,29
 440 200 440 200 506 200 c 0,30,31
 550 200 550 200 594 217 c 128,-1,32
 638 234 638 234 680 255 c 128,-1,33
 722 276 722 276 763 293.5 c 128,-1,34
 804 311 804 311 843 311 c 0,35,36
 881 311 881 311 901 286 c 0,37,38
 914 269 914 269 914 244 c 0,39,40
 914 231 914 231 911 217 c 0,41,42
 901 175 901 175 871 141.5 c 128,-1,43
 841 108 841 108 799 81.5 c 128,-1,44
 757 55 757 55 707.5 37 c 128,-1,45
 658 19 658 19 610 7 c 128,-1,46
 562 -5 562 -5 519.5 -11 c 128,-1,47
 477 -17 477 -17 449 -17 c 0,48,49
 344 -17 344 -17 275 27 c 128,-1,50
 206 71 206 71 171 145.5 c 128,-1,51
 136 220 136 220 132 318 c 0,52,53
 132 330 132 330 132 342 c 0,54,55
 132 428 132 428 154 523 c 0,0,1
EndSplineSet
EndChar

StartChar: d
Encoding: 100 100 71
Width: 957
GlyphClass: 2
Flags: W
LayerCount: 2
Fore
SplineSet
658 54 m 4,0,1
 634 54 634 54 608.5 48 c 132,-1,2
 583 42 583 42 557 35.5 c 132,-1,3
 531 29 531 29 505 23 c 132,-1,4
 479 17 479 17 454 17 c 4,5,6
 361 17 361 17 294.5 54 c 132,-1,7
 228 91 228 91 189 157 c 132,-1,8
 150 223 150 223 141 313 c 4,9,10
 139 338 139 338 139 363 c 0,11,12
 139 432 139 432 156 509 c 4,13,14
 180 612 180 612 230 693 c 132,-1,15
 280 774 280 774 347.5 830 c 132,-1,16
 415 886 415 886 497 915.5 c 132,-1,17
 579 945 579 945 666 945 c 4,18,19
 703 945 703 945 737.5 935.5 c 132,-1,20
 772 926 772 926 806 914 c 132,-1,21
 840 902 840 902 873.5 892.5 c 132,-1,22
 907 883 907 883 942 883 c 6,23,-1
 948 883 l 5,24,-1
 1118 1527 l 6,25,26
 1121 1542 1121 1542 1132 1553.5 c 132,-1,27
 1143 1565 1143 1565 1156.5 1573 c 132,-1,28
 1170 1581 1170 1581 1184 1585 c 132,-1,29
 1198 1589 1198 1589 1210 1589 c 4,30,31
 1221 1589 1221 1589 1233 1584 c 132,-1,32
 1245 1579 1245 1579 1255 1570 c 132,-1,33
 1265 1561 1265 1561 1270 1548.5 c 132,-1,34
 1275 1536 1275 1536 1271 1521 c 6,35,-1
 1214 1273 l 5,36,-1
 1029 617 l 6,37,38
 1026 610 1026 610 1017.5 583.5 c 132,-1,39
 1009 557 1009 557 996 520 c 132,-1,40
 983 483 983 483 967 438.5 c 132,-1,41
 951 394 951 394 936 351 c 132,-1,42
 921 308 921 308 907.5 270.5 c 132,-1,43
 894 233 894 233 885 209 c 4,44,45
 882 200 882 200 872 175 c 132,-1,46
 862 150 862 150 850 122 c 132,-1,47
 838 94 838 94 827 69.5 c 132,-1,48
 816 45 816 45 812 36 c 4,49,50
 795 3 795 3 770 -11.5 c 132,-1,51
 745 -26 745 -26 719 -26 c 4,52,53
 703 -26 703 -26 693.5 -13.5 c 132,-1,54
 684 -1 684 -1 677.5 14 c 132,-1,55
 671 29 671 29 667 41.5 c 132,-1,56
 663 54 663 54 658 54 c 4,0,1
315 506 m 260,57,58
 303 453 303 453 303 409 c 0,59,60
 303 396 303 396 304 382 c 4,61,62
 309 326 309 326 332 286 c 132,-1,63
 355 246 355 246 396.5 224.5 c 132,-1,64
 438 203 438 203 497 203 c 4,65,66
 512 203 512 203 536 205 c 132,-1,67
 560 207 560 207 586.5 211.5 c 132,-1,68
 613 216 613 216 641 224 c 132,-1,69
 669 232 669 232 693.5 244 c 132,-1,70
 718 256 718 256 736.5 273.5 c 132,-1,71
 755 291 755 291 763 314 c 6,72,-1
 879 654 l 5,73,-1
 881 660 l 6,74,75
 886 682 886 682 873 697.5 c 132,-1,76
 860 713 860 713 836.5 724 c 132,-1,77
 813 735 813 735 782.5 742 c 132,-1,78
 752 749 752 749 722.5 752.5 c 132,-1,79
 693 756 693 756 668.5 757.5 c 132,-1,80
 644 759 644 759 631 759 c 4,81,82
 577 759 577 759 527.5 745.5 c 132,-1,83
 478 732 478 732 436 702 c 132,-1,84
 394 672 394 672 362.5 623.5 c 132,-1,85
 331 575 331 575 315 506 c 260,57,58
EndSplineSet
EndChar

StartChar: e
Encoding: 101 101 72
Width: 877
GlyphClass: 2
Flags: W
LayerCount: 2
Fore
SplineSet
155 520 m 0,0,1
 179 623 179 623 237.5 711.5 c 128,-1,2
 296 800 296 800 376 865 c 128,-1,3
 456 930 456 930 550.5 967.5 c 128,-1,4
 645 1005 645 1005 739 1005 c 0,5,6
 804 1005 804 1005 864.5 987.5 c 128,-1,7
 925 970 925 970 967 930 c 128,-1,8
 1009 890 1009 890 1026 825 c 0,9,10
 1033 797 1033 797 1033 763 c 0,11,12
 1033 719 1033 719 1021 666 c 0,13,14
 1010 619 1010 619 986 582 c 128,-1,15
 962 545 962 545 929.5 517 c 128,-1,16
 897 489 897 489 859 469.5 c 128,-1,17
 821 450 821 450 780.5 437 c 128,-1,18
 740 424 740 424 700.5 417 c 128,-1,19
 661 410 661 410 627 408 c 2,20,-1
 311 388 l 1,21,-1
 310 384 l 2,22,23
 304 360 304 360 304 338 c 0,24,25
 304 316 304 316 310 298 c 0,26,27
 322 262 322 262 349 238 c 128,-1,28
 376 214 376 214 411.5 202.5 c 128,-1,29
 447 191 447 191 482 191 c 0,30,31
 525 191 525 191 567 209 c 128,-1,32
 609 227 609 227 649 248.5 c 128,-1,33
 689 270 689 270 728 288 c 128,-1,34
 767 306 767 306 805 306 c 0,35,36
 840 306 840 306 860 282 c 0,37,38
 873 266 873 266 872 242 c 0,39,40
 872 229 872 229 869 215 c 0,41,42
 860 174 860 174 831 141.5 c 128,-1,43
 802 109 802 109 762 83.5 c 128,-1,44
 722 58 722 58 675 40 c 128,-1,45
 628 22 628 22 583 10.5 c 128,-1,46
 538 -1 538 -1 497.5 -6.5 c 128,-1,47
 457 -12 457 -12 430 -12 c 0,48,49
 330 -12 330 -12 265.5 31.5 c 128,-1,50
 201 75 201 75 168 148.5 c 128,-1,51
 135 222 135 222 133 318 c 0,52,53
 133 325 133 325 133 333 c 0,54,55
 133 423 133 423 155 520 c 0,0,1
695 809 m 0,56,57
 667 809 667 809 632.5 802.5 c 128,-1,58
 598 796 598 796 562.5 783.5 c 128,-1,59
 527 771 527 771 492 752.5 c 128,-1,60
 457 734 457 734 428 709.5 c 128,-1,61
 399 685 399 685 378 655.5 c 128,-1,62
 357 626 357 626 349 591 c 1,63,64
 362 591 362 591 403 592.5 c 128,-1,65
 444 594 444 594 498.5 597.5 c 128,-1,66
 553 601 553 601 612.5 606.5 c 128,-1,67
 672 612 672 612 723 620.5 c 128,-1,68
 774 629 774 629 808 640 c 128,-1,69
 842 651 842 651 846 666 c 0,70,71
 850 684 850 684 850 699 c 0,72,73
 850 720 850 720 842 737 c 0,74,75
 828 765 828 765 803 781 c 128,-1,76
 778 797 778 797 748 803 c 128,-1,77
 718 809 718 809 695 809 c 0,56,57
EndSplineSet
EndChar

StartChar: f
Encoding: 102 102 73
Width: 637
GlyphClass: 2
Flags: W
LayerCount: 2
Fore
SplineSet
523 892 m 2,0,-1
 257 -260 l 0,1,2
 245 -310 245 -310 214.5 -352 c 128,-1,3
 184 -394 184 -394 145 -424 c 0,4,5
 107 -454 107 -454 64 -471 c 0,6,-1
 481 1339 l 2,7,8
 493 1389 493 1389 523.5 1431 c 128,-1,9
 554 1473 554 1473 594 1503 c 128,-1,10
 634 1533 634 1533 678 1549.5 c 128,-1,11
 722 1566 722 1566 762 1566 c 0,12,13
 805 1566 805 1566 847 1548 c 0,14,15
 888 1530 888 1530 920 1496 c 0,16,17
 952 1462 952 1462 966 1416 c 0,18,19
 974 1391 974 1391 974 1365 c 0,20,21
 974 1340 974 1340 968 1313 c 0,22,23
 959 1276 959 1276 936.5 1255.5 c 128,-1,24
 914 1235 914 1235 883 1235 c 0,25,26
 861 1235 861 1235 847.5 1246.5 c 128,-1,27
 834 1258 834 1258 825.5 1275.5 c 128,-1,28
 817 1293 817 1293 810 1313.5 c 128,-1,29
 803 1334 803 1334 793 1351.5 c 128,-1,30
 783 1369 783 1369 767 1380.5 c 128,-1,31
 751 1392 751 1392 726 1392 c 0,32,33
 690 1392 690 1392 663.5 1373.5 c 128,-1,34
 637 1355 637 1355 625 1310 c 0,35,36
 621 1294 621 1294 613 1261.5 c 128,-1,37
 605 1229 605 1229 595 1188 c 128,-1,38
 585 1147 585 1147 574 1101.5 c 128,-1,39
 563 1056 563 1056 553 1015 c 128,-1,40
 543 974 543 974 535 941 c 128,-1,41
 527 908 527 908 523 892 c 2,0,-1
EndSplineSet
EndChar

StartChar: g
Encoding: 103 103 74
Width: 1076
GlyphClass: 2
Flags: W
LayerCount: 2
Fore
SplineSet
100 -135 m 0,0,1
 101 -131 101 -131 103 -124 c 128,-1,2
 105 -117 105 -117 106.5 -108.5 c 128,-1,3
 108 -100 108 -100 110 -93 c 128,-1,4
 112 -86 112 -86 112 -83 c 0,5,6
 125 -58 125 -58 153.5 -41 c 128,-1,7
 182 -24 182 -24 205 -24 c 0,8,9
 241 -24 241 -24 258.5 -37 c 128,-1,10
 276 -50 276 -50 285.5 -69 c 128,-1,11
 295 -88 295 -88 303.5 -110 c 128,-1,12
 312 -132 312 -132 332 -151 c 0,13,14
 352 -171 352 -171 389 -183 c 0,15,16
 421 -193 421 -193 474 -193 c 0,17,18
 478 -193 478 -193 482 -193 c 0,19,20
 487 -193 487 -193 492 -193 c 0,21,22
 513 -193 513 -193 539.5 -192.5 c 128,-1,23
 566 -192 566 -192 594.5 -187 c 128,-1,24
 623 -182 623 -182 651.5 -171 c 128,-1,25
 680 -160 680 -160 702.5 -139 c 128,-1,26
 725 -118 725 -118 742 -84 c 0,27,28
 752 -64 752 -64 758 -38 c 0,29,30
 762 -20 762 -20 764 -0 c 1,31,32
 709 4 709 4 643.5 12 c 128,-1,33
 578 20 578 20 514 37.5 c 128,-1,34
 450 55 450 55 391.5 85 c 128,-1,35
 333 115 333 115 291 161.5 c 128,-1,36
 249 208 249 208 231 273 c 0,37,38
 222 305 222 305 222 342 c 0,39,40
 222 381 222 381 232 427 c 0,41,42
 235 439 235 439 238 452 c 0,43,44
 266 574 266 574 317 658 c 0,45,46
 373 751 373 751 445 809.5 c 128,-1,47
 517 868 517 868 597.5 898.5 c 128,-1,48
 678 929 678 929 757.5 941.5 c 128,-1,49
 837 954 837 954 910.5 955 c 128,-1,50
 984 956 984 956 1041 956 c 2,51,-1
 1116 956 l 1,52,53
 1121 952 1121 952 1130.5 946.5 c 128,-1,54
 1140 941 1140 941 1148.5 934 c 128,-1,55
 1157 927 1157 927 1162 918 c 128,-1,56
 1167 909 1167 909 1164 899 c 2,57,-1
 908 -86 l 1,58,59
 894 -147 894 -147 865 -193.5 c 128,-1,60
 836 -240 836 -240 797 -275 c 128,-1,61
 758 -310 758 -310 712 -334 c 128,-1,62
 666 -358 666 -358 619 -372.5 c 128,-1,63
 572 -387 572 -387 524.5 -393.5 c 128,-1,64
 477 -400 477 -400 435 -400 c 0,65,66
 361 -400 361 -400 298.5 -378.5 c 128,-1,67
 236 -357 236 -357 189 -321 c 0,68,69
 142 -284 142 -284 118 -236 c 0,70,71
 99 -197 99 -197 99 -156 c 0,72,73
 99 -146 99 -146 100 -135 c 0,0,1
415 422 m 0,74,75
 413 408 413 408 413 394 c 0,76,77
 414 362 414 362 426 338 c 0,78,79
 444 302 444 302 478 278 c 128,-1,80
 512 254 512 254 557.5 239 c 128,-1,81
 603 224 603 224 649 216 c 128,-1,82
 695 208 695 208 737.5 205 c 128,-1,83
 780 202 780 202 809 202 c 1,84,-1
 814 226 l 1,85,86
 816 240 816 240 826 280.5 c 128,-1,87
 836 321 836 321 850 374 c 128,-1,88
 864 427 864 427 880 486.5 c 128,-1,89
 896 546 896 546 910 600 c 128,-1,90
 924 654 924 654 933.5 694 c 128,-1,91
 943 734 943 734 946 749 c 1,92,-1
 933 749 l 2,93,94
 909 750 909 750 865 752 c 0,95,96
 850 752 850 752 835 752 c 0,97,98
 804 752 804 752 769 749 c 0,99,100
 717 744 717 744 660.5 728.5 c 128,-1,101
 604 713 604 713 554.5 676.5 c 128,-1,102
 505 640 505 640 467 579 c 0,103,104
 438 532 438 532 422 463 c 0,105,106
 418 444 418 444 415 422 c 0,74,75
EndSplineSet
EndChar

StartChar: h
Encoding: 104 104 75
Width: 834
GlyphClass: 2
Flags: W
LayerCount: 2
Fore
SplineSet
84 113 m 1,0,-1
 249 556 l 1,1,-1
 523 1538 l 2,2,3
 534 1575 534 1575 561 1592 c 128,-1,4
 588 1609 588 1609 615 1609 c 256,5,6
 642 1609 642 1609 663 1599 c 128,-1,7
 684 1589 684 1589 684 1556 c 1,8,-1
 642 1375 l 2,9,10
 626 1304 626 1304 609 1241 c 128,-1,11
 592 1178 592 1178 575.5 1117.5 c 128,-1,12
 559 1057 559 1057 542.5 994 c 128,-1,13
 526 931 526 931 509 860 c 2,14,-1
 503 834 l 1,15,16
 530 857 530 857 561.5 886 c 128,-1,17
 593 915 593 915 627 940.5 c 128,-1,18
 661 966 661 966 696 983 c 128,-1,19
 731 1000 731 1000 764 1000 c 0,20,21
 823 1000 823 1000 857.5 966 c 128,-1,22
 892 932 892 932 908 877.5 c 128,-1,23
 924 823 924 823 924 754 c 0,24,25
 924 750 924 750 925 746 c 0,26,27
 924 680 924 680 916 614 c 0,28,29
 908 544 908 544 895.5 478.5 c 128,-1,30
 883 413 883 413 872 366 c 0,31,32
 867 346 867 346 861 309.5 c 128,-1,33
 855 273 855 273 846 230 c 0,34,35
 843 219 843 219 841 208 c 0,36,37
 834 176 834 176 825 143 c 0,38,39
 847 243 847 243 847 264 c 0,40,41
 847 270 847 270 845.5 270 c 128,-1,42
 844 270 844 270 840 263 c 0,43,44
 819 174 819 174 812 121 c 0,45,46
 812 109 812 109 821.5 98.5 c 128,-1,47
 831 88 831 88 842 88 c 0,48,49
 857 88 857 88 880.5 107 c 128,-1,50
 904 126 904 126 925 158 c 2,51,-1
 996 263 l 1,52,-1
 1023 237 l 1,53,54
 939 92 939 92 878 34 c 128,-1,55
 817 -24 817 -24 747 -24 c 0,56,57
 705 -24 705 -24 681.5 -1 c 128,-1,58
 658 22 658 22 654 66 c 0,59,60
 652 84 652 84 652 103 c 0,61,62
 652 131 652 131 656 160 c 0,63,64
 662 209 662 209 677 275 c 0,65,66
 682 298 l 0,67,68
 683 298 683 298 666 214 c 0,69,70
 685 280 685 280 701 348 c 0,71,72
 707 376 707 376 718 414 c 0,73,74
 722 433 722 433 726.5 453.5 c 128,-1,75
 731 474 731 474 736 495 c 0,76,77
 745 538 745 538 752 582 c 0,78,79
 760 626 760 626 760 667 c 0,80,81
 760 670 760 670 760 672 c 0,82,83
 760 709 760 709 753 740 c 0,84,85
 746 773 746 773 729 793 c 1,86,87
 671 776 671 776 617.5 729 c 128,-1,88
 564 682 564 682 515 616.5 c 128,-1,89
 466 551 466 551 422 473.5 c 128,-1,90
 378 396 378 396 341.5 319 c 128,-1,91
 305 242 305 242 276 172 c 128,-1,92
 247 102 247 102 226 51 c 1,93,94
 211 21 211 21 184.5 0.5 c 128,-1,95
 158 -20 158 -20 128 -20 c 0,96,97
 90 -20 90 -20 78 6 c 0,98,99
 72 21 72 21 71 40 c 0,100,101
 71 55 71 55 75 73 c 2,102,-1
 84 113 l 1,0,-1
EndSplineSet
EndChar

StartChar: i
Encoding: 105 105 76
Width: 465
GlyphClass: 2
Flags: W
LayerCount: 2
Fore
SplineSet
528 990 m 4,0,1
 592 990 592 990 595 940 c 5,2,-1
 537 690 l 6,3,4
 416 166 416 166 287 40 c 4,5,6
 261 14 261 14 239.5 14 c 132,-1,7
 218 14 218 14 203 20 c 132,-1,8
 188 26 188 26 178 38 c 4,9,10
 161 57 161 57 167 85 c 4,11,12
 170 96 170 96 176 109 c 4,13,14
 312 393 312 393 443 924 c 5,15,16
 459 958 459 958 478 974 c 132,-1,17
 497 990 497 990 528 990 c 4,0,1
475 1249 m 4,18,19
 481 1274 481 1274 498 1302.5 c 132,-1,20
 515 1331 515 1331 538 1354.5 c 132,-1,21
 561 1378 561 1378 587 1393.5 c 132,-1,22
 613 1409 613 1409 638 1409 c 4,23,24
 659 1409 659 1409 678 1394.5 c 132,-1,25
 697 1380 697 1380 710 1357.5 c 132,-1,26
 723 1335 723 1335 728.5 1309 c 132,-1,27
 734 1283 734 1283 729 1259 c 260,28,29
 723 1235 723 1235 706.5 1210 c 132,-1,30
 690 1185 690 1185 668.5 1164.5 c 132,-1,31
 647 1144 647 1144 623 1131 c 132,-1,32
 599 1118 599 1118 580 1118 c 4,33,34
 559 1118 559 1118 537.5 1129.5 c 132,-1,35
 516 1141 516 1141 500 1159.5 c 132,-1,36
 484 1178 484 1178 476.5 1201.5 c 132,-1,37
 469 1225 469 1225 475 1249 c 4,18,19
EndSplineSet
EndChar

StartChar: j
Encoding: 106 106 77
Width: 402
GlyphClass: 2
Flags: W
LayerCount: 2
Fore
SplineSet
428 1249 m 0,0,1
 434 1274 434 1274 451 1302.5 c 128,-1,2
 468 1331 468 1331 491 1354.5 c 128,-1,3
 514 1378 514 1378 540.5 1393.5 c 128,-1,4
 567 1409 567 1409 591 1409 c 0,5,6
 612 1409 612 1409 631.5 1394.5 c 128,-1,7
 651 1380 651 1380 664 1357.5 c 128,-1,8
 677 1335 677 1335 682.5 1309 c 128,-1,9
 688 1283 688 1283 682 1259 c 256,10,11
 676 1235 676 1235 660 1210 c 128,-1,12
 644 1185 644 1185 622.5 1164.5 c 128,-1,13
 601 1144 601 1144 577 1131 c 128,-1,14
 553 1118 553 1118 532 1118 c 0,15,16
 512 1118 512 1118 490.5 1129.5 c 128,-1,17
 469 1141 469 1141 453.5 1159.5 c 128,-1,18
 438 1178 438 1178 430 1201.5 c 128,-1,19
 422 1225 422 1225 428 1249 c 0,0,1
-249 -225 m 0,20,21
 -241 -192 -241 -192 -221.5 -168.5 c 128,-1,22
 -202 -145 -202 -145 -169 -145 c 0,23,24
 -146 -145 -146 -145 -131 -159 c 128,-1,25
 -116 -173 -116 -173 -103 -189.5 c 128,-1,26
 -90 -206 -90 -206 -75 -219.5 c 128,-1,27
 -60 -233 -60 -233 -37 -233 c 0,28,29
 -16 -233 -16 -233 4 -217.5 c 128,-1,30
 24 -202 24 -202 42.5 -177 c 128,-1,31
 61 -152 61 -152 78 -121 c 128,-1,32
 95 -90 95 -90 109 -60 c 128,-1,33
 123 -30 123 -30 133.5 -3.5 c 128,-1,34
 144 23 144 23 150 39 c 0,35,36
 157 56 157 56 166 82 c 128,-1,37
 175 108 175 108 186 138 c 128,-1,38
 197 168 197 168 208 198.5 c 128,-1,39
 219 229 219 229 228 254.5 c 128,-1,40
 237 280 237 280 242.5 297.5 c 128,-1,41
 248 315 248 315 249 319 c 2,42,-1
 402 895 l 1,43,44
 410 928 410 928 435.5 943.5 c 128,-1,45
 461 959 461 959 486 959 c 0,46,47
 510 959 510 959 529 950 c 128,-1,48
 548 941 548 941 549 911 c 1,49,-1
 510 739 l 2,50,51
 503 708 503 708 488 643 c 0,52,53
 486 634 486 634 484 624 c 0,54,55
 471 566 471 566 451 492 c 0,56,57
 429 406 429 406 399 306.5 c 128,-1,58
 369 207 369 207 332 107.5 c 128,-1,59
 295 8 295 8 251.5 -83.5 c 128,-1,60
 208 -175 208 -175 157.5 -245.5 c 128,-1,61
 107 -316 107 -316 50 -358.5 c 128,-1,62
 -7 -401 -7 -401 -70 -401 c 0,63,64
 -99 -401 -99 -401 -133.5 -388 c 128,-1,65
 -168 -375 -168 -375 -197 -352 c 0,66,67
 -226 -328 -226 -328 -242 -296 c 0,68,69
 -252 -275 -252 -275 -252 -252 c 0,70,71
 -252 -239 -252 -239 -249 -225 c 0,20,21
EndSplineSet
EndChar

StartChar: k
Encoding: 107 107 78
Width: 804
GlyphClass: 2
Flags: W
LayerCount: 2
Fore
SplineSet
612 42 m 1,0,1
 603 80 603 80 593 114 c 0,2,3
 581 154 581 154 565 192 c 128,-1,4
 549 230 549 230 528 265 c 128,-1,5
 507 300 507 300 479 326 c 128,-1,6
 451 352 451 352 415.5 367.5 c 128,-1,7
 380 383 380 383 336 383 c 2,8,-1
 332 383 l 1,9,10
 325 370 325 370 314.5 337 c 128,-1,11
 304 304 304 304 290.5 263.5 c 128,-1,12
 277 223 277 223 259 179.5 c 128,-1,13
 241 136 241 136 218.5 100 c 128,-1,14
 196 64 196 64 169 40.5 c 128,-1,15
 142 17 142 17 109 17 c 0,16,17
 70 17 70 17 58 46 c 0,18,19
 52 62 52 62 52 82 c 0,20,21
 52 98 52 98 56 116 c 2,22,-1
 64 151 l 1,23,-1
 203 509 l 2,24,25
 207 519 207 519 220 560.5 c 128,-1,26
 233 602 233 602 251.5 662 c 128,-1,27
 270 722 270 722 292 794 c 128,-1,28
 314 866 314 866 334.5 936 c 128,-1,29
 355 1006 355 1006 373 1068 c 128,-1,30
 391 1130 391 1130 402 1170 c 0,31,32
 406 1185 406 1185 415 1217 c 128,-1,33
 424 1249 424 1249 434 1289.5 c 128,-1,34
 444 1330 444 1330 455 1374.5 c 128,-1,35
 466 1419 466 1419 476 1459.5 c 128,-1,36
 486 1500 486 1500 494 1532 c 128,-1,37
 502 1564 502 1564 505 1580 c 1,38,39
 508 1599 508 1599 517.5 1613.5 c 128,-1,40
 527 1628 527 1628 540 1638.5 c 128,-1,41
 553 1649 553 1649 568.5 1654.5 c 128,-1,42
 584 1660 584 1660 600 1660 c 0,43,44
 627 1660 627 1660 648 1649.5 c 128,-1,45
 669 1639 669 1639 669 1603 c 1,46,-1
 618 1382 l 2,47,48
 597 1293 597 1293 573 1204 c 128,-1,49
 549 1115 549 1115 524.5 1026.5 c 128,-1,50
 500 938 500 938 475.5 849 c 128,-1,51
 451 760 451 760 431 672 c 2,52,-1
 422 634 l 1,53,54
 454 655 454 655 493 683.5 c 128,-1,55
 532 712 532 712 573 744.5 c 128,-1,56
 614 777 614 777 654.5 810.5 c 128,-1,57
 695 844 695 844 732.5 875 c 128,-1,58
 770 906 770 906 801 932.5 c 128,-1,59
 832 959 832 959 853 977 c 1,60,61
 869 980 869 980 914 980 c 0,62,63
 980 980 980 980 1014 924.5 c 128,-1,64
 1048 869 1048 869 1065 731 c 1,65,-1
 1027 707 l 1,66,-1
 1003 810 l 2,67,68
 997 838 997 838 982 854.5 c 128,-1,69
 967 871 967 871 952 871 c 0,70,71
 947 871 947 871 941 860 c 0,72,73
 936 849 936 849 932 846 c 0,74,-1
 939 852 l 1,75,76
 931 845 931 845 901.5 821.5 c 128,-1,77
 872 798 872 798 830.5 765.5 c 128,-1,78
 789 733 789 733 742 695.5 c 128,-1,79
 695 658 695 658 652 623.5 c 128,-1,80
 609 589 609 589 575 560 c 128,-1,81
 541 531 541 531 526 516 c 1,82,83
 579 480 579 480 618.5 439.5 c 128,-1,84
 658 399 658 399 686.5 351 c 128,-1,85
 715 303 715 303 735.5 246.5 c 128,-1,86
 756 190 756 190 771 123 c 1,87,-1
 773 113 l 0,88,89
 777 85 777 85 793 85 c 0,90,91
 808 85 808 85 831 102 c 128,-1,92
 854 119 854 119 873 147 c 2,93,-1
 945 249 l 1,94,-1
 971 225 l 1,95,96
 890 87 890 87 830.5 31.5 c 128,-1,97
 771 -24 771 -24 706 -24 c 0,98,99
 626 -24 626 -24 612 42 c 1,0,1
EndSplineSet
EndChar

StartChar: l
Encoding: 108 108 79
Width: 426
GlyphClass: 2
Flags: W
LayerCount: 2
Fore
SplineSet
402 260 m 1,0,1
 379 159 379 159 372 115 c 0,2,3
 372 103 372 103 382 92.5 c 128,-1,4
 392 82 392 82 403 82 c 0,5,6
 417 82 417 82 440.5 99 c 128,-1,7
 464 116 464 116 482 144 c 2,8,-1
 559 256 l 1,9,-1
 583 231 l 1,10,11
 503 89 503 89 444.5 32.5 c 128,-1,12
 386 -24 386 -24 321 -24 c 0,13,14
 282 -24 282 -24 259 -2 c 0,15,16
 236 22 236 22 232 64 c 0,17,18
 230 82 230 82 230 101 c 0,19,20
 230 127 230 127 233 157 c 0,21,22
 239 208 239 208 254 275 c 0,23,-1
 466 1192 l 0,24,25
 479 1240 479 1240 492 1294 c 128,-1,26
 505 1348 505 1348 517.5 1396.5 c 128,-1,27
 530 1445 530 1445 539 1482.5 c 128,-1,28
 548 1520 548 1520 552 1536 c 1,29,30
 567 1568 567 1568 591 1588 c 128,-1,31
 615 1608 615 1608 644 1608 c 0,32,33
 654 1608 654 1608 665 1603.5 c 128,-1,34
 676 1599 676 1599 684.5 1591.5 c 128,-1,35
 693 1584 693 1584 698 1572.5 c 128,-1,36
 703 1561 703 1561 700 1548 c 2,37,-1
 402 260 l 1,0,1
EndSplineSet
EndChar

StartChar: m
Encoding: 109 109 80
Width: 1413
GlyphClass: 2
Flags: W
LayerCount: 2
Fore
SplineSet
591 112 m 1,0,1
 616 175 616 175 635.5 223 c 128,-1,2
 655 271 655 271 672 315 c 128,-1,3
 689 359 689 359 703 406 c 128,-1,4
 717 453 717 453 731 515 c 0,5,6
 734 530 734 530 741.5 556.5 c 128,-1,7
 749 583 749 583 755 615 c 128,-1,8
 761 647 761 647 764.5 680 c 128,-1,9
 768 713 768 713 764.5 740 c 128,-1,10
 761 767 761 767 748.5 784 c 128,-1,11
 736 801 736 801 710 801 c 0,12,13
 677 801 677 801 643.5 779.5 c 128,-1,14
 610 758 610 758 579 723.5 c 128,-1,15
 548 689 548 689 519 647 c 128,-1,16
 490 605 490 605 465.5 563 c 128,-1,17
 441 521 441 521 422 484.5 c 128,-1,18
 403 448 403 448 391 425 c 0,19,20
 385 413 385 413 371.5 388 c 128,-1,21
 358 363 358 363 341 330 c 128,-1,22
 324 297 324 297 305 261.5 c 128,-1,23
 286 226 286 226 269.5 193 c 128,-1,24
 253 160 253 160 240 134.5 c 128,-1,25
 227 109 227 109 221 97 c 0,26,27
 215 81 215 81 202.5 69.5 c 128,-1,28
 190 58 190 58 175.5 51 c 128,-1,29
 161 44 161 44 145 40.5 c 128,-1,30
 129 37 129 37 117 37 c 0,31,32
 99 37 99 37 87 44.5 c 128,-1,33
 75 52 75 52 68 65 c 128,-1,34
 61 78 61 78 60 94.5 c 128,-1,35
 59 111 59 111 63 130 c 2,36,-1
 70 160 l 1,37,38
 102 209 102 209 133 271.5 c 128,-1,39
 164 334 164 334 193.5 401.5 c 128,-1,40
 223 469 223 469 250.5 538.5 c 128,-1,41
 278 608 278 608 303 673.5 c 128,-1,42
 328 739 328 739 350.5 796 c 128,-1,43
 373 853 373 853 392 897 c 128,-1,44
 411 941 411 941 426 966.5 c 128,-1,45
 441 992 441 992 452 994 c 0,46,47
 461 995 461 995 474.5 992 c 128,-1,48
 488 989 488 989 499.5 982 c 128,-1,49
 511 975 511 975 518 964 c 128,-1,50
 525 953 525 953 521 939 c 2,51,-1
 494 819 l 1,52,53
 529 855 529 855 558 887 c 128,-1,54
 587 919 587 919 616.5 943 c 128,-1,55
 646 967 646 967 679 980.5 c 128,-1,56
 712 994 712 994 755 994 c 0,57,58
 841 994 841 994 885.5 936.5 c 128,-1,59
 930 879 930 879 934 783 c 1,60,61
 971 817 971 817 997.5 850 c 128,-1,62
 1024 883 1024 883 1046.5 913 c 128,-1,63
 1069 943 1069 943 1089.5 968.5 c 128,-1,64
 1110 994 1110 994 1134 1013 c 128,-1,65
 1158 1032 1158 1032 1188 1042.5 c 128,-1,66
 1218 1053 1218 1053 1259 1053 c 0,67,68
 1331 1053 1331 1053 1376.5 1025.5 c 128,-1,69
 1422 998 1422 998 1447 951.5 c 128,-1,70
 1472 905 1472 905 1479 844 c 0,71,72
 1483 810 1483 810 1483 774 c 0,73,74
 1482 746 1482 746 1480 716 c 0,75,76
 1474 648 1474 648 1461.5 578.5 c 128,-1,77
 1449 509 1449 509 1434 446 c 0,78,79
 1430 427 1430 427 1424 386 c 0,80,81
 1416 345 1416 345 1406 294 c 0,82,83
 1402 275 1402 275 1398 255 c 0,84,85
 1395 244 1395 244 1393 234 c 0,86,87
 1388 212 1388 212 1382 189 c 0,88,89
 1394 245 1394 245 1394 261 c 0,90,91
 1394 267 1394 267 1392 267 c 0,92,93
 1390 267 1390 267 1384 256 c 0,94,95
 1370 193 1370 193 1361 128 c 0,96,97
 1361 117 1361 117 1370.5 106.5 c 128,-1,98
 1380 96 1380 96 1391 96 c 0,99,100
 1407 96 1407 96 1432.5 116.5 c 128,-1,101
 1458 137 1458 137 1482 173 c 2,102,-1
 1543 260 l 1,103,-1
 1574 235 l 1,104,105
 1487 90 1487 90 1425 33.5 c 128,-1,106
 1363 -23 1363 -23 1289 -23 c 0,107,108
 1252 -23 1252 -23 1227.5 -6.5 c 128,-1,109
 1203 10 1203 10 1192.5 35 c 128,-1,110
 1182 60 1182 60 1182 98.5 c 128,-1,111
 1182 137 1182 137 1187.5 174 c 128,-1,112
 1193 211 1193 211 1204 258 c 0,113,114
 1214 299 1214 299 1216 299 c 0,115,116
 1217 299 1217 299 1216 296 c 0,117,118
 1216 288 1216 288 1212 259 c 0,119,120
 1239 342 1239 342 1258 424 c 0,121,122
 1270 472 1270 472 1283 527 c 0,123,124
 1284 530 1284 530 1284 532 c 0,125,126
 1296 584 1296 584 1299 634 c 0,127,128
 1300 646 1300 646 1300 657 c 0,129,130
 1300 698 1300 698 1292 734 c 0,131,132
 1282 780 1282 780 1243 810 c 1,133,-1
 1204 810 l 1,134,135
 1151 807 1151 807 1101 764.5 c 128,-1,136
 1051 722 1051 722 1005.5 656 c 128,-1,137
 960 590 960 590 919 507.5 c 128,-1,138
 878 425 878 425 844 343 c 128,-1,139
 810 261 810 261 783 187.5 c 128,-1,140
 756 114 756 114 738 64 c 1,141,142
 732 52 732 52 721 40.5 c 128,-1,143
 710 29 710 29 697 20 c 128,-1,144
 684 11 684 11 671 5.5 c 128,-1,145
 658 0 658 0 648 0 c 0,146,147
 610 0 610 0 594 28 c 0,148,149
 584 46 584 46 584 69 c 0,150,151
 584 83 584 83 588 100 c 2,152,-1
 591 112 l 1,0,1
EndSplineSet
Validated: 1
EndChar

StartChar: n
Encoding: 110 110 81
Width: 916
GlyphClass: 2
Flags: W
LayerCount: 2
Fore
SplineSet
758 263 m 0,0,1
 766 297 766 297 767 297 c 0,2,3
 769 297 769 297 761 245 c 0,4,5
 786 319 786 319 804 395 c 0,6,7
 810 417 810 417 819 456 c 0,8,9
 821 463 821 463 822 469 c 0,10,11
 830 503 830 503 837 542 c 0,12,13
 846 588 846 588 850 636 c 0,14,15
 852 657 852 657 852 677 c 0,16,17
 852 700 852 700 849 722 c 0,18,19
 844 760 844 760 827 785.5 c 128,-1,20
 810 811 810 811 775 811 c 0,21,22
 748 811 748 811 716.5 790.5 c 128,-1,23
 685 770 685 770 653.5 737 c 128,-1,24
 622 704 622 704 592 664.5 c 128,-1,25
 562 625 562 625 536.5 586.5 c 128,-1,26
 511 548 511 548 491 515.5 c 128,-1,27
 471 483 471 483 461 467 c 1,28,29
 452 453 452 453 435.5 424 c 128,-1,30
 419 395 419 395 398 359 c 128,-1,31
 377 323 377 323 354 282.5 c 128,-1,32
 331 242 331 242 311 206 c 128,-1,33
 291 170 291 170 275 141 c 128,-1,34
 259 112 259 112 251 98 c 1,35,36
 232 66 232 66 210.5 52.5 c 128,-1,37
 189 39 189 39 157 39 c 0,38,39
 120 39 120 39 103.5 60 c 128,-1,40
 87 81 87 81 96 121 c 2,41,-1
 102 144 l 1,42,43
 108 156 108 156 119.5 182.5 c 128,-1,44
 131 209 131 209 146 242 c 128,-1,45
 161 275 161 275 176.5 311 c 128,-1,46
 192 347 192 347 206.5 380.5 c 128,-1,47
 221 414 221 414 232 440 c 128,-1,48
 243 466 243 466 248 478 c 0,49,50
 252 487 252 487 259.5 514 c 128,-1,51
 267 541 267 541 278.5 577.5 c 128,-1,52
 290 614 290 614 304.5 657.5 c 128,-1,53
 319 701 319 701 335 745 c 128,-1,54
 351 789 351 789 369 830 c 128,-1,55
 387 871 387 871 406 903 c 128,-1,56
 425 935 425 935 443 954.5 c 128,-1,57
 461 974 461 974 479 974 c 0,58,59
 487 974 487 974 499 971 c 128,-1,60
 511 968 511 968 521 961.5 c 128,-1,61
 531 955 531 955 537.5 945.5 c 128,-1,62
 544 936 544 936 541 923 c 2,63,-1
 509 787 l 1,64,65
 538 798 538 798 562 817 c 128,-1,66
 586 836 586 836 608.5 859 c 128,-1,67
 631 882 631 882 652.5 905 c 128,-1,68
 674 928 674 928 698.5 947.5 c 128,-1,69
 723 967 723 967 751.5 979 c 128,-1,70
 780 991 780 991 816 991 c 0,71,72
 881 991 881 991 920.5 962 c 128,-1,73
 960 933 960 933 982 885 c 0,74,75
 1004 838 1004 838 1008 776 c 0,76,77
 1010 748 1010 748 1011 719 c 0,78,79
 1011 712 1011 712 1011 705 c 0,80,81
 1011 677 1011 677 1008 648 c 0,82,83
 1002 582 1002 582 989.5 518.5 c 128,-1,84
 977 455 977 455 965 402 c 0,85,86
 960 380 960 380 954 343 c 0,87,88
 948 305 948 305 939 261 c 0,89,90
 936 250 936 250 934 239 c 0,91,92
 926 206 926 206 916 172 c 0,93,94
 929 236 929 236 929 254 c 0,95,96
 929 261 929 261 928 260 c 0,97,98
 926 260 926 260 921 252 c 0,99,100
 904 179 904 179 896 120 c 0,101,102
 896 109 896 109 905.5 98.5 c 128,-1,103
 915 88 915 88 926 88 c 0,104,105
 941 88 941 88 964 106 c 128,-1,106
 987 124 987 124 1009 154 c 2,107,-1
 1077 252 l 1,108,-1
 1105 228 l 1,109,110
 1021 87 1021 87 960 31.5 c 128,-1,111
 899 -24 899 -24 831 -24 c 0,112,113
 789 -24 789 -24 765.5 -2 c 128,-1,114
 742 20 742 20 738 63 c 0,115,116
 736 83 736 83 735 105 c 0,117,118
 735 129 735 129 738 153 c 0,119,120
 743 200 743 200 758 263 c 0,0,1
EndSplineSet
Validated: 1
EndChar

StartChar: o
Encoding: 111 111 82
Width: 926
GlyphClass: 2
Flags: W
LayerCount: 2
Fore
SplineSet
131 430 m 0,0,1
 155 534 155 534 213.5 631 c 128,-1,2
 272 728 272 728 352 803 c 128,-1,3
 432 878 432 878 527.5 923.5 c 128,-1,4
 623 969 623 969 722 969 c 0,5,6
 824 969 824 969 890 931 c 0,7,8
 954 893 954 893 988 828 c 0,9,10
 1022 764 1022 764 1026 678 c 0,11,12
 1026 666 1026 666 1026 654 c 0,13,14
 1026 579 1026 579 1007 496 c 0,15,16
 996 449 996 449 972.5 392.5 c 128,-1,17
 949 336 949 336 915.5 278 c 128,-1,18
 882 220 882 220 840 164.5 c 128,-1,19
 798 109 798 109 750.5 66.5 c 128,-1,20
 703 24 703 24 650.5 -1.5 c 128,-1,21
 598 -27 598 -27 545 -27 c 2,22,-1
 380 -27 l 2,23,24
 285 -27 285 -27 227.5 13.5 c 128,-1,25
 170 54 170 54 142 119 c 0,26,27
 116 184 116 184 114 266 c 0,28,29
 114 272 114 272 113 278 c 0,30,31
 113 354 113 354 131 430 c 0,0,1
310 417 m 2,32,33
 297 360 297 360 297 316 c 0,34,35
 297 310 297 310 297 305 c 0,36,37
 299 258 299 258 321 228 c 128,-1,38
 343 198 343 198 387 183.5 c 128,-1,39
 431 169 431 169 498 169 c 0,40,41
 559 169 559 169 614 199 c 128,-1,42
 669 229 669 229 713 276.5 c 128,-1,43
 757 324 757 324 789 383.5 c 128,-1,44
 821 443 821 443 834 502 c 0,45,46
 846 551 846 551 846 595 c 0,47,48
 846 600 846 600 846 605 c 0,49,50
 844 653 844 653 825.5 688.5 c 128,-1,51
 807 724 807 724 768.5 744.5 c 128,-1,52
 730 765 730 765 668 765 c 0,53,54
 613 765 613 765 561 742 c 128,-1,55
 509 719 509 719 464.5 680 c 128,-1,56
 420 641 420 641 384 591 c 128,-1,57
 348 541 348 541 326 487 c 1,58,-1
 310 417 l 2,32,33
EndSplineSet
Validated: 1
EndChar

StartChar: p
Encoding: 112 112 83
Width: 1059
GlyphClass: 2
Flags: W
LayerCount: 2
Fore
SplineSet
331 949 m 0,0,1
 348 990 348 990 378 1009 c 0,2,3
 402 1023 402 1023 427 1023 c 0,4,5
 435 1023 435 1023 443 1022 c 1,6,7
 474 1015 474 1015 486 1002 c 128,-1,8
 498 989 498 989 500.5 970 c 128,-1,9
 503 951 503 951 499.5 928 c 128,-1,10
 496 905 496 905 495 878 c 1,11,12
 621 920 621 920 741 922 c 0,13,14
 752 922 752 922 763 923 c 0,15,16
 872 923 872 923 978 900 c 0,17,18
 1043 886 1043 886 1086 844 c 0,19,20
 1130 802 1130 802 1148 740 c 0,21,22
 1161 697 1161 697 1161 645 c 0,23,24
 1161 641 1161 641 1161 638 c 0,25,26
 1161 620 1161 620 1160 602 c 0,27,28
 1157 564 1157 564 1148.5 526 c 128,-1,29
 1140 488 1140 488 1125 448 c 0,30,31
 1085 344 1085 344 1013.5 263 c 128,-1,32
 942 182 942 182 856 130 c 0,33,34
 769 76 769 76 678 56 c 0,35,36
 632 46 632 46 591 46 c 0,37,38
 588 46 588 46 583 46 c 0,39,40
 542 46 542 46 504 54 c 1,41,-1
 266 93 l 1,42,43
 247 44 247 44 237 19 c 128,-1,44
 227 -6 227 -6 222 -19 c 128,-1,45
 217 -32 217 -32 214.5 -39.5 c 128,-1,46
 212 -47 212 -47 207 -60 c 128,-1,47
 202 -73 202 -73 192.5 -98 c 128,-1,48
 183 -123 183 -123 164 -172 c 0,49,50
 160 -183 160 -183 149.5 -210.5 c 128,-1,51
 139 -238 139 -238 127 -268.5 c 128,-1,52
 115 -299 115 -299 104.5 -326.5 c 128,-1,53
 94 -354 94 -354 90 -364 c 1,54,55
 70 -392 70 -392 43.5 -405 c 128,-1,56
 17 -418 17 -418 -7 -413 c 0,57,58
 -37 -406 -37 -406 -49 -381 c 128,-1,59
 -61 -356 -61 -356 -56 -321 c 1,60,61
 -46 -295 -46 -295 -33 -265.5 c 128,-1,62
 -20 -236 -20 -236 -7.5 -205.5 c 128,-1,63
 5 -175 5 -175 17.5 -145 c 128,-1,64
 30 -115 30 -115 39 -88 c 0,65,66
 52 -48 52 -48 71.5 13.5 c 128,-1,67
 91 75 91 75 113 145.5 c 128,-1,68
 135 216 135 216 157.5 288.5 c 128,-1,69
 180 361 180 361 198.5 422 c 128,-1,70
 217 483 217 483 229.5 525.5 c 128,-1,71
 242 568 242 568 245 578 c 1,72,-1
 326 936 l 2,73,74
 326 938 326 938 328 941 c 0,75,76
 328 943 328 943 329.5 945 c 128,-1,77
 331 947 331 947 331 949 c 0,0,1
439 647 m 0,78,79
 437 642 437 642 434 634.5 c 128,-1,80
 431 627 431 627 430 625 c 0,81,82
 428 618 428 618 420 592.5 c 128,-1,83
 412 567 412 567 401.5 532.5 c 128,-1,84
 391 498 391 498 378 458.5 c 128,-1,85
 365 419 365 419 354.5 384.5 c 128,-1,86
 344 350 344 350 335.5 324.5 c 128,-1,87
 327 299 327 299 325 292 c 1,88,89
 349 282 349 282 367.5 277 c 128,-1,90
 386 272 386 272 403 269.5 c 128,-1,91
 420 267 420 267 438 264.5 c 128,-1,92
 456 262 456 262 480 257 c 0,93,94
 519 250 519 250 563 246 c 0,95,96
 582 245 582 245 599 244 c 0,97,98
 626 244 626 244 653 247 c 0,99,100
 699 252 699 252 745 266.5 c 128,-1,101
 791 281 791 281 831.5 308.5 c 128,-1,102
 872 336 872 336 906 378 c 128,-1,103
 940 420 940 420 962 479 c 0,104,105
 973 506 973 506 979 532 c 0,106,107
 983 548 983 548 984 563 c 0,108,109
 986 580 986 580 986 595 c 0,110,111
 986 618 986 618 982 636 c 0,112,113
 975 668 975 668 954.5 689.5 c 128,-1,114
 934 711 934 711 899 719 c 0,115,116
 879 723 879 723 840.5 726.5 c 128,-1,117
 802 730 802 730 753.5 730 c 128,-1,118
 705 730 705 730 653.5 726 c 128,-1,119
 602 722 602 722 557.5 713 c 128,-1,120
 513 704 513 704 480.5 687.5 c 128,-1,121
 448 671 448 671 439 647 c 0,78,79
EndSplineSet
Validated: 1
EndChar

StartChar: q
Encoding: 113 113 84
Width: 981
GlyphClass: 2
Flags: W
LayerCount: 2
Fore
SplineSet
520 -521 m 1,0,-1
 704 -7 l 1,1,-1
 705 -2 l 2,2,3
 707 5 707 5 705 6.5 c 128,-1,4
 703 8 703 8 692 12 c 1,5,6
 620 25 620 25 545.5 39.5 c 128,-1,7
 471 54 471 54 404 78 c 0,8,9
 337 100 337 100 282 136 c 0,10,11
 226 172 226 172 192 226 c 128,-1,12
 158 280 158 280 148 358 c 0,13,14
 145 380 145 380 146 405 c 0,15,16
 146 467 146 467 163 543 c 0,17,18
 183 630 183 630 225 695 c 128,-1,19
 267 760 267 760 322.5 807.5 c 128,-1,20
 378 855 378 855 443 886.5 c 128,-1,21
 508 918 508 918 574.5 936.5 c 128,-1,22
 641 955 641 955 706.5 962.5 c 128,-1,23
 772 970 772 970 830 970 c 0,24,25
 851 970 851 970 881 972 c 0,26,27
 896 973 896 973 910.5 972.5 c 128,-1,28
 925 972 925 972 941 972 c 0,29,30
 973 970 973 970 1004 964 c 128,-1,31
 1035 958 1035 958 1057 944 c 0,32,33
 1078 930 1078 930 1088 904 c 0,34,35
 1093 891 1093 891 1093 874 c 0,36,37
 1093 858 1093 858 1089 839 c 2,38,-1
 1035 604 l 1,39,-1
 812 -184 l 1,40,-1
 786 -294 l 1,41,42
 827 -267 827 -267 851.5 -248.5 c 128,-1,43
 876 -230 876 -230 893.5 -215 c 128,-1,44
 911 -200 911 -200 923 -188 c 128,-1,45
 935 -176 935 -176 950.5 -161 c 128,-1,46
 966 -146 966 -146 988 -127.5 c 128,-1,47
 1010 -109 1010 -109 1046 -82 c 0,48,49
 1065 -68 1065 -68 1084 -74.5 c 128,-1,50
 1103 -81 1103 -81 1115 -97.5 c 128,-1,51
 1127 -114 1127 -114 1128 -135 c 128,-1,52
 1129 -156 1129 -156 1111 -171 c 0,53,54
 1082 -194 1082 -194 1057.5 -212.5 c 128,-1,55
 1033 -231 1033 -231 1010 -248.5 c 128,-1,56
 987 -266 987 -266 963.5 -284.5 c 128,-1,57
 940 -303 940 -303 913 -326 c 0,58,59
 900 -338 900 -338 877.5 -360 c 128,-1,60
 855 -382 855 -382 828 -410 c 128,-1,61
 801 -438 801 -438 771 -468.5 c 128,-1,62
 741 -499 741 -499 713.5 -527.5 c 128,-1,63
 686 -556 686 -556 663.5 -579 c 128,-1,64
 641 -602 641 -602 628 -615 c 0,65,66
 616 -626 616 -626 603.5 -625 c 128,-1,67
 591 -624 591 -624 581 -624 c 0,68,69
 545 -624 545 -624 526 -600 c 0,70,71
 514 -585 514 -585 514 -561 c 0,72,73
 514 -547 514 -547 518 -530 c 2,74,-1
 520 -521 l 1,0,-1
335 529 m 0,75,76
 326 491 326 491 326 459 c 0,77,78
 326 432 326 432 332 410 c 0,79,80
 345 360 345 360 377 324.5 c 128,-1,81
 409 289 409 289 456 266.5 c 128,-1,82
 503 244 503 244 554.5 231 c 128,-1,83
 606 218 606 218 658.5 213.5 c 128,-1,84
 711 209 711 209 756 209 c 2,85,-1
 760 209 l 1,86,87
 800 355 800 355 833 493.5 c 128,-1,88
 866 632 866 632 899 778 c 1,89,90
 865 778 865 778 814 779 c 0,91,92
 805 779 805 779 796 779 c 0,93,94
 753 779 753 779 705 775 c 0,95,96
 647 770 647 770 588.5 757 c 128,-1,97
 530 744 530 744 479 716.5 c 128,-1,98
 428 689 428 689 389.5 643.5 c 128,-1,99
 351 598 351 598 335 529 c 0,75,76
EndSplineSet
Validated: 1
EndChar

StartChar: r
Encoding: 114 114 85
Width: 872
GlyphClass: 2
Flags: W
LayerCount: 2
Fore
SplineSet
113 114 m 1,0,1
 118 126 118 126 130 152.5 c 128,-1,2
 142 179 142 179 156.5 213 c 128,-1,3
 171 247 171 247 187.5 284 c 128,-1,4
 204 321 204 321 218 355 c 128,-1,5
 232 389 232 389 243 415.5 c 128,-1,6
 254 442 254 442 259 455 c 0,7,8
 263 465 263 465 271 493.5 c 128,-1,9
 279 522 279 522 289.5 561 c 128,-1,10
 300 600 300 600 313.5 647 c 128,-1,11
 327 694 327 694 342.5 741 c 128,-1,12
 358 788 358 788 374.5 832 c 128,-1,13
 391 876 391 876 408 909.5 c 128,-1,14
 425 943 425 943 442 963 c 128,-1,15
 459 983 459 983 475 982 c 0,16,17
 483 982 483 982 494 978.5 c 128,-1,18
 505 975 505 975 515 969 c 128,-1,19
 525 963 525 963 531 954 c 128,-1,20
 537 945 537 945 534 932 c 2,21,-1
 500 783 l 1,22,23
 540 820 540 820 580.5 853.5 c 128,-1,24
 621 887 621 887 662.5 912 c 128,-1,25
 704 937 704 937 747 951.5 c 128,-1,26
 790 966 790 966 837 966 c 0,27,28
 863 966 863 966 897 961.5 c 128,-1,29
 931 957 931 957 960.5 944 c 128,-1,30
 990 931 990 931 1007 906 c 0,31,32
 1018 890 1018 890 1018 869 c 0,33,34
 1018 856 1018 856 1014 841 c 0,35,36
 1005 803 1005 803 982.5 780.5 c 128,-1,37
 960 758 960 758 928 758 c 0,38,39
 911 758 911 758 895.5 763 c 128,-1,40
 880 768 880 768 865 774.5 c 128,-1,41
 850 781 850 781 834.5 786 c 128,-1,42
 819 791 819 791 800 791 c 0,43,44
 739 791 739 791 684.5 756.5 c 128,-1,45
 630 722 630 722 581 665.5 c 128,-1,46
 532 609 532 609 488 537 c 128,-1,47
 444 465 444 465 405.5 390.5 c 128,-1,48
 367 316 367 316 333 245 c 128,-1,49
 299 174 299 174 269 119.5 c 128,-1,50
 239 65 239 65 213.5 33 c 128,-1,51
 188 1 188 1 166 5 c 0,52,53
 132 10 132 10 114.5 28.5 c 128,-1,54
 97 47 97 47 107 89 c 2,55,-1
 113 114 l 1,0,1
EndSplineSet
Validated: 1
EndChar

StartChar: s
Encoding: 115 115 86
Width: 819
GlyphClass: 2
Flags: W
LayerCount: 2
Fore
SplineSet
122 181 m 1,0,1
 123 199 123 199 122 201 c 0,2,3
 120 208 120 208 123 220 c 0,4,5
 126 234 126 234 137 251 c 0,6,7
 147 266 147 266 160 277 c 0,8,9
 175 289 175 289 188 293 c 0,10,11
 203 299 203 299 219 299 c 2,12,-1
 223 299 l 2,13,14
 224 299 224 299 228 297 c 0,15,16
 232 296 232 296 237 295 c 0,17,18
 242 293 242 293 246 291 c 0,19,20
 250 290 250 290 251 290 c 1,21,22
 270 271 270 271 302 246 c 0,23,24
 323 229 323 229 364 207 c 0,25,26
 396 189 396 189 433 177 c 0,27,28
 468 166 468 166 503 166 c 0,29,30
 530 166 530 166 553 172 c 0,31,32
 582 180 582 180 603 190 c 0,33,34
 626 202 626 202 645 224 c 0,35,36
 663 244 663 244 669 272 c 0,37,38
 675 297 675 297 675 317 c 0,39,40
 675 339 675 339 668 354 c 0,41,42
 655 382 655 382 624 402 c 0,43,44
 587 424 587 424 554 429 c 0,45,46
 551 429 551 429 470 449 c 0,47,48
 429 458 429 458 388 473 c 0,49,50
 349 487 349 487 321 517 c 0,51,52
 296 546 296 546 286 594 c 0,53,54
 283 611 283 611 282 632 c 0,55,56
 282 669 282 669 293 716 c 0,57,58
 309 787 309 787 343 838 c 0,59,60
 375 888 375 888 422 922 c 0,61,62
 466 955 466 955 523 971 c 0,63,64
 578 987 578 987 639 987 c 0,65,66
 661 987 661 987 694 986 c 0,67,68
 714 985 714 985 763 980 c 0,69,70
 792 977 792 977 835 966 c 0,71,72
 875 956 875 956 898 942 c 0,73,74
 924 926 924 926 937.5 902 c 128,-1,75
 951 878 951 878 943 844 c 0,76,77
 934 805 934 805 910.5 782 c 128,-1,78
 887 759 887 759 854 759 c 128,-1,79
 821 759 821 759 790 767 c 0,80,81
 748 778 748 778 729 784 c 0,82,83
 695 795 695 795 668 802 c 0,84,85
 637 810 637 810 604 810 c 0,86,87
 585 810 585 810 552 806 c 0,88,89
 528 803 528 803 507.5 792.5 c 128,-1,90
 487 782 487 782 472 762.5 c 128,-1,91
 457 743 457 743 450 710 c 0,92,93
 446 695 446 695 446 682 c 0,94,95
 446 662 446 662 455 646 c 0,96,97
 468 622 468 622 499 604 c 0,98,99
 530 585 530 585 568 576 c 0,100,101
 607 566 607 566 649 553 c 0,102,103
 700 539 700 539 729 527 c 0,104,105
 772 510 772 510 798 486 c 0,106,107
 828 459 828 459 840 421 c 0,108,109
 845 403 845 403 845 381 c 0,110,111
 845 355 845 355 838 323 c 2,112,-1
 810 204 l 2,113,114
 802 168 802 168 780 139 c 128,-1,115
 758 110 758 110 728 86 c 0,116,117
 693 60 693 60 659 43 c 0,118,119
 623 24 623 24 587 12 c 0,120,121
 546 -2 546 -2 520 -6 c 0,122,123
 488 -12 488 -12 463 -12 c 0,124,125
 415 -12 415 -12 363.5 2 c 128,-1,126
 312 16 312 16 267 42 c 0,127,128
 219 67 219 67 180.5 102 c 128,-1,129
 142 137 142 137 122 181 c 1,0,1
EndSplineSet
Validated: 1
EndChar

StartChar: t
Encoding: 116 116 87
Width: 720
GlyphClass: 2
Flags: W
LayerCount: 2
Fore
SplineSet
503 1432 m 2,0,1
 512 1473 512 1473 541.5 1496.5 c 128,-1,2
 571 1520 571 1520 605 1521 c 0,3,4
 633 1522 633 1522 645 1502 c 0,5,6
 656 1480 656 1480 658 1446 c 0,7,8
 658 1441 658 1441 659 1435 c 0,9,10
 659 1404 659 1404 652 1366 c 0,11,12
 646 1332 646 1332 637 1295 c 0,13,14
 634 1283 634 1283 632 1270 c 0,15,16
 620 1220 620 1220 604 1169 c 128,-1,17
 588 1118 588 1118 573.5 1072 c 128,-1,18
 559 1026 559 1026 547 989 c 128,-1,19
 535 952 535 952 531 930 c 1,20,-1
 712 930 l 2,21,22
 727 930 727 930 736.5 920 c 128,-1,23
 746 910 746 910 750 895.5 c 128,-1,24
 754 881 754 881 754 864.5 c 128,-1,25
 754 848 754 848 751 835 c 0,26,27
 748 824 748 824 741 808.5 c 128,-1,28
 734 793 734 793 724 779 c 128,-1,29
 714 765 714 765 703 755 c 128,-1,30
 692 745 692 745 681 745 c 2,31,-1
 480 745 l 1,32,-1
 474 716 l 2,33,34
 470 698 470 698 457 662 c 128,-1,35
 444 626 444 626 427 581 c 128,-1,36
 410 536 410 536 391 486 c 128,-1,37
 372 436 372 436 354.5 390.5 c 128,-1,38
 337 345 337 345 324.5 309 c 128,-1,39
 312 273 312 273 308 256 c 0,40,41
 305 240 305 240 305 226 c 0,42,43
 305 200 305 200 318 186 c 0,44,45
 338 166 338 166 378 166 c 0,46,47
 406 166 406 166 431.5 179 c 128,-1,48
 457 192 457 192 479.5 211 c 128,-1,49
 502 230 502 230 522.5 252.5 c 128,-1,50
 543 275 543 275 564 294 c 128,-1,51
 585 313 585 313 607 326 c 128,-1,52
 629 339 629 339 654 339 c 0,53,54
 690 338 690 338 704 316 c 0,55,56
 713 302 713 302 712 282 c 0,57,58
 712 269 712 269 709 253 c 0,59,60
 699 211 699 211 676 174.5 c 128,-1,61
 653 138 653 138 621 107 c 128,-1,62
 589 76 589 76 551 51.5 c 128,-1,63
 513 27 513 27 473.5 10 c 128,-1,64
 434 -7 434 -7 396 -16 c 128,-1,65
 358 -25 358 -25 327 -25 c 0,66,67
 283 -25 283 -25 243.5 -7 c 128,-1,68
 204 11 204 11 176 44 c 0,69,70
 150 77 150 77 138 123 c 0,71,72
 132 146 132 146 132 170 c 0,73,74
 132 196 132 196 138 224 c 1,75,-1
 329 741 l 1,76,77
 294 744 294 744 276 767 c 0,78,79
 264 782 264 782 264 806 c 0,80,81
 264 819 264 819 268 835 c 0,82,83
 274 859 274 859 291 872 c 128,-1,84
 308 885 308 885 327.5 893.5 c 128,-1,85
 347 902 347 902 363 909.5 c 128,-1,86
 379 917 379 917 382 930 c 0,87,88
 394 984 394 984 404 1027 c 128,-1,89
 414 1070 414 1070 422.5 1107 c 128,-1,90
 431 1144 431 1144 439.5 1178.5 c 128,-1,91
 448 1213 448 1213 456.5 1249 c 128,-1,92
 465 1285 465 1285 475.5 1326.5 c 128,-1,93
 486 1368 486 1368 500 1419 c 1,94,-1
 503 1432 l 2,0,1
EndSplineSet
Validated: 1
EndChar

StartChar: u
Encoding: 117 117 88
Width: 884
GlyphClass: 2
Flags: W
LayerCount: 2
Fore
SplineSet
306 977 m 1,0,1
 322 1010 322 1010 346.5 1033.5 c 128,-1,2
 371 1057 371 1057 403 1057 c 0,3,4
 415 1057 415 1057 426.5 1052 c 128,-1,5
 438 1047 438 1047 447.5 1039 c 128,-1,6
 457 1031 457 1031 462.5 1019 c 128,-1,7
 468 1007 468 1007 467 994 c 1,8,9
 459 964 459 964 445 912 c 128,-1,10
 431 860 431 860 416 796 c 0,11,12
 413 785 413 785 410 774 c 0,13,14
 398 720 398 720 387 660 c 0,15,16
 372 588 372 588 363 517 c 0,17,18
 354 450 354 450 354 388 c 0,19,20
 354 385 354 385 354 381 c 0,21,22
 354 316 354 316 369 267 c 128,-1,23
 384 218 384 218 414.5 188.5 c 128,-1,24
 445 159 445 159 497 159 c 0,25,26
 542 159 542 159 580.5 182.5 c 128,-1,27
 619 206 619 206 650 245 c 128,-1,28
 681 284 681 284 705.5 333 c 128,-1,29
 730 382 730 382 748.5 433 c 128,-1,30
 767 484 767 484 780 532 c 128,-1,31
 793 580 793 580 801 617 c 0,32,33
 811 662 811 662 818 706 c 128,-1,34
 825 750 825 750 830.5 794.5 c 128,-1,35
 836 839 836 839 842.5 883 c 128,-1,36
 849 927 849 927 859 972 c 0,37,38
 868 1013 868 1013 898 1039 c 128,-1,39
 928 1065 928 1065 963 1065 c 256,40,41
 999 1065 999 1065 1014 1037.5 c 128,-1,42
 1029 1010 1029 1010 1031 966 c 0,43,44
 1031 957 1031 957 1031 949 c 0,45,46
 1031 912 1031 912 1025 870 c 0,47,48
 1017 818 1017 818 1005.5 767.5 c 128,-1,49
 994 717 994 717 982.5 675 c 128,-1,50
 971 633 971 633 966 612 c 0,51,52
 950 544 950 544 926.5 470.5 c 128,-1,53
 903 397 903 397 870.5 326 c 128,-1,54
 838 255 838 255 797 191 c 128,-1,55
 756 127 756 127 704 78.5 c 128,-1,56
 652 30 652 30 590 1.5 c 128,-1,57
 528 -27 528 -27 455 -27 c 0,58,59
 366 -27 366 -27 312.5 14 c 128,-1,60
 259 55 259 55 232 122.5 c 128,-1,61
 205 190 205 190 201 277 c 0,62,63
 200 305 200 305 200 333 c 0,64,65
 200 393 200 393 206 456 c 0,66,67
 214 548 214 548 231.5 638.5 c 128,-1,68
 249 729 249 729 266 803 c 2,69,-1
 306 977 l 1,0,1
EndSplineSet
Validated: 1
EndChar

StartChar: v
Encoding: 118 118 89
Width: 883
GlyphClass: 2
Flags: W
LayerCount: 2
Fore
SplineSet
306 977 m 1,0,1
 323 1010 323 1010 347 1033.5 c 128,-1,2
 371 1057 371 1057 403 1057 c 0,3,4
 415 1057 415 1057 426.5 1052 c 128,-1,5
 438 1047 438 1047 447.5 1039 c 128,-1,6
 457 1031 457 1031 462.5 1019 c 128,-1,7
 468 1007 468 1007 467 994 c 1,8,9
 465 987 465 987 464 980 c 0,10,11
 456 944 456 944 448 896 c 0,12,13
 439 838 439 838 434 772 c 0,14,15
 429 712 429 712 429 646 c 0,16,17
 430 638 430 638 430 632 c 0,18,19
 430 560 430 560 438.5 489 c 128,-1,20
 447 418 447 418 464.5 353 c 128,-1,21
 482 288 482 288 512 237 c 0,22,23
 518 228 518 228 538.5 242.5 c 128,-1,24
 559 257 559 257 588 287 c 128,-1,25
 617 317 617 317 651 358.5 c 128,-1,26
 685 400 685 400 715.5 445 c 128,-1,27
 746 490 746 490 769 535 c 128,-1,28
 792 580 792 580 801 617 c 0,29,30
 811 662 811 662 817.5 706 c 128,-1,31
 824 750 824 750 829.5 794.5 c 128,-1,32
 835 839 835 839 842 883 c 128,-1,33
 849 927 849 927 859 972 c 0,34,35
 868 1013 868 1013 897.5 1039 c 128,-1,36
 927 1065 927 1065 963 1065 c 256,37,38
 998 1065 998 1065 1013.5 1037.5 c 128,-1,39
 1029 1010 1029 1010 1031 966 c 0,40,41
 1031 958 1031 958 1031 950 c 0,42,43
 1030 912 1030 912 1024 870 c 0,44,45
 1016 818 1016 818 1004.5 767.5 c 128,-1,46
 993 717 993 717 981.5 675 c 128,-1,47
 970 633 970 633 965 612 c 0,48,49
 953 561 953 561 926.5 505 c 128,-1,50
 900 449 900 449 863.5 392.5 c 128,-1,51
 827 336 827 336 784 280.5 c 128,-1,52
 741 225 741 225 697 176 c 128,-1,53
 653 127 653 127 612 86.5 c 128,-1,54
 571 46 571 46 538 18.5 c 128,-1,55
 505 -9 505 -9 482.5 -21.5 c 128,-1,56
 460 -34 460 -34 454 -27 c 0,57,58
 306 168 306 168 260 374 c 0,59,60
 239 467 239 467 239 563 c 0,61,62
 239 567 239 567 239 572 c 0,63,64
 239 685 239 685 266 803 c 2,65,-1
 306 977 l 1,0,1
EndSplineSet
Validated: 1
EndChar

StartChar: w
Encoding: 119 119 90
Width: 1151
GlyphClass: 2
Flags: W
LayerCount: 2
Fore
SplineSet
787 673 m 2,0,1
 792 673 792 673 797 665 c 128,-1,2
 802 657 802 657 807 624.5 c 128,-1,3
 812 592 812 592 821 549.5 c 128,-1,4
 830 507 830 507 850 470 c 1,5,6
 863 440 863 440 870.5 410.5 c 128,-1,7
 878 381 878 381 884.5 353.5 c 128,-1,8
 891 326 891 326 898.5 300.5 c 128,-1,9
 906 275 906 275 919 253 c 0,10,11
 924 244 924 244 937 258.5 c 128,-1,12
 950 273 950 273 966.5 303 c 128,-1,13
 983 333 983 333 1002 374.5 c 128,-1,14
 1021 416 1021 416 1038.5 461 c 128,-1,15
 1056 506 1056 506 1071.5 551 c 128,-1,16
 1087 596 1087 596 1095 633 c 0,17,18
 1105 678 1105 678 1112 722 c 128,-1,19
 1119 766 1119 766 1124.5 810.5 c 128,-1,20
 1130 855 1130 855 1136.5 899 c 128,-1,21
 1143 943 1143 943 1153 988 c 0,22,23
 1162 1029 1162 1029 1192 1055 c 128,-1,24
 1222 1081 1222 1081 1257 1081 c 256,25,26
 1293 1081 1293 1081 1308 1053.5 c 128,-1,27
 1323 1026 1323 1026 1325 982 c 0,28,29
 1325 973 1325 973 1325 965 c 0,30,31
 1325 928 1325 928 1319 886 c 0,32,33
 1311 834 1311 834 1299.5 783.5 c 128,-1,34
 1288 733 1288 733 1276.5 691 c 128,-1,35
 1265 649 1265 649 1260 628 c 0,36,37
 1244 560 1244 560 1211 483.5 c 128,-1,38
 1178 407 1178 407 1136.5 333 c 128,-1,39
 1095 259 1095 259 1049.5 192.5 c 128,-1,40
 1004 126 1004 126 965.5 77.5 c 128,-1,41
 927 29 927 29 899 4 c 128,-1,42
 871 -21 871 -21 864 -11 c 0,43,44
 813 56 813 56 775 123.5 c 128,-1,45
 737 191 737 191 710 261 c 1,46,47
 659 196 659 196 614.5 139.5 c 128,-1,48
 570 83 570 83 536 43.5 c 128,-1,49
 502 4 502 4 480.5 -16 c 128,-1,50
 459 -36 459 -36 452 -27 c 0,51,52
 306 168 306 168 260 374 c 0,53,54
 238 470 238 470 238 570 c 0,55,56
 238 684 238 684 266 803 c 2,57,-1
 306 977 l 1,58,59
 323 1010 323 1010 347 1033.5 c 128,-1,60
 371 1057 371 1057 403 1057 c 0,61,62
 415 1057 415 1057 426.5 1052 c 128,-1,63
 438 1047 438 1047 447.5 1039 c 128,-1,64
 457 1031 457 1031 462.5 1019 c 128,-1,65
 468 1007 468 1007 467 994 c 1,66,67
 465 987 465 987 464 980 c 0,68,69
 456 944 456 944 448 896 c 0,70,71
 439 838 439 838 434 772 c 0,72,73
 429 712 429 712 429 646 c 0,74,75
 430 638 430 638 430 632 c 0,76,77
 430 560 430 560 438.5 489 c 128,-1,78
 447 418 447 418 464.5 353 c 128,-1,79
 482 288 482 288 512 237 c 0,80,81
 517 228 517 228 529.5 242.5 c 128,-1,82
 542 257 542 257 561.5 287 c 128,-1,83
 581 317 581 317 606.5 359 c 128,-1,84
 632 401 632 401 662 446 c 1,85,-1
 787 673 l 2,0,1
EndSplineSet
Validated: 1
EndChar

